<?xml version="1.0" standalone="no"?>
<!DOCTYPE svg PUBLIC "-//W3C//DTD SVG 1.1//EN" "http://www.w3.org/Graphics/SVG/1.1/DTD/svg11.dtd" >
<svg>
<metadata>
Created by FontForge 20090622 at Mon Oct 17 10:49:49 2016
 By ffonts
Copyright (c) 2015 by Zetafonts. All rights reserved.
</metadata>
<defs>
<font id="KittenBold" horiz-adv-x="496" >
  <font-face 
    font-family="Kitten Bold"
    font-weight="400"
    font-stretch="normal"
    units-per-em="1000"
    panose-1="0 0 0 0 0 0 0 0 0 0"
    ascent="800"
    descent="-200"
    x-height="410"
    cap-height="727"
    bbox="-2772.57 -855 2499.91 1263"
    underline-thickness="50"
    underline-position="-50"
    unicode-range="U+000D-U+FB06"
  />
<missing-glyph horiz-adv-x="528" 
d="M142 212q-1 5 -4.5 7.5t-7.5 2.5q-10 -2 -10 -10q0 -13 10 -13q5 0 8.5 4.5t3.5 8.5zM245 159q0 6 -5 8t-13 2t-13 -1t-7 -8q0 -7 5.5 -13.5t13.5 -7.5q8 0 13.5 6.5t5.5 13.5zM367 214q-2 11 -15 11q-12 -5 -12 -15q1 -6 4.5 -8.5t7.5 -2.5q7 0 11 5t4 10zM439 326
q26 -32 42 -70.5t16 -78.5q0 -41 -16.5 -73t-46.5 -54.5t-71.5 -35t-90.5 -13.5h-20q-50 1 -91 13.5t-71 35t-46.5 54.5t-16.5 73q0 52 26 100.5t63 83.5q-6 16 -6 41q0 14 3.5 28.5t8.5 14.5t10 -5t10 -11.5t9.5 -13t9.5 -8.5l13 -7q23 9 48.5 12.5t58.5 3.5
q19 0 39.5 -2.5t37 -6t27.5 -8t11 -8.5q11 8 27 14t31 6q8 0 8 -6q0 -9 -3.5 -19.5t-8 -21t-8 -19.5t-3.5 -16v-3z" />
    <glyph glyph-name="a_a" unicode="aa" horiz-adv-x="990" 
d="M571 181q3 -23 -21 -55.5t-59.5 -63t-75.5 -52t-69 -21.5q-30 0 -51.5 7t-34.5 26q-11 14 -15 32q-23 -33 -59 -52t-65 -21q-54 0 -89.5 27.5t-43.5 90.5q-6 50 18.5 103t65.5 97t91.5 72.5t97.5 28.5q8 0 16 -0.5t16 -0.5l14 43q5 2 13.5 2.5t17.5 0.5q16 0 34.5 -5.5
t35.5 -15t30 -22.5t19 -28l-1 1l-1.5 -10t-6 -32.5t-13.5 -60t-25 -92.5l-9.5 -33.5t-11.5 -36.5q2 -6 5 -7.5t8 -1.5q20 0 41 18t50 48l31 33q11 12 24 12q9 0 15.5 -11.5t7.5 -19.5zM189 112q22 0 33.5 7t17 18t8 26t7.5 30l30 131q-7 0 -14 -3q-15 -5 -31 -18.5
t-30 -32.5q-22 -28 -35 -62.5t-10 -66.5q2 -17 8 -23t16 -6zM1050 189q2 -16 -8 -37t-28 -43t-41.5 -43.5t-48.5 -38.5t-49.5 -27.5t-43.5 -10.5q-30 0 -51.5 7t-35.5 27q-5 8 -8.5 15.5t-5.5 17.5q-11 -17 -26 -30.5t-31.5 -23t-33 -15t-31.5 -6.5q-54 0 -90 28t-44 94
q-4 35 5.5 72t29.5 72t47.5 66t59 54.5t64.5 37t64 13.5q8 0 16 -0.5t16 -0.5l11 27q5 2 13.5 3t17.5 1q16 0 34.5 -3t35.5 -10t30 -18t19 -26l-1 1l-1.5 -10t-6 -34t-13 -63t-24.5 -97l-8.5 -35l-9.5 -38q1 -10 12 -10q19 0 40 19t50 50l30 35q11 12 23 12q9 0 15 -12
t7 -20zM675 117q22 0 33 7t16 19t7.5 27.5t7.5 31.5l16 78q4 15 6.5 29.5t7.5 29.5q-8 0 -15 -4q-14 -5 -30.5 -19t-30.5 -34q-21 -29 -33 -65.5t-10 -69.5q2 -17 8.5 -23.5t16.5 -6.5z" />
    <glyph glyph-name="b_r" unicode="br" horiz-adv-x="908" 
d="M957 172q-1 -23 -23.5 -54t-56 -60t-72 -49t-71.5 -20q-71 0 -101 42q-10 12 -16 33q-4 23 -1 48.5t10 51t16.5 48.5t18.5 42q3 6 5.5 11.5t5.5 10.5l-21.5 2.5l-25.5 3t-24 3t-17 3.5q-12 -38 -23 -64.5t-24 -42.5t-28.5 -23t-34.5 -7h-11t-13 1q-20 2 -42 6.5t-38 15.5
q-15 -36 -40 -72t-58 -64.5t-74.5 -46.5t-89.5 -18q-20 0 -40 8t-37 22t-29 33.5t-16 42.5l-2 10t-1 10q-4 36 -2 90t9 115.5t20.5 124t33.5 115.5t46.5 90.5t60.5 49.5q11 4 26 4q19 0 40.5 -7t41 -18.5t33.5 -27.5t17 -34q2 -9 -1 -18t-15 -20q-24 -22 -49.5 -72
t-46.5 -112.5t-34 -128t-13 -118.5v-17t2.5 -12t8.5 -7.5t18 -2.5q19 0 38.5 12.5t35 32t27 42.5t15.5 45q0 2 -9 11t-20 21.5t-21.5 28t-13.5 30.5t6 30.5t25 28t36.5 20.5t41.5 8q20 0 40.5 -25t26.5 -60q3 -17 1.5 -34t-9.5 -33q13 -9 26.5 -11t23.5 -2q25 0 36 22t13 67
q-10 8 -20 25.5t-13 31.5q-5 30 0 56t16.5 45t27.5 29.5t34 10.5q11 0 26 -3t30.5 -8t29.5 -11.5t25 -14.5q15 -12 18 -24q1 -6 -4 -14t-12 -18t-14.5 -22t-11.5 -27q6 -5 15 -8t19 -5t20.5 -2.5t18.5 -0.5q10 0 21 1t20 6q8 2 16.5 2.5t16.5 2.5q24 -9 43 -19.5t22 -30.5
q4 -26 -5 -58t-21 -63.5l-21.5 -58.5t-6.5 -42q0 -7 9 -7q24 0 59 30q5 4 14 16l18.5 25t19 22.5t15.5 9.5q11 -2 21.5 -9.5t12.5 -21.5z" />
    <glyph glyph-name="c_c" unicode="cc" horiz-adv-x="773" 
d="M545 258q-2 8 2 15.5t15 15.5l42 34q-9 9 -19 9q-20 0 -37.5 -11t-28.5 -31.5t-15 -49.5t2 -66q10 -38 29 -58.5t54 -22.5q27 0 54.5 10.5t53 28.5t48.5 41t40 49q5 11 15 11q11 0 23 -12t12 -20q0 -36 -24 -73.5t-64 -69t-90.5 -51.5t-102.5 -20q-69 0 -112.5 20.5
t-67.5 64.5q-41 -35 -92 -60t-103 -25q-94 0 -142.5 40.5t-62.5 125.5q-9 50 8 99.5t53 89t86.5 64t108.5 24.5q12 0 29 -3t34.5 -12t32 -26t21.5 -46q5 -31 1.5 -57t-13.5 -44.5t-24.5 -29t-31.5 -10.5q-13 0 -29.5 4t-31 11.5t-25.5 18.5t-14 25q-2 9 5.5 15.5t17.5 13.5
t18.5 14.5t8.5 18.5q-1 5 -7.5 7t-11.5 2q-20 0 -37.5 -11t-28.5 -31.5t-15 -49.5t2 -66q10 -38 29 -58.5t54 -22.5q34 0 68.5 16.5t65.5 42.5q-9 50 5 98.5t46.5 86t80.5 60.5t106 23q8 0 20.5 -0.5t27.5 -2.5t30.5 -7t29 -13.5t23.5 -21.5t15 -32q5 -31 0 -57t-16.5 -44.5
t-28 -29t-33.5 -10.5q-13 0 -31 3.5t-34.5 10.5t-28.5 17.5t-15 24.5z" />
    <glyph glyph-name="d_d" unicode="dd" horiz-adv-x="966" 
d="M139 139q3 -14 12 -27t20 -14q15 0 29 9q20 14 35.5 47.5t24.5 80t11.5 101.5t-4.5 113q-3 33 -12 56t-20.5 40.5t-24 32t-21.5 30.5q-8 10 -13 19.5t-7 20.5q-3 24 9 44t30 35t39.5 23t38.5 8q18 -1 36.5 -18.5t35 -46t31 -64.5t23.5 -74q36 -33 68.5 -55.5t59 -36.5
t47 -21.5t34.5 -11.5q27 14 44 16q30 3 52 -6t25 -25q2 -8 4 -23t-0.5 -29.5t-10.5 -26.5t-25 -14q-16 -2 -43 3q-32 -29 -46 -78t-3 -114q2 -6 7 -13t11.5 -13t13 -9.5t12.5 -3.5q27 0 47.5 26.5t32 71.5t13 103.5t-9.5 123.5q-8 45 -22.5 75t-28.5 51.5t-26 38t-15 35.5
q-4 23 6 36.5t26.5 21t37 10.5t38.5 4q21 0 42.5 -18t40.5 -48q20 -31 34.5 -70.5t22.5 -84.5q8 -49 11.5 -104.5t-2 -109.5t-22.5 -103.5t-49.5 -87.5t-82.5 -60.5t-121 -22.5q-28 0 -57 8q-42 12 -73.5 42t-39.5 79q-9 51 -8 91t11 72t27 56.5t41 44.5q-26 8 -53 18.5
l-56 21.5q2 -50 -1.5 -102t-15.5 -101t-32.5 -92t-53.5 -74t-79 -48t-108 -14q-29 1 -55.5 12.5t-48 30.5t-36.5 44t-19 54q-11 90 6 152.5t51 101.5t80.5 56t95.5 15q36 -1 42 -33q1 -28 -19 -35q-27 -9 -47 -32t-32 -55t-16.5 -72t0.5 -84z" />
    <glyph glyph-name="e_e" unicode="ee" horiz-adv-x="786" 
d="M234 86q76 3 128 40q-13 54 -7.5 107.5t37.5 98.5q29 42 79.5 68.5t128.5 28.5q43 1 73.5 -12.5t48.5 -35.5q19 -22 24 -52q5 -28 -10 -60.5t-43 -62.5t-66.5 -54t-79.5 -34q21 -30 62 -30q31 0 57.5 11t50 30t45.5 43.5t43 51.5q7 8 17.5 6t20 -9.5t14.5 -18.5t1 -20
q-15 -30 -41 -64.5t-62.5 -64t-83.5 -49.5t-102 -21q-52 -2 -94.5 16t-70.5 50q-40 -27 -89.5 -45t-105.5 -20q-45 -1 -84.5 10t-70.5 32t-52 51t-28 67q-10 49 -4 98.5t32 89.5t72 65.5t118 27.5q74 2 109.5 -22t43.5 -66q4 -25 2 -49.5t-13.5 -47t-34.5 -41.5t-60 -32
q-35 -13 -88 -21q9 -26 31 -41.5t52 -18.5zM575 332q-32 -1 -46.5 -36.5t-12.5 -86.5q31 14 49 29.5t27 29.5t10.5 25.5t0.5 17.5q-2 9 -10.5 15t-17.5 6zM136 220q16 1 29 8q16 7 27 19t17 25.5t8 26.5t0 22q-2 8 -6 13t-12 6q-12 0 -23 -10.5t-20 -27t-14.5 -38
t-5.5 -44.5z" />
    <glyph glyph-name="f_f" unicode="ff" horiz-adv-x="745" 
d="M831 323q25 -1 35 -9.5t9.5 -21.5t-9 -27.5t-20 -28t-23.5 -23t-20 -11.5q-47 0 -92.5 9.5t-97.5 9.5q19 -14 36.5 -38t30.5 -66q16 -52 7.5 -102.5t-35.5 -90.5t-70 -64.5t-97 -24.5q-32 0 -54 12t-37 33q-8 11 -13.5 23.5t-10.5 26.5q-10 31 -13.5 68t-2.5 75.5
t4.5 76.5t7.5 72q-13 0 -40 4.5t-69 2.5q11 -10 26 -25.5t29.5 -35t27 -42t19.5 -45.5q17 -57 9.5 -111.5t-35 -97.5t-72 -69.5t-99.5 -26.5q-31 0 -55 13q-23 13 -39 36t-25 54q-4 11 -6 22l-4 23q-5 29 -6.5 64t-1 71t2.5 69.5t5 59.5q-15 -1 -27 4.5t-21.5 14.5t-16 20.5
t-10.5 21.5q-6 20 -5.5 34t11 23.5t31 16.5t53.5 13q6 38 16.5 85t24 95.5t31 95t39 82t47 57.5t54.5 22q33 0 68.5 -16t56.5 -39q15 -17 18 -33q2 -10 -1 -19.5t-17 -20.5q-20 -16 -41 -49t-40.5 -75t-36.5 -88.5t-29 -89.5q38 2 76.5 2.5t77.5 -0.5q7 33 17 72t23.5 79
t29.5 76.5t35 65.5t41 46t48 17q33 0 68.5 -16t56.5 -39q6 -8 10.5 -16.5t6.5 -16.5q2 -10 -1 -19.5t-17 -20.5q-16 -13 -32.5 -37.5t-33 -56t-32 -67.5t-27.5 -73q53 -5 113 -8t133 -8zM596 125q-7 23 -17 38.5t-35 27.5q-3 -29 -7 -61t-8.5 -64l-9 -63.5t-7.5 -58.5v-5
q3 -8 10 -10.5t12 -2.5q13 0 29 17.5t27 45.5t14.5 63.5t-8.5 72.5zM206 171q-3 -31 -4.5 -67.5t-3.5 -73.5t-4.5 -72t-5.5 -64q-2 -6 1 -10t7.5 -6t9 -3t6.5 -1q14 0 29.5 18.5t27 49t14.5 69t-9 78.5q-9 26 -26 47t-42 35z" />
    <glyph glyph-name="f_s" unicode="fs" horiz-adv-x="769" 
d="M223 326q23 0 48.5 1t50 3.5t47 6.5t40.5 11q-3 24 3.5 46.5t26 40t53 28t83.5 10.5q1 0 18.5 -2.5t39 -10.5t40.5 -23t23 -39q2 -13 -0.5 -21.5t-13 -17t-30.5 -18l-53 -24.5q24 -19 45 -41.5t36.5 -44.5t25.5 -42t13 -35q7 -37 -3.5 -69t-34.5 -55.5t-58.5 -37
t-76.5 -13.5q-30 0 -64 7.5t-64 24t-52.5 42t-29.5 62.5q-4 22 0 44.5t14 40.5t25 29.5t35 11.5q42 0 63.5 -14.5t30.5 -31t9.5 -28.5t0.5 -7q-4 -7 -10.5 -13l-13.5 -12q-8 -6 -13.5 -12t-7.5 -12q8 -14 26.5 -23.5t40.5 -9.5q15 0 26 5.5t8 19.5l-59 77t-59 89
q-40 -16 -93 -26.5t-107 -12.5q9 -6 19 -18.5t20 -27.5t17 -32t10 -32q10 -57 -4.5 -111.5t-47.5 -97.5t-81 -69.5t-103 -26.5q-23 0 -42 8q-28 11 -42 36t-21 59q-2 9 -2.5 18.5t-1.5 20.5q-2 31 0.5 65.5t7.5 69.5t12 69l14 65q-21 9 -39.5 20.5t-21.5 29.5q-3 14 9.5 25
t32.5 19q9 4 19.5 6l21.5 4l5 24v-1q13 58 32 116.5t42.5 105.5t52 76.5t61.5 29.5q19 0 42.5 -6.5t44.5 -18t37 -27.5t19 -36q2 -10 -1 -19.5t-17 -20.5q-15 -13 -31.5 -36.5t-33 -54t-31.5 -65.5t-28 -71zM234 128q-5 26 -14 42t-33 30q-6 -29 -17 -65.5l-21.5 -73.5
t-18 -72t-7.5 -62q2 -9 9 -11.5t12 -2.5q13 0 31.5 18.5t34 49t23.5 69t1 78.5zM577 399q-2 7 -7 7q-11 0 -16 -17q11 -4 16.5 0.5t6.5 9.5z" />
    <glyph glyph-name="g_g" unicode="gg" horiz-adv-x="980" 
d="M679 14q-19 -17 -41 -29t-46 -12q-56 0 -92 26.5t-46 83.5q-8 -5 -16.5 -9l-16.5 -8l-33 -14q-12 -62 -30 -118.5t-47.5 -100t-73 -69.5t-106.5 -26q-29 0 -60 9.5t-57.5 26t-45.5 37.5t-23 45q-3 14 6 32t25 34.5t36.5 28t40.5 12.5q20 -2 28.5 -19.5l18.5 -38t26.5 -37
t52.5 -16.5q13 0 21.5 16.5t12.5 39.5t4.5 48t-0.5 42q-10 -4 -23.5 -7t-29 -5.5t-31 -3.5t-28.5 -1q-24 0 -47.5 10.5t-43.5 28t-34 40t-18 47.5q-8 45 10.5 92t53.5 87.5t81 70t93 40.5q9 2 18 3t17 2q3 25 13 40t21 23.5t22 11t17 2.5q11 0 32.5 -5t43.5 -13
q22 -9 39.5 -21t20.5 -26q1 -5 0.5 -12.5t-1.5 -15.5q-2 -21 -6 -47t-9.5 -55l-11 -59.5t-9.5 -59.5q5 2 10.5 4.5l11.5 5.5q5 3 11 7l13 9q9 39 30 75.5t50.5 66t65.5 50t75 27.5q18 3 35 3q-5 25 1.5 39t32.5 14q34 0 58 -9t40 -25.5t26 -38.5t15 -49q5 -31 6 -61.5
t0 -58.5t-3.5 -50.5t-4.5 -37.5q5 1 11 2.5t11 4.5q18 8 37.5 24t44.5 45q15 18 31 18t29 -11t13 -22q0 -21 -20 -48.5t-50 -54t-66.5 -48.5t-69.5 -33q-12 -59 -33 -114t-53 -97.5t-77 -68t-106 -25.5q-29 0 -60 9.5t-58 26t-46 37.5t-23 45q-2 14 7 32t25 34.5t36.5 28
t40.5 12.5q20 -2 28.5 -19.5l18.5 -38t26.5 -37t52.5 -16.5q14 0 25 21.5t18.5 52t11.5 65t5 60.5zM644 105q24 0 36.5 15.5t18.5 34.5q12 42 15.5 86t0.5 89q-5 -2 -9.5 -5t-9.5 -6q-20 -15 -36.5 -37t-27.5 -47.5t-15.5 -52.5t-0.5 -50q4 -27 28 -27zM172 106
q12 0 23.5 4.5t21.5 12.5q7 58 11 107t11 93q-5 -2 -10.5 -4.5t-10.5 -5.5q-20 -12 -37 -31t-30 -41.5t-19.5 -45.5t-4.5 -42q5 -26 16.5 -36.5t28.5 -10.5z" />
    <glyph glyph-name="i_i" unicode="ii" horiz-adv-x="498" 
d="M541 171q5 -26 -17.5 -58t-57 -60.5t-74.5 -48t-70 -19.5q-48 0 -68.5 18t-28.5 57q-37 -32 -78.5 -53.5t-73.5 -21.5q-51 0 -73.5 21.5t-28.5 65.5q-4 23 -6 59.5t0.5 78.5t10 84.5t22 77t37 56t54.5 21.5q19 0 33.5 -2.5t25.5 -6.5q22 -8 30 -19.5t10 -22.5
q4 -24 1.5 -41t-9 -37.5l-16 -49.5t-18.5 -75l-6 -33.5t-6 -37.5q0 -7 9 -7q14 0 33.5 16.5t42.5 42.5q2 39 9 80.5t21 75.5t36.5 56t55.5 22q35 0 57 -8q20 -8 27.5 -18.5t9.5 -20.5q3 -18 2 -31.5t-5.5 -28t-11.5 -32.5t-15 -44q-6 -21 -12 -49t-11 -66q0 -6 8 -6
q19 0 48 28.5t62 64.5q3 3 8 3q10 -1 20.5 -10t12.5 -21zM412 466q-15 0 -29 2.5t-26.5 10t-22 20.5t-13.5 34q-5 31 0 57t16.5 44.5t28 29t33.5 10.5q14 0 35 -4.5t41 -13t35 -19.5t17 -24q3 -16 -16 -31q-12 -9 -21.5 -27.5l-19 -38t-20 -34t-22.5 -15.5q-4 0 -8 -0.5
t-8 -0.5zM171 522q-31 0 -58.5 14t-37.5 59q-5 34 -1.5 60.5t14 45t26 28t33.5 9.5q14 0 36 -5t43 -14t37 -21.5t19 -26.5q2 -8 -2 -16.5t-15 -17.5q-12 -10 -20.5 -28.5l-17 -37.5t-17.5 -33t-23 -15q-4 0 -8 -0.5t-8 -0.5z" />
    <glyph glyph-name="k_k" unicode="kk" horiz-adv-x="940" 
d="M446 65q-8 -10 -15.5 -18.5t-15.5 -15.5q-20 -17 -38.5 -27t-34.5 -14.5t-29 -5.5t-22 -1q-27 0 -46 7.5t-32.5 22.5t-22.5 37.5t-16 52.5l-10 27.5t-13 24.5q-5 -31 -8 -59.5t-11 -59.5q-3 -12 -6.5 -22.5t-10 -18.5t-16.5 -13t-26 -5q-15 0 -31 10t-29.5 25t-23.5 31.5
t-11 29.5q-5 29 -0.5 56l10.5 66l13 93q4 34 12.5 80.5t20 97t27.5 101t35.5 92.5t43 72t51.5 39q22 6 49 0.5t51.5 -18t42.5 -30.5t21 -37q2 -10 -1 -19.5t-17 -20.5q-23 -18 -47.5 -57t-46 -87.5t-39.5 -101.5t-28 -99q8 0 17 7q12 10 23 28.5t25 37.5t34.5 33t51.5 14
q26 0 45 -6.5t31 -16.5q33 -26 35.5 -55.5t-17 -57.5t-56 -50.5t-81.5 -35.5q10 -18 18.5 -36.5l16 -33.5t16 -25t19.5 -10q7 0 18 3q14 5 32.5 19.5t35.5 40.5q6 44 15 101.5t21.5 118t28.5 119t36 104.5t44 74t52 28q22 0 46 -7.5t44 -19.5t34.5 -28t17.5 -33
q2 -12 -2 -22.5t-21 -25.5q-15 -14 -31.5 -43.5t-31.5 -67.5t-28 -80t-20 -80q9 0 19 8q11 10 21 27.5t23.5 34.5t32 30t47.5 13q24 0 41 -6.5t30 -15.5q23 -20 26 -42q7 -40 -15 -70t-81 -57q-24 -10 -25.5 -30.5t8.5 -41t25.5 -36t24.5 -15.5q16 0 41 17t52 55
q6 10 14 19.5t17 12t19 -4t20 -27.5q-5 -28 -29 -60t-57 -59t-70.5 -45t-69.5 -18q-44 0 -67 19.5t-37 57.5q-7 21 -14.5 48t-21.5 47q-3 -20 -5 -38t-5 -35t-7 -35.5t-10 -40.5q-2 -10 -17 -19.5t-34 -9.5q-15 0 -30 8.5t-28.5 22t-23 28.5t-13.5 29z" />
    <glyph glyph-name="l_l" unicode="ll" horiz-adv-x="562" 
d="M597 169q5 -30 -15.5 -62.5t-55.5 -60t-78 -45t-82 -17.5q-33 0 -62 15t-43 48q-35 -30 -77.5 -50t-80.5 -20q-17 0 -34 4.5t-32 14.5t-25.5 26.5t-14.5 39.5q0 42 1 104t5.5 132.5t15 143t28 134.5t44 106.5t64.5 59.5q13 6 30 6q10 0 20.5 -2t21.5 -5q32 -10 56.5 -30
t29.5 -45q2 -8 -0.5 -17t-11.5 -19q-14 -16 -30.5 -50.5t-32.5 -80t-30.5 -96.5t-26 -100t-19 -92t-7.5 -70v-14t2.5 -15t7 -11.5t12.5 -4.5q25 0 76 63l3 34q3 29 9 73t15.5 94t23.5 101.5t33 95t44 74.5t56 41q20 0 42.5 -7.5t41.5 -20t32.5 -28.5t16.5 -33q2 -9 -1 -18
t-15 -20q-16 -14 -32 -43t-30.5 -66t-27.5 -79t-22.5 -82.5t-15 -76t-6.5 -59.5v-13.5t1 -10.5q5 -20 21 -20q27 0 75 48q6 6 12.5 15t13.5 17.5t13 15t9 6.5q9 -1 19.5 -8t12.5 -20z" />
    <glyph glyph-name="m_m" unicode="mm" horiz-adv-x="1388" 
d="M753 440q5 1 10 1h11q15 0 33.5 -2.5t36 -8t30 -14t14.5 -20.5q1 -6 -2.5 -13.5t-8.5 -16t-10 -18.5t-7 -22q35 38 78 62.5t78 24.5q38 0 62 -17.5t24 -45.5q30 29 66.5 46t65.5 17q41 0 60.5 -19.5t26.5 -48.5q4 -22 -5 -56t-20.5 -69.5t-20.5 -67t-6 -48.5q2 -7 9 -7
t17 4.5t23 16.5t29.5 32t38.5 51q9 10 26 10q11 0 22 -7q5 -4 9 -9t5 -11q1 -8 -2 -19q-6 -24 -30 -55t-57 -58.5t-71 -46.5t-72 -19q-48 0 -79 18t-38 55q-5 26 3 59t19.5 63l20.5 54t8 32q-15 -3 -27 -11q-24 -15 -39 -43.5t-23 -61.5t-11.5 -67t-5.5 -60
q-1 -23 -14.5 -30t-38.5 -7q-37 0 -67.5 10.5t-41.5 44.5q0 10 1 19.5t2 20.5q5 31 12.5 61t15.5 56l14.5 41t4.5 27q-13 -3 -26 -11q-20 -13 -33 -37t-21.5 -53.5t-13.5 -60t-9 -57.5l-4 -26t-10 -20q-12 -11 -31.5 -15t-40.5 2t-40.5 23t-30.5 47q-35 -30 -75 -51.5
t-73 -21.5q-48 0 -79 18t-38 55q-5 26 1.5 60.5t15.5 66.5l16.5 57.5t6.5 33.5q-7 -2 -13 -4.5t-12 -5.5q-27 -15 -41 -44.5t-20 -64.5t-6 -70.5t1 -63.5q-4 -22 -18 -29.5t-39 -7.5q-37 0 -67.5 10.5t-41.5 44.5v20t2 21q3 32 9.5 63.5l12.5 58.5l13 57q1 5 1.5 9t0.5 6
q-8 -2 -14 -4.5t-12 -6.5q-21 -14 -34.5 -38.5t-21.5 -54.5t-11.5 -62.5t-3.5 -60.5v-30q-5 -15 -17 -23t-46 -8q-38 0 -61 27.5t-32 66.5q-4 21 -3 52.5t3 66.5q3 46 10 92.5t18.5 83.5t27 60t36.5 23q15 0 34 -3t36 -8t29.5 -14t14.5 -20q1 -6 -2 -15t-8 -19.5t-9.5 -22
t-6.5 -23.5q35 38 78 62.5t78 24.5q38 0 62 -17.5t24 -45.5q30 29 66.5 46t65.5 17q38 0 59.5 -16.5t26.5 -42.5q3 -19 -3.5 -55t-15.5 -75.5t-16 -75.5t-4 -54q2 -7 9 -7q25 0 41 24t26.5 60.5t18.5 80t18 81.5t24.5 65t38.5 32z" />
    <glyph glyph-name="n_n" unicode="nn" horiz-adv-x="954" 
d="M1000 169q0 -26 -22.5 -57.5t-56 -59.5t-72.5 -47t-72 -19q-48 0 -79 18t-38 55q-5 26 3 59t19.5 63l20.5 54t8 32q-14 -3 -29 -13q-24 -16 -40.5 -44t-26 -61t-12.5 -67.5t0 -61.5q2 -17 -13 -24t-51 -7q-8 0 -24.5 5t-33.5 20q-18 16 -29 43q-32 -31 -71 -52.5
t-73 -21.5q-48 0 -80 19t-40 58q-5 28 2 62.5t17 66.5t19 56.5t7 33.5q-17 -5 -29 -13q-24 -17 -39.5 -46.5t-24 -65t-10.5 -71.5t2 -64q2 -18 -12 -25.5t-50 -7.5q-5 0 -14 2t-19.5 7t-21.5 14.5t-20 24.5q-7 10 -12.5 22.5t-7.5 28.5q-8 37 -9 79.5t4 84.5t14.5 80.5
t22.5 68t28.5 47t32.5 17.5q15 0 34.5 -3t36.5 -8.5t30 -14.5t15 -21q1 -7 -2.5 -15t-8 -17t-9 -19.5t-5.5 -22.5q17 20 36.5 36.5t39.5 28.5t39.5 19t37.5 7q29 0 55.5 -14t33.5 -48q4 -23 -3 -60t-17 -76t-18 -74t-4 -53q0 -7 9 -7q5 0 16.5 8t24.5 21.5t23.5 32.5
t13.5 40q5 46 15 89t24 76.5t31.5 53.5t36.5 20q15 0 34 -2.5t36 -8t29.5 -14t14.5 -20.5q1 -6 -2.5 -13.5t-8.5 -16.5t-10 -19t-7 -21q35 38 78 62.5t78 24.5q14 0 28.5 -3.5t26.5 -10.5t20 -18t11 -27q4 -22 -5 -57.5t-20 -72.5l-20 -70t-6 -50q2 -7 9 -7q15 0 45 22.5
t75 81.5q3 3 7 3q11 -2 21.5 -11.5t12.5 -23.5z" />
    <glyph glyph-name="p_p" unicode="pp" horiz-adv-x="916" 
d="M980 184q-2 -19 -22 -50q-15 -23 -38.5 -48.5t-53.5 -46.5t-66 -35t-75 -14q-46 0 -72.5 19t-31.5 51q-1 7 -1.5 16t1.5 17t8.5 14t20.5 7q24 48 31.5 87t3.5 60q-2 15 -8 15q-15 1 -32.5 -18t-28.5 -40q-38 -70 -38.5 -160t18.5 -198q5 -26 15 -42.5t13 -33.5
q4 -28 -16.5 -40t-47.5 -12q-59 0 -96.5 32.5t-48.5 95.5q-8 42 -9.5 85t1.5 86q-23 -20 -52 -32t-64 -12q-47 0 -74.5 20.5t-36.5 51.5q-2 7 -3.5 16t-0.5 17.5t7 14.5t19 7q19 50 26.5 90t2.5 61q-5 16 -10 16q-15 1 -30 -18.5t-24 -40.5q-20 -50 -22 -103.5t7.5 -112.5
t27.5 -124l39 -137q8 -29 -11 -41t-46 -12q-54 0 -96.5 34.5t-59.5 97.5q-12 43 -18 92t-7.5 99.5t0.5 100.5t5 94q4 58 9.5 104t16 78.5t28 50t46.5 17.5q8 0 21 -3t26 -8.5t23.5 -14t13.5 -19.5q1 -4 -2 -11t-7 -15t-7.5 -17.5t-1.5 -19.5q24 29 52.5 47t56.5 18
q33 0 57 -11q23 -11 36 -31t21 -45q10 -33 8 -70.5t-9.5 -70.5t-16.5 -56.5t-13 -28.5q21 3 34 13t22 24.5t15.5 31.5t14.5 35q9 45 18.5 84t20.5 70t24.5 52.5t30.5 31.5q8 2 16.5 3t20.5 1q8 0 21 -2.5t26 -8t22.5 -13.5t11.5 -19q0 -4 -4.5 -11l-9.5 -15.5t-9.5 -18
t-2.5 -18.5q26 29 57 47t60 18q34 0 56 -11.5t35 -30.5q12 -20 15 -43q6 -32 1 -68.5t-14 -69t-19 -55.5t-15 -28q25 3 44 14.5t34.5 27.5t28.5 35l27 38q4 5 8.5 6.5t7.5 1.5q14 0 24.5 -12.5t13.5 -29.5z" />
    <glyph glyph-name="q_q" unicode="qq" horiz-adv-x="879" 
d="M731 -284q-3 -11 -12 -19t-22 -13t-29.5 -7.5t-32.5 -1.5q-29 3 -48 15q-16 10 -19 21.5t-7 35.5q12 25 26 69.5t26.5 92.5t22 92t12.5 70q-24 -22 -49.5 -34.5t-54.5 -10.5q-29 3 -55.5 15t-41.5 35l-45.5 -58t-52.5 -71l-6 -45q-6 -30 -9.5 -62.5t-13 -59.5t-31 -44
t-63.5 -16q-20 3 -42 9t-37 17q-23 19 -19 47q4 22 15 54l23 67.5t21.5 70.5t11.5 63q-17 -24 -41 -40.5t-51 -16.5q-63 0 -95.5 31t-43.5 94q-9 53 10.5 106t57 94.5t86.5 66.5t98 24q-2 11 -3 22t2 19.5t11 13.5t25 4q30 -2 55.5 -17.5t39.5 -32.5q15 -37 20 -86
q3 -30 3 -61t-1.5 -60.5t-4 -56l-4.5 -46.5q14 14 30.5 34t30.5 39q0 42 19 83.5t49.5 76t70.5 59t82 32.5q19 4 42 4q-2 25 5 37t35 10q26 -2 47 -15t35 -29q8 -20 14 -43.5t8 -45.5q3 -32 0 -67.5t-7 -67t-7.5 -56t-3.5 -34.5l37.5 33.5l36.5 32.5t16 13q9 5 15.5 3.5
t11 -6.5t7 -13t4.5 -16q1 -10 -14 -32t-39.5 -53l-55 -69.5t-59.5 -81.5zM673 248q7 27 11 55.5t7 52.5q-5 -2 -9.5 -5t-9.5 -6q-19 -13 -36.5 -32t-30 -41.5t-19 -46.5t-4.5 -45q3 -31 23 -32q14 -1 27 6.5t21 16.5zM215 224q4 28 6.5 54.5t3.5 52.5q-5 -2 -10 -5t-10 -7
q-19 -14 -34.5 -34.5t-26.5 -43.5t-15.5 -47.5t-0.5 -45.5q6 -29 28 -29q13 0 25 7t20 17z" />
    <glyph glyph-name="r_r" unicode="rr" horiz-adv-x="902" 
d="M948 172q-1 -22 -23.5 -53.5t-55.5 -60t-72 -49t-72 -20.5q-46 0 -76 18.5t-41 56.5q-4 23 5 48t21 50l23.5 48.5t11.5 42.5q1 19 -9.5 26t-26 8t-32 -0.5t-26.5 1.5q-17 -42 -45 -93.5t-66 -97.5t-85.5 -77t-104.5 -31q-45 0 -76 18.5t-41 56.5q-4 23 7 54.5t25.5 64
l28 62.5t13.5 49q1 19 -10 26t-26.5 8t-32 -0.5t-26.5 1.5q-9 -32 -26.5 -70.5t-38.5 -74t-42.5 -62t-39.5 -34.5q-9 -5 -19 -5q-17 0 -23 35q-1 3 1 7.5t5 8.5q40 58 68 116t30 118q-10 8 -20 25.5t-13 31.5q-5 31 -1 63t14.5 58.5t25.5 43t32 16.5q14 0 35 -4.5t41 -12.5
t35 -19.5t17 -24.5q1 -8 -4 -23t-12.5 -32l-15 -35t-11.5 -31q12 -9 38 -12.5t44 -3.5t36 7t28 7q12 0 24.5 -5.5t23.5 -13t18.5 -17t8.5 -16.5q3 -17 -1.5 -40t-12.5 -48.5t-18 -52.5l-18.5 -50.5t-13.5 -42.5t-3 -29q0 -7 9 -7q31 0 58 26t47.5 62t33 74.5t13.5 64.5
q-10 8 -20 25.5t-13 31.5q-5 31 0 57t16.5 44.5t28 29t33.5 10.5q14 0 35 -4.5t41 -12.5t35.5 -19.5t17.5 -24.5q1 -8 -5 -16.5t-15 -18.5t-18 -21.5t-13 -24.5q12 -9 38 -12.5t44 -3.5t36 7t28 7q12 0 24.5 -5.5t23.5 -13t18.5 -17t8.5 -16.5q4 -25 -5 -57t-21 -63.5
t-21.5 -59t-6.5 -42.5q0 -7 9 -7q15 0 39 14.5t47 41.5l32 44q3 3 8 3q11 -2 21.5 -9.5t12.5 -21.5z" />
    <glyph glyph-name="s_s" unicode="ss" horiz-adv-x="783" 
d="M206 128q-3 18 -24.5 41t-47 47.5t-47.5 49t-26 47.5q-5 28 4 55.5t29.5 49t51.5 34.5t70 13q33 0 62 -9t51 -24t36 -34.5t18 -40.5q2 -15 -2 -27.5t-12 -22t-18.5 -15t-20.5 -5.5q-35 0 -52 12.5t-25 27.5t-11.5 27.5t-11.5 12.5q-23 0 -21 -14q3 -15 16.5 -32.5
t32.5 -36.5t41 -38.5t41 -38.5t32.5 -36t16.5 -31q5 -30 -6 -59t-38 -51.5t-69 -36.5t-99 -14q-31 0 -59 6q-68 13 -109.5 51t-49.5 82q-4 20 1 43.5t17 43.5t32 33t46 13q14 0 36.5 -13.5t39.5 -29.5q8 -8 14.5 -17.5t8.5 -20.5q2 -12 -1 -20.5t-8.5 -14t-12.5 -9.5t-13 -7
q-7 -3 -11 -6.5t-3 -9.5q2 -11 15.5 -18t46.5 -7q24 0 33.5 14.5t5.5 35.5zM599 128q-3 18 -24.5 39l-46.5 43.5t-46.5 45.5t-25.5 46q-5 28 4.5 52.5t31 42.5t53 28t70.5 10q67 0 111 -23.5t51 -65.5q3 -15 -1 -27.5t-12 -22t-18.5 -15t-20.5 -5.5q-24 0 -39.5 12.5
t-26 27.5t-18.5 27.5t-16 12.5q-23 0 -21 -14q4 -22 31 -48.5t58.5 -53.5t58 -53t30.5 -47q5 -30 -6 -59t-38 -51.5t-69 -36.5t-99 -14q-31 0 -59 6q-55 11 -93 38t-55 61q-9 16 -12 34q-4 20 -2 42t11 40t26 29.5t44 11.5q14 0 35.5 -8.5t38.5 -24.5q8 -8 14.5 -17.5
t8.5 -20.5q4 -25 -4.5 -34.5t-20.5 -16.5q-7 -3 -11 -6.5t-3 -9.5q2 -11 15.5 -18t46.5 -7q24 0 38.5 14.5t10.5 35.5z" />
    <glyph glyph-name="t_t" unicode="tt" horiz-adv-x="570" 
d="M602 414q5 -31 -17 -53.5t-59 -26.5h-45t-43 1q-14 -57 -22.5 -108t-8.5 -83q0 -5 0.5 -10t0.5 -9q2 -12 12 -19t20 -7q6 0 18 5t26 13.5t28.5 20t27.5 24.5l10 15t13 17.5t13 14.5t9 6q10 -1 19.5 -11t11.5 -27q2 -20 -8.5 -41.5t-29.5 -43.5t-44.5 -41.5t-53 -34.5
t-55.5 -24t-52 -9q-14 0 -30.5 5.5t-32 15t-29 22t-22.5 27.5q-35 -26 -77.5 -42.5t-80.5 -16.5q-32 0 -58 14.5t-40 47.5l-5.5 14.5t-4 15t-3 19t-2.5 26.5q-1 37 0.5 94t7.5 121q-24 5 -40 14t-18 23t6.5 24t25.5 18q16 7 36 12q7 44 17.5 84.5t24.5 71t31.5 48.5t40.5 18
q22 0 45 -8t43 -20.5t34 -29t17 -34.5q1 -10 -4.5 -19.5t-14.5 -21.5t-20 -29.5t-20 -42.5q8 1 17 1t17 1t16.5 1t17.5 1q9 45 21 86.5t29.5 73t41 50t53.5 18.5q21 0 42 -7t39 -18t30.5 -26.5t15.5 -31.5q1 -8 -4.5 -20t-14.5 -28.5l-21 -39t-22 -50.5h68q10 0 19.5 -5.5
t17.5 -13.5t13 -17t6 -15zM245 140q0 5 -0.5 9.5t-0.5 9.5q0 35 1.5 81t6.5 97q-15 -1 -30.5 -1h-32.5h-23q-11 -50 -17 -97t-7 -80q1 -10 1 -17.5t1 -13.5q5 -26 22 -26q12 0 34.5 9t44.5 29z" />
    <glyph glyph-name="u_u" unicode="uu" horiz-adv-x="992" 
d="M1047 171q0 -23 -24 -54.5t-59.5 -60t-76 -48.5t-73.5 -20t-52 9.5t-28 28.5q-6 12 -9 29q-35 -29 -71.5 -49.5t-67.5 -20.5q-46 0 -72 21t-36 58q-36 -32 -80 -54t-80 -22q-33 0 -52 9.5t-28 28.5q-6 12 -9 29q-35 -29 -71.5 -49.5t-67.5 -20.5q-49 0 -75 24t-34 66
q-3 21 -4 55t2.5 73.5t12.5 80t24 73t37 53t53 20.5q18 0 31.5 -2t24.5 -5q20 -7 28 -18t10 -22q4 -22 0 -40.5t-12 -41l-18.5 -52.5t-19.5 -76q-3 -13 -5.5 -27.5l-5.5 -30.5q1 -9 9 -9q21 0 38 25t30 60q20 55 31.5 99t23 75t27 48t43.5 17q13 0 31 -2.5t34.5 -7.5
t29 -14.5t14.5 -22.5q2 -11 -1.5 -33t-9 -46.5t-11.5 -46.5t-10 -33q-6 -18 -13 -35.5l-13 -33t-10 -27.5t-4 -18q4 -8 13 -8q13 0 32 11.5t48 42.5q1 41 7.5 88t21.5 86.5t38.5 65.5t59.5 26q30 0 49 -8t30 -22q16 -21 15 -50.5t-10.5 -60t-23.5 -57.5t-24 -42
q-7 -12 -10 -14q-4 -26 3 -44t17 -18q17 0 32 17.5t25 42.5q22 51 34 97.5t23.5 82t27.5 56t47 20.5q14 0 31.5 -2.5t34.5 -7.5t29 -14.5t14 -22.5q2 -9 0.5 -24.5t-5 -33t-8 -36l-8.5 -33.5q-5 -20 -12.5 -41t-15 -40l-13.5 -34.5t-6 -22.5q4 -8 13 -8q11 0 27.5 14
t33.5 31q9 9 17.5 20l16 20.5t14 16t11.5 6.5q12 -1 26 -13t14 -26z" />
    <glyph glyph-name="v_v" unicode="vv" horiz-adv-x="1012" 
d="M1005 147q-4 0 -15 2t-26 6t-32 11t-33 17q-17 -49 -41.5 -83t-51.5 -56t-54.5 -35t-51.5 -19t-41.5 -7.5t-23.5 -1.5q-73 0 -106 40.5t-33 133.5l-31 11t-31 17q-17 -49 -43.5 -83t-57 -56t-62 -35t-58.5 -19t-47 -7.5t-26 -1.5q-40 0 -66.5 10.5t-42.5 33t-23 58
t-7 86.5q0 43 6 94.5t19.5 95.5t36 74t55.5 30q3 0 20.5 -2.5t37.5 -9.5t36 -20t16 -33q0 -15 -9 -39.5l-20 -54.5t-20 -64.5t-9 -69.5q0 -12 1.5 -26t4.5 -26t8.5 -20t13.5 -8q18 0 43 8t49.5 25t44 45t24.5 68q-32 17 -53.5 52t-21.5 74q0 24 12.5 40.5t41.5 16.5
q31 0 55 -11t39.5 -29t23.5 -39.5t8 -42.5q0 -9 -2 -17t-5 -19l18 -14q5 -4 10.5 -7.5t13.5 -7.5q3 35 11 69t21.5 61t32.5 44t46 17q7 0 27.5 -3t42.5 -15t38.5 -36t16.5 -66q0 -44 -21 -82.5t-49 -58.5q0 -11 1.5 -24t5 -23.5t9 -17.5t12.5 -7q18 0 38.5 8t39.5 25
t33.5 45t19.5 68q-16 8 -30 23.5t-24.5 34.5t-16.5 39.5t-6 38.5q0 24 12.5 40.5t41.5 16.5q33 0 56.5 -11.5t39 -30t23 -41.5t7.5 -47q0 -18 -5 -38q6 -5 11 -8.5l12 -8.5q38 -23 55.5 -36t23.5 -20t4.5 -11t-1.5 -8q0 -22 -22 -22z" />
    <glyph glyph-name="w_w" unicode="ww" horiz-adv-x="1414" 
d="M1117 97q18 0 38.5 8t39.5 25t34 45t20 68q-29 14 -49 45.5t-26 63.5q-5 29 6.5 51.5t46.5 22.5q43 0 70 -16.5t41 -42.5q9 -17 12 -36q6 -32 -3 -63q9 -8 23 -17q6 -5 14.5 -10t18.5 -9q29 -17 38 -27t10 -16q4 -19 -2.5 -27t-19.5 -8q-6 0 -21 3q-16 3 -38.5 11
t-45.5 22q-26 -73 -60.5 -114t-67.5 -60.5t-59.5 -23.5t-36.5 -4q-26 0 -42 4q-55 12 -73 56q-28 -24 -56.5 -37t-52.5 -19.5t-42 -8t-24 -1.5q-24 0 -40 3q-35 5 -54 22t-29 49q-8 21 -11.5 50.5t-3.5 62.5q-10 5 -20 11.5t-24 13.5q-16 -69 -46.5 -110t-64.5 -62
t-65.5 -27.5t-48.5 -6.5q-11 0 -18 -0.5t-15 1.5q-38 5 -59.5 19t-32.5 40q-28 -24 -56.5 -37t-52.5 -19.5t-42 -8t-24 -1.5q-55 0 -82 17t-40 57q-9 26 -13 64.5t-2 80.5t10.5 83.5t25 75t41 54t58.5 20.5q10 0 27.5 -2.5t34.5 -8.5t30.5 -17.5t16.5 -29.5q2 -12 -11 -36
t-28.5 -56t-26.5 -70.5t-3 -79.5q3 -17 13 -30t21 -13q14 0 25 4q22 7 46 34q-5 28 -0.5 67.5t19 76t39.5 62t61 25.5q22 0 35.5 -4t21 -10.5t10.5 -16t5 -20.5q3 -20 -1 -43.5t-12.5 -47t-19 -44t-19.5 -35.5q-4 -6 -7.5 -10.5t-5.5 -7.5q4 -9 15 -16.5t23 -7.5
q18 0 41.5 7t45 23.5t36.5 44t16 68.5q-29 12 -52.5 41.5t-31.5 61.5q-8 29 6.5 48t49.5 22q54 5 80.5 -14.5t37.5 -58.5q7 -31 4 -64q3 -4 7 -7t9 -6q11 -7 19 -10q6 33 16.5 64t26.5 55t38 38t51 14q12 0 29 -3t34 -9.5t30 -18.5t16 -30q3 -17 -1 -38.5t-14 -44t-24 -44.5
t-32 -40q-6 -30 0 -62q3 -17 13 -30t21 -13q14 0 25 4q22 7 46 34q-5 28 -0.5 67.5t19 76t39.5 62t61 25.5q28 0 44 -7q16 -6 20.5 -17.5t7.5 -26.5q4 -24 -2.5 -53t-18 -56t-24 -48.5t-20.5 -30.5q4 -9 15 -16.5t23 -7.5z" />
    <glyph glyph-name="z_z" unicode="&#x7a;&#x7a;" horiz-adv-x="843" 
d="M655 -47q-29 0 -55.5 5t-53.5 16t-55.5 29.5t-62.5 45.5q-9 -19 -29.5 -36.5t-45 -30.5t-51 -21t-47.5 -8h-20t-20 2q-20 3 -52.5 13.5t-68 30t-69 47.5t-55.5 66q-9 13 -12 31t4.5 34t24 28t39.5 19.5t52 7.5q16 0 18.5 -5.5t12.5 -11.5q8 3 22 21.5t29 41l28.5 42
t20.5 24.5q-35 8 -52.5 16t-30.5 8q-11 0 -21 -6t-19.5 -13.5t-19.5 -13.5t-20 -7q-11 1 -16 10t-7 20q-4 25 1 50.5t18 45.5t34 33t49 13q26 0 67 -18.5t87 -43.5q23 24 40.5 33.5t31.5 9.5q9 0 19 -6t19 -15t15.5 -20t8.5 -22q1 -6 -2 -16q-6 -15 -27 -45t-52.5 -65
t-71.5 -72t-83 -66q6 -8 21 -21.5t32 -26.5t32.5 -22.5t23.5 -9.5q21 0 42.5 12l41.5 23q-4 8 -7.5 16t-5.5 18q-3 18 5 34t24 28t39.5 19.5t52.5 7.5q16 0 18.5 -5.5t12.5 -11.5q8 3 19.5 12.5t22.5 20.5l21.5 21t16.5 15q-35 8 -52.5 16t-30.5 8q-11 0 -21 -6t-19.5 -13.5
t-19 -13.5t-20.5 -7q-11 1 -15.5 10t-6.5 20q-5 25 0 50.5t18.5 45.5t34.5 33t49 13q26 0 67 -18.5t87 -43.5q22 24 39.5 33.5t31.5 9.5q9 0 19 -6t19 -15t15.5 -20t8.5 -22q1 -6 -2 -16q-6 -15 -23.5 -35.5t-45.5 -44.5t-65 -51.5t-80 -56.5q6 -8 21 -21.5t32 -26.5
t32.5 -22.5t23.5 -9.5q14 0 28 6t28.5 14t28.5 15t27 10q18 -1 25.5 -7.5t11.5 -26.5q4 -24 -13.5 -48t-46 -42.5t-61.5 -30t-59 -11.5z" />
    <glyph glyph-name="word.and" unicode="&#x26;&#x26;&#x26;" horiz-adv-x="949" 
d="M626 332q0 30 10.5 60t29 55t44 42t54.5 21q-5 26 -11 40.5t-12 23.5q-5 8 -8.5 15.5t-3.5 14.5q-1 13 8 26.5t22.5 24.5t29.5 17.5t28 5.5q29 -3 45.5 -38t19.5 -89q3 -28 2.5 -64.5t-6 -74.5t-18 -73.5t-34 -62.5t-53.5 -42t-76 -11q-7 0 -12.5 1t-10.5 3q-22 6 -31 17
q-27 -38 -54.5 -59.5t-56.5 -19.5q-16 2 -26 9t-11 24q-2 14 1.5 43t7.5 52q1 6 1.5 10.5t1.5 9.5q-16 -4 -23 -18.5t-10 -33.5t-3 -39.5t-2 -36.5l-1 -13q0 -16 -15.5 -32t-44.5 -13q-8 0 -16 2.5t-15 12.5q-24 -29 -53.5 -44.5t-47.5 -14.5q-7 1 -11.5 2t-9.5 4
q-19 -26 -42.5 -39.5t-43.5 -11.5q-8 1 -15 3t-13 4q-21 9 -30 30.5t-7 47.5q2 32 16 67t35 65.5t47.5 52t53.5 26.5q2 1 4 1t4 1q1 4 4.5 10.5t10 12.5t16.5 9t25 2q16 -2 25 -8q9 -5 12 -12.5t2 -18.5q0 -17 -2.5 -46.5t-9.5 -57.5q-2 -8 -3 -14l-2 -12q7 5 14.5 9
t12.5 15q5 53 8 90t9.5 60t19.5 33t38 8q9 -2 16.5 -6t12.5 -21q9 9 18 21t18.5 22.5t21 17.5t25.5 6q30 -3 42.5 -18t14.5 -35q1 -15 -1.5 -32t-7 -33t-9.5 -30t-8 -24q-1 -5 -3 -11q14 11 22.5 24t19.5 27l-1 -1q0 2 2 10zM735 325q1 -3 2 -3q5 -1 11.5 12t12.5 33.5
t10 44t5 43.5q-2 -4 -3 -7q-20 -24 -28.5 -44.5t-11 -36t-0.5 -26.5t2 -16zM250 245q1 4 1 6.5t1 5.5q0 3 2.5 6.5t-0.5 5.5q-6 4 -10.5 -2t-9 -16.5t-8.5 -23.5t-8 -24q-7 -17 -10 -34t-3 -29q1 -11 12 -13q4 0 10 6.5l14 14.5zM809 227q13 13 31 14.5t22 -16.5
q1 -8 -0.5 -16t-8.5 -16q-16 -20 -32.5 -56.5t-36 -72.5t-43 -63.5t-53.5 -31.5q-30 -7 -72 -11t-89 -8l-60.5 -6l-59 -6t-52.5 -6.5t-41 -7.5q-23 -5 -39.5 -16t-29 -24.5t-21.5 -28.5t-16 -28l-19.5 -30t-22.5 -15q-12 -1 -21.5 3.5t-15.5 13t-8.5 19t-1.5 21.5
q1 26 18 61t54 70t97.5 67t150.5 52q15 3 51 5t76.5 3.5t76.5 2.5t50 4q14 4 27 16.5t26 30.5l30 37.5zM96 278q-6 -7 -13.5 -12t-15 -6.5t-14 1.5t-9.5 11q-2 8 -2 17t6 17q13 22 24.5 60t25.5 76.5t33.5 69.5t49.5 39q29 11 70 20.5l87 19.5l59 14.5l57.5 14.5l51 13.5
t39.5 12.5q21 8 36 21t25.5 28.5t17.5 31.5t12 30l15 32.5t21 17.5q25 5 39 -11t16 -39q2 -26 -10 -62.5t-44 -76.5t-87.5 -80t-141.5 -72q-10 -4 -29.5 -8t-44 -8.5t-52 -9t-52 -9t-44 -8.5t-28.5 -7q-13 -6 -24 -20t-22 -34t-24.5 -41.5z" />
    <glyph glyph-name="t_r" unicode="tr" horiz-adv-x="775" 
d="M743 162l15 19t14 19q3 3 8 3q11 -2 21.5 -9.5t12.5 -21.5q0 -35 -22.5 -67.5t-56 -58.5t-72.5 -41.5t-72 -15.5q-95 0 -117 75q-4 23 -1 49.5t10.5 53t17 50.5t18.5 42l5.5 9t4.5 8l-21.5 2.5l-25.5 3t-24 3t-17 3.5l-18 -37q-22 -48 -50 -95.5t-65.5 -85.5t-88 -62
t-117.5 -24q-35 0 -59 17.5t-41 46.5q-7 13 -10 25.5t-5 28.5q-1 14 -1 36t1.5 49.5t4.5 58.5t8 62q-23 6 -35.5 18.5t-16.5 35.5q-3 18 2 29t15.5 17t25.5 8.5t32 2.5q9 39 21.5 73.5t28 62t34 46.5t39.5 26q5 2 11.5 3t12.5 1q20 0 41.5 -7t39.5 -18.5t31 -26.5t16 -31
q1 -8 -6 -20t-19 -28.5t-26.5 -39.5t-26.5 -54q22 0 35 -4.5t20 -11t9 -13.5t3 -13q7 -35 -15 -60t-66 -25h-29q-11 -38 -17 -71.5t-8 -56.5q0 -9 -0.5 -19t1 -18.5t7 -13.5t18.5 -5q37 0 67.5 24t53 58.5t37 73t20.5 68.5l-4.5 7l-10.5 17t-11.5 21t-7.5 20q-5 31 0 57
t16.5 44.5t28 29t33.5 10.5q8 0 24 -3t34 -9t35 -14t26.5 -18.5t9.5 -22.5t-17 -25q-11 -9 -15.5 -21.5t-9.5 -28.5q6 -5 15 -8t19 -5t20.5 -2.5t18.5 -0.5q18 0 37 4l37 8q36 -13 53.5 -32.5t9.5 -61.5q-5 -24 -14.5 -50.5l-18.5 -50.5t-15 -44.5t-4 -32.5q0 -7 9 -7
q17 1 41.5 17t47.5 45z" />
    <glyph glyph-name="x_r" unicode="xr" horiz-adv-x="947" 
d="M993 172q-1 -22 -23.5 -53.5t-55.5 -60t-72 -49t-72 -20.5q-95 0 -117 75q-5 27 0 57.5t14 59.5t20.5 54t20.5 41l-21.5 2.5l-25.5 3t-24 3t-17 3.5q-15 -55 -41.5 -99.5t-55.5 -66.5q-14 -27 -36 -53t-49 -46t-58.5 -32.5t-63.5 -12.5q-37 0 -75 14t-70 59
q-12 -17 -23 -29t-24 -20t-29.5 -11.5t-39.5 -3.5q-17 0 -36 5.5t-36 18t-30 33t-18 51.5q-4 23 -4 50t7 50t22 38t41 15q19 0 32 -6.5t22 -15.5t13.5 -19t5.5 -17q3 -17 -2 -37.5t-28 -42.5q0 -6 3 -10q5 -9 15 -9q12 0 22 8q8 8 15.5 23t15.5 37q-10 21 -19.5 48
t-17.5 54.5t-14.5 53t-9.5 45.5q-12 74 116 74q36 0 47 -8.5t15 -29.5q3 -18 9.5 -42t15.5 -46q22 31 36.5 48t25 25t18.5 9.5t16 1.5t15 -0.5t15 -2.5q15 -4 27 -17.5t18 -45.5q2 -9 -4 -13q-19 -9 -33.5 -20t-28 -25.5t-26.5 -33l-29 -42.5l16 -35t16 -30t17.5 -21
t20.5 -8q16 0 30 6t31 19t28 36l1 -1l32.5 48t20 36t10.5 36t4 49q-10 8 -20 25.5t-13 31.5q-5 31 0 57t16.5 44.5t28 29t33.5 10.5q10 0 25 -2.5t30.5 -7.5t30 -12t25.5 -15q15 -11 18 -24q1 -6 -4 -14t-12 -18t-14.5 -22t-11.5 -27q6 -5 15 -8t19 -5t20.5 -2.5t18.5 -0.5
q18 0 37 4.5t37 7.5q23 -8 42.5 -19.5t22.5 -30.5q3 -17 0 -37q-4 -25 -13.5 -52t-19.5 -52.5t-16.5 -46.5t-4.5 -34q0 -7 9 -7q15 0 40 15.5t45 44.5q3 3 8.5 10l11.5 14.5t12 13t9 5.5q11 -2 21.5 -9.5t12.5 -21.5z" />
    <glyph glyph-name="t_i" unicode="ti" horiz-adv-x="556" 
d="M600 171q2 -13 -2.5 -27.5t-14.5 -30.5q-15 -23 -40 -46t-53.5 -41t-57 -29.5t-51.5 -11.5q-47 0 -68 17.5t-29 57.5q-18 -16 -39.5 -30t-44.5 -24t-46.5 -16t-45.5 -6q-31 0 -61 22t-45 55l-6 19.5t-3 20.5q-1 16 0 43t4.5 61t9.5 73t14 79q-23 7 -39.5 19t-19.5 31
q-7 36 16.5 46.5t70.5 10.5q11 35 24.5 65.5t29 53t34 35.5t39.5 13q28 0 55 -12q27 -11 48 -30t25 -41q2 -8 -0.5 -16.5t-14.5 -18.5q-17 -15 -36 -47h48q7 0 13 -4.5t11.5 -11t9 -13.5t4.5 -13q3 -20 -5 -34t-21.5 -23.5t-30 -14.5t-29.5 -6q-11 -1 -24.5 -1.5t-25.5 -1.5
q-11 -32 -19.5 -63.5t-14.5 -60.5t-9.5 -53t-3.5 -40q0 -6 2 -14q2 -9 9.5 -13t16.5 -4q27 0 75 48q4 4 9 10t10 13q0 18 2.5 43t7.5 52t13.5 53.5t22 48t32 34.5t44.5 13q42 0 61.5 -10t27.5 -22q5 -8 5 -15q2 -10 2.5 -18.5t-0.5 -16.5q-2 -14 -7 -27.5l-11.5 -32.5
t-14 -44.5t-14.5 -63.5l-4 -23l-4 -25q0 -6 8 -6q19 0 48 28.5t62 64.5q3 3 8 3q10 -1 20.5 -10t12.5 -21zM380 533q-5 31 0 57t16.5 44.5t28 29t33.5 10.5q14 0 35 -4.5t41 -13t35 -19.5t17 -24q3 -11 -5 -20l-11 -11q-11 -9 -20 -25t-17 -33l-9 -17q-8 -17 -17 -28
t-20 -12q-4 0 -8 -0.5t-8 -0.5q-30 0 -55.5 13t-35.5 54z" />
    <glyph glyph-name="i_t_t" unicode="itt" horiz-adv-x="815" 
d="M483 606q17 -21 19 -38t-4 -33.5t-17 -33.5t-21 -38q32 0 50 2t34 2q8 49 21 94t31 79.5t42.5 54.5t55.5 20q24 0 48 -9q22 -9 42 -22.5t31 -33.5q8 -14 4.5 -28t-13.5 -33l-24 -45t-27 -63q12 0 24 -3q28 -8 45 -27t21 -45q4 -23 -10.5 -34.5t-36 -17t-45 -6t-37.5 -0.5
l-16.5 -61l-15.5 -58.5t-12 -51t-6 -39.5t9 -27.5t24 -11.5t35.5 13.5t44.5 40.5q7 9 13.5 19l12 18.5t10 14.5t8.5 6q10 0 18 -9t10 -26q6 -31 -14.5 -65t-54 -62.5t-74 -47t-76.5 -18.5q-14 0 -30 5.5t-31.5 15t-29.5 22t-23 27.5q-32 -25 -72.5 -43t-76.5 -19
q-38 -2 -70.5 20t-41.5 73q-18 -20 -41 -37.5t-47 -31.5t-48 -22t-43 -8q-49 0 -69.5 19.5t-27.5 60.5q-4 21 -7 52.5t-2.5 66t5.5 69.5t16.5 62.5t31.5 45t51 17.5q42 0 64 -11q20 -10 26 -26.5t7 -38.5q1 -14 -1.5 -27t-7.5 -32.5t-12 -50.5t-14 -80q0 -6 7.5 -5.5
t10.5 1.5q17 7 40.5 29t49.5 50q-2 37 5 85.5t9 94.5q-32 0 -66.5 14.5t-64 35.5t-50.5 45t-25 44q-9 33 -4 60.5t21.5 45.5t44 25t64.5 1q5 -1 13 -3t16 -6t13.5 -9.5t5.5 -13.5q0 -1 1 -2q1 -9 -4 -26l-10 -34t-7 -31.5t5 -18.5q13 -8 27.5 -13t27.5 -5q5 37 12.5 70
t19 58t26 39.5t34.5 15.5q11 1 22.5 -1t22.5 -5q21 -6 42.5 -18.5t35.5 -28.5zM504 142q0 36 9.5 91.5t15.5 113.5l-48.5 2t-48.5 3l-10.5 -49l-10.5 -50t-8 -47t-2 -40q1 -12 2 -21.5t3 -17.5q6 -25 23 -25q11 1 33 10.5t42 29.5z" />
    <glyph glyph-name="f_r" unicode="fr" horiz-adv-x="810" 
d="M482 288q-6 -21 -19 -34.5t-31 -21t-39.5 -10t-42.5 -2.5q-23 0 -43.5 1.5t-37.5 3.5q16 -14 29 -39.5t20 -65.5q10 -57 -4.5 -111.5t-47.5 -97.5t-81 -69.5t-103 -26.5q-23 0 -42 8q-28 11 -42 36t-21 59q-2 8 -2.5 17t-1.5 18q-2 32 1 68t8 72.5t12 72.5t14 68
q-23 4 -41 12.5t-20 25.5q-3 13 3 23t18 16.5t28 11t33 7.5l5 24v-1q13 55 31.5 113.5t41.5 106t52 78t63 30.5q21 0 46 -8t45 -19q20 -12 34.5 -28t17.5 -33q2 -10 -1 -19.5t-17 -20.5q-15 -12 -30.5 -33t-30.5 -48.5t-29 -60l-27 -65.5q24 1 50.5 2l55.5 2h41
q-11 17 -14 34q-6 31 -0.5 56.5t17 44.5t28 29.5t33.5 10.5q10 0 25 -2.5t30.5 -7.5t30 -12t25.5 -15q15 -11 18 -24q1 -6 -4 -14t-12 -18t-14.5 -22t-11.5 -27q6 -5 15 -8t19 -5t20.5 -2.5t18.5 -0.5q18 0 37 4.5t37 7.5q23 -8 42.5 -19.5t22.5 -30.5q3 -17 0 -37
q-4 -25 -13.5 -52t-19.5 -52.5t-16.5 -46.5t-4.5 -34q0 -7 9 -7q15 0 40 15.5t45 44.5q3 3 8.5 10l11.5 14.5t12 13t9 5.5q11 -2 21.5 -9.5t12.5 -21.5q-1 -22 -23.5 -53.5t-55.5 -60t-72 -49t-72 -20.5q-95 0 -117 75q-5 27 0 57.5t14 59.5t20.5 54t20.5 41l-21.5 2.5
l-25.5 3t-24 3t-17 3.5zM234 128q-5 26 -14.5 42t-32.5 30q-6 -29 -17 -65.5l-21.5 -73.5t-18 -72t-7.5 -62q2 -9 9 -11.5t12 -2.5q14 0 32.5 18.5t33.5 49t23 69t1 78.5z" />
    <glyph glyph-name="s_r" unicode="sr" horiz-adv-x="751" 
d="M806 173q-1 -22 -23.5 -53.5t-55.5 -60t-72 -49t-72 -20.5q-95 0 -117 75q-5 27 0.5 62t15.5 70t22 64.5t21 45.5q-8 1 -25 5t-35 9l-33.5 9t-21.5 6q6 -14 6 -33t-5 -36.5t-16 -30t-27 -13.5q-14 -1 -37.5 0t-48.5 12q-15 7 -27.5 21.5t-17.5 31t-2.5 31t17.5 21.5
q-2 1 -6.5 8.5t-13.5 7.5q-23 0 -21 -14q4 -22 31 -48.5t58.5 -53.5t58 -53t30.5 -47q5 -30 -6 -59t-38 -51.5t-69 -36.5t-99 -14q-28 0 -51 4q-35 6 -65 19.5t-51.5 32t-35 40.5t-15.5 43q-4 20 1 42t18 40t33 29.5t46 11.5q16 0 36 -9q20 -8 38 -24t23 -38q2 -12 -1 -20.5
t-8.5 -14t-12.5 -9.5t-13 -7q-7 -3 -11 -6.5t-3 -9.5q2 -11 15.5 -18t46.5 -7q24 0 33.5 14.5t5.5 35.5q-5 25 -29 48l-50.5 47t-46.5 50.5t-17 59.5q5 38 35.5 64.5t80.5 34.5q11 2 35.5 2.5t52.5 -7t55 -27t43 -57.5q-17 28 -34.5 39t-28.5 5q-18 15 -22 39t-0.5 49
t9.5 46.5t7 29.5q6 13 18 18t25 5.5t25.5 -1.5t19.5 -3t18 -4.5t23.5 -8t24.5 -9.5l22 -9q20 -8 35.5 -19.5t17.5 -24.5q1 -7 -7 -18.5t-20.5 -24t-26 -23.5l-22.5 -18q25 -5 55.5 -9t51.5 -4q13 0 33.5 6t40.5 6q8 0 19 -4.5t21 -11.5t17 -16t9 -18q3 -14 0 -33
q-3 -27 -14 -60l-22 -64t-18.5 -56.5t-5.5 -38.5q2 -7 10 -7q7 0 18.5 4.5t26 16t33 31t40.5 48.5q3 3 8 3q11 -2 21.5 -9.5t12.5 -21.5z" />
    <glyph glyph-name="d_r" unicode="dr" horiz-adv-x="933" 
d="M820 100q7 0 18.5 4.5t26 16t33 31t40.5 48.5q3 3 8 3q11 -2 21.5 -9.5t12.5 -21.5q0 -22 -22.5 -53t-56.5 -60t-72.5 -49.5t-71.5 -20.5q-95 0 -117 75q-5 27 0 57.5t14 59.5t20.5 54t20.5 41q-28 0 -57 2t-56 10q-6 -18 -17 -41.5t-25.5 -43.5t-32.5 -34t-38 -14
q-26 0 -50 15q-13 -39 -34 -73t-53 -59t-75.5 -39.5t-101.5 -14.5q-28 0 -55.5 9t-50 25.5t-38 40.5t-20.5 54q-16 90 -2 149t46.5 93.5t77 48.5t89.5 14q17 0 29 -7.5t14 -21.5q2 -15 -2 -22.5t-16 -12.5q-34 -13 -54.5 -45t-28 -70t-3 -74t20.5 -57q12 -12 22 -12
q13 0 25 6q17 9 31 31t23 53.5t13.5 70.5t2.5 83q-21 38 -39 78t-31.5 77.5t-21.5 70.5t-10 56q-4 22 6 38t26.5 27t37 16.5t37.5 7.5q14 0 29 -9.5t29 -26.5q31 -39 51 -89.5t31.5 -104.5t14.5 -108t-1 -102q11 -10 25 -10q17 0 29.5 20.5t20.5 47.5q-18 23 -25 55
q-5 31 0 57t16.5 44.5t28 29t33.5 10.5q10 0 25 -2.5t30.5 -7.5t30 -12t25.5 -15q15 -11 18 -24q1 -9 -6 -17l-16 -17.5t-16 -21t-4 -25.5q6 -5 15 -8t19 -5t20.5 -2.5t18.5 -0.5q11 0 27 6.5t34 6.5q25 0 41 -9t25 -22t11.5 -28.5t0.5 -28.5q-4 -25 -13.5 -52t-19.5 -52.5
t-16.5 -46.5t-4.5 -34q0 -7 9 -7z" />
    <glyph glyph-name="O_r" unicode="Or" horiz-adv-x="1299" 
d="M1345 172q-1 -22 -23.5 -53.5t-55.5 -60t-72 -49t-72 -20.5q-95 0 -117 75q-4 21 3.5 44.5t19 46.5l22.5 45.5t14 41.5q6 25 -4 34t-26 11t-34 0t-28 1q3 -54 -23 -93.5t-66 -62t-87 -25t-84 18.5q-39 -48 -85 -81.5t-96 -55t-100.5 -31t-98.5 -9.5q-58 0 -115 19.5
t-102 56.5t-73 91t-28 122q-2 62 15.5 121t48.5 110.5t72.5 94.5t87 73.5t92.5 47.5t90 17q33 0 50.5 -10t19.5 -24q3 -17 -13 -33q-8 -8 -20 -13t-28 -7q-48 -6 -92 -46t-75.5 -99.5t-45.5 -131t-2 -140.5q6 -36 21.5 -62t36.5 -42t45.5 -23.5t49.5 -7.5q32 0 61 13
t54.5 34.5t46.5 49.5t36 57q-48 53 -79 120.5t-43 134.5q-7 41 -11.5 86.5t4 83.5t34.5 63t79 25q36 0 75 -13t73.5 -44t61.5 -82t41 -126q10 -58 5 -113.5t-28 -120.5q28 -23 49 -20.5t34.5 19.5t20 44t5.5 53q-10 8 -20 25.5t-13 31.5q-5 31 0 57t16.5 44.5t28 29
t33.5 10.5q14 0 35 -4.5t41 -12.5t35.5 -19.5t17.5 -24.5q1 -8 -5 -16.5t-15 -18.5t-18 -21.5t-13 -24.5q12 -9 38 -12.5t44 -3.5t36 7t28 7q12 0 24.5 -5.5t23.5 -13t18.5 -17t8.5 -16.5q4 -25 -5 -57t-21 -63.5t-21.5 -59t-6.5 -42.5q0 -7 9 -7q15 0 39 14.5t47 41.5
l32 44q3 3 8 3q11 -2 21.5 -9.5t12.5 -21.5zM617 367q3 7 5.5 21.5t3 33t-0.5 39t-4 39.5q-5 27 -15.5 47t-30.5 20q-10 0 -10.5 -20t4.5 -47q4 -20 9.5 -42t12.5 -41t13.5 -33t12.5 -17z" />
    <glyph glyph-name="o_o" unicode="oo" horiz-adv-x="920" 
d="M634 93q19 1 32.5 14.5t22 35t12 48t0.5 52.5q-12 12 -21.5 36t-12.5 41v1q0 1 0.5 1t0.5 2q-18 -13 -34 -32t-27.5 -41.5t-17 -46t-1.5 -45.5q2 -9 5 -20.5t8 -21.5t13 -17t20 -7zM810 112q-16 -25 -39 -48t-50 -40t-57 -27.5t-59 -10.5q-30 0 -59 9.5t-53 27t-40.5 41
t-21.5 51.5q-9 51 6 104.5t46 97t74.5 71.5t91.5 28q15 0 30.5 -4t26.5 -12q15 3 29 3q43 0 69 -24t37 -58t9.5 -71t-12.5 -64q9 -9 19 -9q17 0 33 15t29 29q6 7 11 11.5t9 4.5q16 -2 24.5 -9.5t10.5 -18.5q3 -18 -6.5 -37.5t-26 -36t-38 -27t-43.5 -10.5q-26 0 -50 14z
M175 93q19 1 32.5 14.5t22 35t12 48t0.5 52.5q-12 12 -21.5 36t-12.5 41v1q0 1 0.5 1t0.5 2q-18 -13 -34 -32t-27.5 -41.5t-17 -46t-1.5 -45.5q2 -9 5 -20.5t8 -21.5t13 -17t20 -7zM351 112q-16 -25 -39 -48t-50 -40t-57 -27.5t-59 -10.5q-30 0 -59 9.5t-53 27t-40.5 41
t-21.5 51.5q-9 51 6 104.5t46 97t74.5 71.5t91.5 28q15 0 30.5 -4t26.5 -12q15 3 29 3q43 0 69 -24t37 -58t9.5 -71t-12.5 -64q9 -9 19 -9q17 0 33 15t29 29q6 7 11 11.5t9 4.5q16 -2 24.5 -9.5t10.5 -18.5q3 -18 -6.5 -37.5t-26 -36t-38 -27t-43.5 -10.5q-26 0 -50 14z" />
    <glyph glyph-name="C_r" unicode="Cr" horiz-adv-x="1137" 
d="M1183 172q-1 -22 -23.5 -53.5t-55.5 -60t-72 -49t-72 -20.5q-95 0 -117 75q-4 21 3.5 44.5t19 46.5l22.5 45.5t14 41.5q6 25 -4 34t-26 11t-34 0t-28 1q-26 -66 -59.5 -126.5t-82.5 -107t-117 -74t-164 -27.5q-89 0 -154.5 20.5t-111.5 57.5t-73 89.5t-38 117.5
q-10 57 1.5 116t40 114t72.5 103.5t100 84t121.5 56.5t136.5 21q37 0 69.5 -8.5t58.5 -27t44 -48.5t26 -73q6 -36 -3 -65.5t-25.5 -50.5t-37 -32t-37.5 -11q-20 0 -47 10t-50 26q-24 16 -39 35.5t-9 36.5q3 9 16.5 17.5l27.5 18t24 22.5t7 33q-2 11 -12 14t-24 3
q-44 0 -79.5 -20t-62.5 -53.5t-45.5 -76.5t-28.5 -89t-12 -92t5 -85q5 -30 20.5 -57t39 -47.5t54.5 -32.5t68 -12q41 0 86.5 15t87 46.5t73.5 80.5t47 117q-10 8 -20 25.5t-13 31.5q-5 31 0 57t16.5 44.5t28 29t33.5 10.5q14 0 35 -4.5t41 -12.5t35.5 -19.5t17.5 -24.5
q1 -8 -5 -16.5t-15 -18.5t-18 -21.5t-13 -24.5q12 -9 38 -12.5t44 -3.5t36 7t28 7q12 0 24.5 -5.5t23.5 -13t18.5 -17t8.5 -16.5q4 -25 -5 -57t-21 -63.5t-21.5 -59t-6.5 -42.5q0 -7 9 -7q15 0 39 14.5t47 41.5l32 44q3 3 8 3q11 -2 21.5 -9.5t12.5 -21.5z" />
    <glyph glyph-name="ffi" unicode="ffi" horiz-adv-x="1004" 
d="M823 293q44 13 66.5 26.5t29 26.5t0 24.5t-20 20.5t-31 14t-32.5 5q-18 0 -45.5 -7.5l-59 -16.5l-63.5 -17.5t-58 -10.5q11 35 23.5 69t26 63.5t27.5 52t28 34.5q13 12 15 22t-1 21q-3 15 -14 28.5t-26 25.5q-24 18 -53.5 29t-56.5 11q-32 0 -58.5 -29t-46.5 -76
q-22 -48 -36 -106.5t-24 -116.5l-7 -47q-20 -4 -39 -9t-33 -12t-21.5 -16.5t-4.5 -22.5q5 -20 28.5 -29.5t57.5 -12.5q-6 -32 -11.5 -68t-9.5 -73t-4.5 -73t3.5 -69q2 -9 3 -18.5t3 -17.5q6 -23 15 -42t22 -32t33 -21q19 -8 42 -8q55 0 101.5 26.5t77 69.5t42 97.5
t-1.5 111.5q-12 53 -40.5 88.5t-55.5 52.5q32 0 63.5 3.5t59.5 8.5t50.5 10.5t36.5 9.5zM1045 171q5 -26 -17.5 -58t-57 -60.5t-74.5 -48t-70 -19.5q-49 0 -70 19.5t-28 60.5q-4 21 -6 54.5t0 71.5t9 76.5t20.5 69.5t34.5 50.5t52 19.5q1 0 0.5 0.5l-1 1t0.5 1t6 0.5
q28 0 46.5 -5.5t29 -13t14.5 -15.5t5 -13q3 -18 2 -31.5t-5.5 -28t-11.5 -32.5t-15 -44q-6 -21 -12 -49t-11 -66q0 -6 8 -6q19 0 48 28.5t62 64.5q3 3 8 3q10 -1 20.5 -10t12.5 -21zM895 456q-15 0 -29 2.5t-26.5 10t-22 20.5t-14.5 34q-5 31 0.5 57t17 44.5t27.5 29
t33 10.5q14 0 35 -4.5t41 -13t35.5 -19.5t17.5 -24q3 -16 -16 -31q-12 -9 -21.5 -27.5l-19 -38t-20 -34t-22.5 -15.5q-4 0 -8 -0.5t-8 -0.5zM831 290q5 0 -37 -9.5t-117 -22t-175.5 -24.5t-212.5 -16q12 -11 23.5 -25.5t22.5 -32.5q10 -17 19 -36.5t16 -42.5
q17 -57 9.5 -111.5t-35 -97.5t-72 -69.5t-99.5 -26.5q-31 0 -55 13q-23 13 -39 36t-25 54q-4 11 -6 22l-4 23q-10 60 -7.5 127.5t7.5 127.5q-4 -1 -7.5 -1h-5.5q-15 -1 -26.5 4.5t-21 14.5t-16 20.5t-10.5 21.5q-13 40 11.5 57.5t90.5 29.5q7 38 17 86t23.5 97.5t31 97
t39 84.5t47 59.5t54.5 22.5q33 0 68.5 -16t56.5 -39q15 -17 18 -33q2 -10 -1 -19.5t-17 -20.5q-20 -16 -42.5 -51t-43.5 -78.5t-39 -91.5t-30 -91q39 -1 97 4t122.5 13t129 18l118.5 19l91 15t46 7zM222 201q-3 -31 -6 -72l-6 -83.5l-6 -82.5t-5 -69q0 -6 3 -10t7 -6t8 -3
t6 -1q14 0 29.5 18.5t27 49t14.5 69t-9 78.5q-5 13 -10.5 29.5t-13 32.5t-17.5 29.5t-22 20.5zM626 88q0 5 -3.5 22t-11 36.5t-19.5 37.5t-28 26q-5 -28 -10.5 -64.5l-11.5 -74.5t-12.5 -73.5l-11.5 -61.5q-1 -1 -1 -3q2 -10 10 -12.5t14 -2.5q13 0 30 14.5t30.5 38t21 54
t3.5 63.5z" />
    <glyph glyph-name="f_f_j" unicode="ffj" horiz-adv-x="1004" 
d="M912 68q-1 -15 -1.5 -29.5t-0.5 -28.5q0 -47 2.5 -90t2.5 -88v-23t-1 -24q-3 -61 -28.5 -102t-65.5 -66.5t-91 -36.5t-105 -11q-39 0 -84 11t-87 35t-76 62.5t-50 93.5q-6 21 -6 38q0 32 19.5 49t51.5 19q-15 30 -18 66q-9 -35 -27.5 -65.5t-44.5 -53t-58.5 -35.5
t-70.5 -13q-41 0 -67.5 20.5t-42 55.5t-21.5 81.5t-6 99.5q0 38 2.5 75t5.5 71q-6 -2 -10.5 -1.5t-7.5 0.5q-19 0 -33 10.5t-23 24.5t-13.5 28.5t-4.5 22.5q0 26 26 39t81 23q7 38 17 86t23.5 97.5t31 97t39 84.5t47 59.5t54.5 22.5q23 0 48 -8.5t46 -22t35 -30.5t14 -35
q0 -8 -3.5 -15.5t-14.5 -16.5q-20 -16 -42.5 -51t-43.5 -78.5t-39 -91.5t-30 -91q5 0 10 -0.5t10 -0.5q29 0 66 3t79 8l7 43q9 57 24 115.5t35 105.5t46.5 77t59.5 30q23 0 50 -9t49.5 -23.5t37.5 -34t15 -40.5q0 -15 -16 -30q-13 -12 -26.5 -33t-26.5 -48.5t-25.5 -59.5
t-22.5 -65q45 7 86 9.5t70 16.5q22 11 53.5 10.5t60.5 -10t49 -27.5t20 -42q0 -13 -5.5 -42.5l-12.5 -66t-13.5 -76.5t-8.5 -75zM709 120q3 -15 5 -29.5t2 -29.5q0 -48 -17 -92.5t-47.5 -78.5t-71.5 -54.5t-89 -20.5q-1 -17 -9.5 -38t-15.5 -33q8 -13 21 -27.5t31.5 -27
t42.5 -21t54 -8.5q38 0 62 20.5t37.5 55.5t18 80.5t4.5 95.5q0 67 -3.5 136t-3.5 123q0 28 1.5 52t3.5 46q-44 -9 -107 -18q24 -19 47 -52.5t34 -78.5zM895 456q-16 0 -33 3.5t-30.5 14t-22 29t-8.5 47.5q0 25 6.5 46t18 36t26 23.5t29.5 8.5t37 -5t42.5 -14t35 -21
t14.5 -26t-16 -26q-12 -9 -21.5 -27.5l-19 -38t-20 -34t-22.5 -15.5q-4 0 -8 -0.5t-8 -0.5zM222 201q-3 -31 -6 -72l-6 -83.5l-6 -82.5t-5 -69q0 -12 10 -16t14 -4q11 0 23.5 12t23 32.5t17.5 48t7 58.5q0 15 -2 31.5t-7 32.5q-4 13 -10 29.5t-13.5 32.5t-17.5 29.5
t-22 20.5zM626 88q0 5 -3.5 22t-11 36.5t-19.5 37.5t-28 26q-5 -28 -10.5 -64.5l-11.5 -74.5t-12.5 -73.5l-11.5 -61.5q-1 -1 -1 -3q2 -10 10 -12.5t14 -2.5q12 0 27 12t28 32.5t22 47.5t9 57v10.5t-1 10.5zM371 76q3 38 8.5 75.5t11.5 71.5q-25 -2 -50.5 -3l-51.5 -2
q22 -20 44.5 -54.5t36.5 -82.5q0 -3 1 -5z" />
    <glyph glyph-name="amper_alt" unicode="&#x26;&#x26;" horiz-adv-x="1056" 
d="M468 160q-11 -13 -27 -11t-21 23q-2 9 -0.5 21.5t4.5 19.5q10 24 18 53.5t18.5 54t26.5 40.5t43 14q26 2 64 -0.5t80 -6.5l54 -6t51.5 -5t46 -3t36.5 1q20 1 34.5 10t24.5 22.5t17 29l13 29.5q5 8 8.5 16t7 14.5t8 10t11.5 2.5q11 -1 19.5 -8t14.5 -17.5t9 -23.5t3 -26
q0 -29 -13.5 -67.5t-45 -73t-84 -58t-131.5 -23.5q-7 0 -20.5 0.5t-29 2t-31 4t-27.5 6.5q37 -47 34 -94t-41.5 -84.5t-110.5 -60.5t-174 -23q-31 0 -71.5 3t-84 11t-86 21.5t-78 34.5t-60 50t-31.5 68q-8 43 3.5 77t38 60.5t65.5 45.5t86 33l-25.5 23.5t-25.5 26
t-20.5 27.5t-11.5 29q-7 38 9 83.5t57.5 84.5t110 65t167.5 26q14 -1 27 -3l27 -4q33 -6 62.5 -17.5t52 -26.5t37.5 -33t18 -37q5 -29 -5 -54.5t-31 -45.5t-52.5 -31.5t-69.5 -11.5q-35 0 -62 13.5t-31 31.5q-3 12 10 22t29 19.5t29 19.5t11 22q-3 17 -22 26t-39 9
q-30 0 -55.5 -12.5t-43 -32t-26 -43.5t-4.5 -47q5 -30 24.5 -48.5t61.5 -34.5q16 -5 29.5 -7.5t23.5 -5t16 -7.5t8 -15q5 -25 -14.5 -46t-57.5 -21q-21 0 -43 9q-67 -16 -98 -56t-22 -88q3 -17 14 -32.5t30 -28.5t44.5 -20.5t57.5 -7.5q73 0 117.5 9t68 27.5t29.5 47.5t1 69
q-6 1 -11.5 1h-8.5q-12 0 -21 -6t-16.5 -15t-14 -19.5t-13.5 -20.5z" />
    <glyph glyph-name="smiley" unicode="&#x3a;&#x29;" horiz-adv-x="563" 
d="M129 229q-1 7 -5.5 10t-9.5 3q-13 -2 -13 -13q0 -6 4 -11t9 -5q7 0 11 5.5t4 10.5zM406 232q-2 13 -18 13q-6 -2 -10.5 -6.5t-4.5 -11.5q1 -7 5.5 -10.5t9.5 -3.5q8 0 13 6t5 13zM495 370q32 -40 52 -87.5t20 -96.5q0 -50 -21 -89.5t-57.5 -67.5t-87.5 -43.5t-111 -16.5
h-26q-61 1 -112 16.5t-87.5 43.5t-57 67.5t-20.5 89.5q0 32 8.5 63.5t23.5 61t35 55.5t43 47q-7 20 -7 51q0 17 4 35t11 18q6 0 11.5 -6t11.5 -14l12 -16t12 -11l16 -9q29 11 60 15.5t72 4.5q24 0 49 -3t46 -7.5t34 -10t13 -10.5q14 10 34 17.5t38 7.5q9 0 9 -8
q0 -11 -4.5 -24t-9.5 -25.5l-9.5 -24t-4.5 -19.5v-4zM240 107q-2 1 -1 13t-1 19q8 1 13 9t5 16t-6.5 10t-15.5 2q-11 0 -17 -1t-8 -9q0 -9 6.5 -17.5t16.5 -9.5v-17t1 -15q-3 0 -3 -2v-1q-3 -1 -5 -3t-6 -4q-11 -3 -24 -0.5t-24 13.5q1 0 -2 3l-2 2q-3 -2 -2 -7
q6 -20 23 -26.5t34 -0.5q9 5 15 13q8 -14 23 -17.5t30 1.5q8 2 13 10.5t4 13.5q0 4 -3 5.5t-4 -0.5l-2 -6q-3 -1 -5.5 -3.5t-5.5 -3.5q-25 -8 -48 10z" />
    <glyph glyph-name=".notdef" horiz-adv-x="528" 
d="M142 212q-1 5 -4.5 7.5t-7.5 2.5q-10 -2 -10 -10q0 -13 10 -13q5 0 8.5 4.5t3.5 8.5zM245 159q0 6 -5 8t-13 2t-13 -1t-7 -8q0 -7 5.5 -13.5t13.5 -7.5q8 0 13.5 6.5t5.5 13.5zM367 214q-2 11 -15 11q-12 -5 -12 -15q1 -6 4.5 -8.5t7.5 -2.5q7 0 11 5t4 10zM439 326
q26 -32 42 -70.5t16 -78.5q0 -41 -16.5 -73t-46.5 -54.5t-71.5 -35t-90.5 -13.5h-20q-50 1 -91 13.5t-71 35t-46.5 54.5t-16.5 73q0 52 26 100.5t63 83.5q-6 16 -6 41q0 14 3.5 28.5t8.5 14.5t10 -5t10 -11.5t9.5 -13t9.5 -8.5l13 -7q23 9 48.5 12.5t58.5 3.5
q19 0 39.5 -2.5t37 -6t27.5 -8t11 -8.5q11 8 27 14t31 6q8 0 8 -6q0 -9 -3.5 -19.5t-8 -21t-8 -19.5t-3.5 -16v-3z" />
    <glyph glyph-name="NULL" horiz-adv-x="0" 
 />
    <glyph glyph-name="NULL" horiz-adv-x="0" 
 />
    <glyph glyph-name="nonmarkingreturn" unicode="&#xd;" horiz-adv-x="269" 
 />
    <glyph glyph-name="space" unicode=" " horiz-adv-x="269" 
 />
    <glyph glyph-name="ampersand" unicode="&#x26;" horiz-adv-x="798" 
d="M752 -11q32 -5 48.5 -21.5t20.5 -38.5q3 -18 -1.5 -37.5t-16 -35t-28.5 -25.5t-38 -10q-11 0 -20.5 1.5t-20.5 3.5q-25 6 -49 21t-51.5 38t-60 54.5l-73.5 72.5q-38 -14 -90 -23.5t-106 -9.5q-41 0 -79 7t-68.5 24.5t-52.5 46.5t-29 73q-6 31 2.5 58.5t27 53t45 49.5
t56.5 48q-12 15 -18.5 27t-10.5 23.5t-7 23.5t-8 27q-1 8 -0.5 17.5t1.5 19.5q4 25 16 50.5t33 46.5t53 34t76 13q15 0 32 -7q18 6 37 9.5t37 3.5q59 0 94 -30.5t43 -75.5q3 -20 -10 -41.5t-40 -46.5t-67 -53l-90 -61q15 -16 34 -34.5l39.5 -37l41 -37t40.5 -33.5
q20 24 34 55.5t14 63.5l-31 -3q-20 -3 -42 -3q-17 0 -29 5t-14 21q11 34 35 53.5t58.5 29.5t77.5 12.5t92 2.5q22 0 43 -0.5t39 -4t32 -11.5t21 -24q-17 -42 -36 -60t-49 -23q-10 -2 -22 -2.5t-23 -0.5h-20t-22 2q-8 -47 -25 -100.5t-46 -91.5q31 -29 55 -48.5t44 -32
t37 -19t35 -9.5zM323 93q12 0 27 2t29 6l-65 66t-61 72q-23 -21 -33.5 -48t-5.5 -53q4 -20 34.5 -32.5t74.5 -12.5zM273 441q1 -5 3.5 -15t7.5 -18q11 11 24 21t26 18l15 10q19 13 31 25.5t10 26.5q-2 11 -8.5 18t-15.5 11.5t-19 8t-17 8.5q-6 -2 -10.5 -5.5l-9.5 -7.5
q-23 -19 -32.5 -48t-4.5 -53z" />
    <glyph glyph-name="fl" unicode="&#xfb02;" horiz-adv-x="643" 
d="M690 167q5 -30 -15.5 -62.5t-55 -60t-77.5 -45t-82 -17.5q-18 0 -36.5 5t-34 15.5t-26.5 27t-15 39.5q-5 28 -2 76.5t12 111.5l-30.5 -10t-32.5 -9q-8 -2 -16.5 -3.5t-16.5 -3.5q17 -14 32.5 -40t23.5 -71q10 -57 -4.5 -111.5t-47.5 -97.5t-81 -69.5t-103 -26.5
q-23 0 -42 8q-28 11 -42 36t-21 59q-2 8 -2.5 17.5t-1.5 18.5q-2 33 0.5 69t8.5 73t13.5 73l14.5 68q-33 3 -56 12.5t-27 29.5q-2 13 6 22.5t22 16.5t33.5 12t39.5 9l9 47q13 57 31 115t41 105.5t51 77.5t61 30q28 0 56.5 -11.5t51.5 -28.5q14 -12 24.5 -25.5t12.5 -28.5
q2 -11 -0.5 -21t-16.5 -22q-15 -12 -30 -34.5t-30 -52t-29.5 -63.5t-27.5 -69q12 2 23.5 3.5t22.5 3.5q33 6 59.5 13t46.5 18q10 48 24 97t32 88t40 64t50 25q23 0 46 -9q34 -14 60.5 -38t31.5 -52q4 -23 -6.5 -54.5t-28 -62.5t-38 -57.5t-36.5 -39.5q-10 -32 -18.5 -64.5
t-14.5 -62t-9.5 -54.5t-3.5 -43q0 -10 2 -20q3 -20 20 -20q13 0 31.5 16t36.5 35l33 35t22 16q9 -1 19.5 -8t12.5 -20zM234 128q0 10 -5 23.5t-12 23.5t-15.5 14.5t-15.5 -1.5h-2q-5 -25 -16.5 -61l-23 -73.5t-18.5 -71.5t-3 -55q2 -9 9 -11.5t12 -2.5q14 0 32.5 18.5
t33.5 49t23 69t1 78.5z" />
    <glyph glyph-name="ring" unicode="&#x2da;" horiz-adv-x="360" 
d="M128 663q8 19 27.5 28.5t39.5 9.5q37 0 69.5 -24.5t43.5 -68.5q8 -31 0.5 -57t-23.5 -45.5t-37.5 -32t-41.5 -16.5q-22 -4 -43.5 -0.5t-39.5 14.5t-31 29t-19 42q-11 45 5 77t50 44zM173 594q-10 -5 -13 -21.5t4 -27.5q7 -12 24 -9q3 1 6.5 1.5t7.5 2.5q18 9 20 27
q0 6 -5 12t-12.5 10.5t-16 6t-15.5 -1.5z" />
    <glyph glyph-name="breve" unicode="&#x2d8;" horiz-adv-x="441" 
d="M541 618q4 -27 -7.5 -53t-34 -46.5t-53.5 -33.5t-65 -13q-41 0 -69.5 9.5t-47.5 25.5t-29 36.5t-14 41.5q-5 29 6.5 51t47.5 22q21 0 29 -9.5t10 -21.5q3 -16 4.5 -28.5t7 -21.5t17 -14t35.5 -5q21 0 33.5 13t25.5 36q5 8 9.5 16t9.5 18q10 15 29 15q17 0 35 -11t21 -27z
" />
    <glyph glyph-name="acute" unicode="&#xb4;" horiz-adv-x="379" 
d="M383 642q6 -30 -10.5 -56.5t-45 -47t-63.5 -34.5t-67 -19l-15 -3t-20.5 -2.5t-19 2.5t-10.5 12q-3 16 9.5 32.5t30 32.5l35.5 32.5t27 33.5l10 20.5t9 15.5q7 8 19 12.5t39 4.5q10 0 22 -2.5t22.5 -7.5t18.5 -11.5t9 -14.5z" />
    <glyph glyph-name="grave" unicode="`" horiz-adv-x="373" 
d="M291 484q3 -14 -18 -14q-20 0 -47.5 5t-57.5 15t-60 24t-55 32t-42.5 39.5t-21.5 46.5q-2 11 7.5 18.5t23.5 12.5q24 7 41.5 6t31.5 -8.5t26 -19.5t24 -26q15 -17 38.5 -33.5l47 -32.5t41.5 -32.5t21 -32.5z" />
    <glyph glyph-name="tilde" unicode="&#x2dc;" horiz-adv-x="529" 
d="M270 640q13 -2 28.5 -6l32.5 -8q8 -2 16 -3.5t15 -3.5q15 -3 26 -3q25 0 33.5 3.5t10.5 8t2 8t8 3.5q17 0 31 -9.5t23 -23t13.5 -29.5t2.5 -29q-5 -26 -25 -41.5t-52 -19.5q-20 -3 -38 2t-40.5 12.5t-52 16t-72.5 13.5q-14 2 -26.5 2t-23.5 -1q-6 0 -11.5 -0.5
t-10.5 -0.5q-15 0 -20.5 13.5t-3.5 29.5q2 15 9.5 29.5t23 24.5t40 14t61.5 -2z" />
    <glyph glyph-name="circumflex" unicode="&#x2c6;" horiz-adv-x="406" 
d="M338 533q2 -8 4.5 -15.5t5.5 -15.5q3 -10 -2 -16.5t-14.5 -10t-21.5 -5t-22 -1.5q-22 0 -34 13.5t-21.5 31l-19.5 35t-28 25.5q-8 -3 -20.5 -19.5l-27.5 -35t-32 -33t-32 -12.5q-17 0 -33 11.5t-14 31.5q3 23 18.5 49.5t40 50t55 41t62.5 21.5q35 4 64 -21
q22 -18 39.5 -50t32.5 -75z" />
    <glyph glyph-name="dieresis" unicode="&#xa8;" horiz-adv-x="481" 
d="M346 645q28 0 55 -12.5t43 -30.5q11 -12 14.5 -25.5t0.5 -27t-11 -26.5t-20 -22q-14 -11 -30.5 -15t-33 -1t-32 13.5t-25.5 27.5q-12 19 -16 40t0 38.5t17.5 29t37.5 11.5zM85 558q-6 34 5.5 57t49.5 23q18 0 35 -5.5t31 -15t23.5 -21.5t11.5 -25q4 -21 -3.5 -43.5
t-23.5 -36t-40.5 -13.5t-55.5 23q-26 19 -33 57z" />
    <glyph glyph-name="dotaccent" unicode="&#x2d9;" horiz-adv-x="291" 
d="M72 470q-20 0 -38 5q-26 8 -42.5 26.5t-21.5 45.5q-8 42 3 65t51 23q18 0 36.5 -6t33.5 -16t25.5 -22t12.5 -25q2 -11 0 -27.5t-8.5 -31.5t-19.5 -26t-32 -11z" />
    <glyph glyph-name="hungarumlaut" unicode="&#x2dd;" horiz-adv-x="559" 
d="M351 678q10 0 22 -2.5t22.5 -7.5t18.5 -11.5t9 -14.5q6 -35 -16.5 -64.5t-59 -51t-78.5 -34t-73 -12.5q-21 0 -24 14q-2 9 1.5 18t9.5 17q6 10 16 19.5t21 18.5l21 17.5t16 15.5q16 20 22 34.5t12 24.5t18.5 14.5t41.5 4.5zM203 642q5 -36 -17.5 -66t-58 -51.5t-77 -33
t-73.5 -11.5q-21 0 -24 14q-3 16 9.5 32.5t30 32.5l35 32.5t26.5 33.5q7 14 11 24t11 16.5t19 9.5t36 3q10 0 22 -2.5t22.5 -7.5t18.5 -11.5t9 -14.5z" />
    <glyph glyph-name="caron" unicode="&#x2c7;" horiz-adv-x="424" 
d="M424 629q-21 -22 -42 -50t-44.5 -52.5t-50.5 -41.5t-61 -17q-9 0 -19.5 2.5t-18.5 8.5q-23 13 -43.5 37t-35.5 48.5t-22.5 44t-5.5 24.5q8 17 25.5 32t32.5 15q22 0 34.5 -9.5t19 -23t10 -29t7.5 -28t11.5 -19.5t22.5 -3q3 1 12.5 18t24.5 37t36 36.5t48 16.5
q10 0 22 -5.5t22 -13t15 -15.5t0 -13z" />
    <glyph glyph-name="period" unicode="." horiz-adv-x="302" 
d="M160 -13q-20 0 -39 7q-27 10 -44 30t-21 44q-5 29 18 51.5t65 22.5q40 0 65.5 -14.5t30.5 -37.5q3 -18 -1.5 -36t-14.5 -33t-25 -24.5t-34 -9.5z" />
    <glyph glyph-name="comma" unicode="," horiz-adv-x="310" 
d="M89 13q-1 5 -7 9.5l-13.5 10.5t-14.5 13.5t-9 17.5q-6 34 15 55t63 21q40 0 71 -25t37 -62q5 -30 -11 -60t-40.5 -54.5t-49.5 -40t-38 -15.5q-23 0 -39.5 14t-19.5 30q0 6 4 9q28 18 41 42t11 35z" />
    <glyph glyph-name="ogonek" unicode="&#x2db;" horiz-adv-x="291" 
d="M36 -137q-2 13 7.5 43.5t31 62.5t55.5 58.5t81 31.5q10 0 14 -9t6 -20q2 -5 -3 -10q-37 -39 -55 -73t-16 -48q2 -9 11.5 -11.5t21 -4t21 -5t11.5 -15.5q3 -15 -5.5 -26.5t-22.5 -19t-32 -11t-35 -3.5q-37 0 -62 18t-29 42z" />
    <glyph glyph-name="cedilla" unicode="&#xb8;" horiz-adv-x="379" 
d="M168 -95q0 1 -1 1q-2 0 -2 1q-5 3 -6.5 25t3.5 47.5t19.5 46t41.5 20.5q14 0 23.5 -9.5t11.5 -18.5q0 1 0.5 -0.5t0.5 -6.5q-1 -12 -3.5 -32.5t-0.5 -33.5q23 -23 34 -43t15 -39q6 -38 -19.5 -63t-91.5 -25h-13t-13 2q-35 6 -65 23.5t-35 41.5q-3 20 6.5 29.5t37.5 11.5
q25 -12 42 -18.5t29 -8.5q5 -1 12 -1q15 0 13 10q-2 9 -12 20.5t-27 19.5z" />
    <glyph glyph-name="Thorn" unicode="&#xde;" horiz-adv-x="568" 
d="M43 579q5 0 10 0.5t10 0.5q13 37 25.5 64.5t28.5 46t35.5 28t45.5 9.5q11 0 28 -8t34.5 -20.5t31.5 -29t18 -33.5q2 -11 -6 -30t-19 -39q56 -5 101 -27.5t77 -53.5t50 -66.5t21 -65.5q6 -59 -21 -112t-76 -93.5t-113.5 -64.5t-132.5 -24h-14.5t-14.5 1v-4
q-1 -29 -0.5 -51t-4 -37t-16 -23t-35.5 -8q-46 0 -70.5 26t-29.5 85q-3 40 -3 85t2.5 91.5t7 92.5t11.5 89q-9 8 -15.5 18.5t-8.5 23.5q-2 17 1.5 38.5t10 41t14.5 33.5t17 16zM230 423q-20 -65 -35 -133t-23 -134q13 -1 19 -1h9q34 0 63.5 15.5t50.5 40t32 55t8 60.5
q-2 15 -9.5 32t-22.5 31.5t-38 24t-54 9.5z" />
    <glyph glyph-name="thorn" unicode="&#xfe;" horiz-adv-x="461" 
d="M151 60q-1 7 -1.5 16t2.5 17t10 14t21 7q26 48 30.5 87t2.5 60q-2 15 -8 15q-42 0 -64 -23.5t-30.5 -61.5t-7.5 -87t5.5 -100l9 -100t3.5 -87t-12 -61.5t-38 -23.5q-12 0 -29 5t-34 18t-31.5 36t-20.5 58q-12 67 -13 139.5t8 142.5q1 32 8 84t19 112t29 121.5t39 111
t49 80.5t59 31q22 0 50.5 -11.5t49 -29.5t26.5 -40.5t-16 -44.5q-26 -23 -53 -77.5t-50 -119.5q27 28 53 44.5t54 16.5q13 0 24 -2t21 -5q26 -9 39 -28.5t18 -45.5q6 -32 0.5 -69.5t-15 -70.5t-20 -56.5t-14.5 -28.5q46 6 75.5 35.5t54.5 65.5q14 22 27 22q14 0 23.5 -11.5
t12.5 -27.5q0 -11 -7 -22l-13 -24q-15 -23 -40 -49.5t-57 -49t-70 -37.5t-78 -15q-41 0 -67.5 16t-33.5 54z" />
    <glyph glyph-name="exclam" unicode="!" horiz-adv-x="362" 
d="M152 -16q-16 0 -33 4.5t-31.5 13.5t-25 22.5t-11.5 31.5q-3 33 23 56.5t78 23.5q33 0 51.5 -14t23.5 -38q3 -18 -1 -35.5t-13.5 -32t-25 -23.5t-35.5 -9zM169 629q14 25 27.5 44t29 31t34 17t42.5 3q5 -1 14 -3t19 -7q21 -9 42.5 -25t23.5 -37q2 -8 -6 -20.5t-19 -26.5
q-26 -36 -48.5 -79.5t-40 -89.5t-30.5 -93t-20 -90q-2 -20 -2.5 -35.5t-5 -26t-16 -15.5t-33.5 -3q-28 2 -46.5 11t-29.5 27q-12 17 -13 47q-1 45 5 97.5t16.5 103t25 95t31.5 75.5z" />
    <glyph glyph-name="slash" unicode="/" horiz-adv-x="582" 
d="M141 -71q-13 -13 -38 -13q-24 0 -43.5 15t-33.5 36q-1 5 18.5 34l51.5 73.5l72.5 101l81.5 115.5l79.5 116.5t66.5 105.5l13 23t11 22q11 4 25 5.5t28 -2.5t28 -15t25 -32l-22.5 -26l-58.5 -70.5l-80 -103t-87 -123.5t-79.5 -132.5t-57.5 -129.5z" />
    <glyph glyph-name="bar" unicode="|" horiz-adv-x="469" 
d="M70 -77q0 1 0.5 1.5t0.5 1.5l36 136.5t39 162t35 169t26 156.5q4 29 6.5 55t3.5 49q-1 5 3.5 8t11 5t13.5 2.5t13 0.5q28 0 53 -18t37 -51q2 -12 -10 -46.5l-30 -84t-36.5 -110.5t-30.5 -124l-13 -72q-8 -42 -15.5 -91.5l-14.5 -92.5t-14 -73t-13 -33q-5 -4 -12.5 -5
t-15.5 -1q-5 0 -16 4t-23 11t-22 17t-12 23z" />
    <glyph glyph-name="backslash" unicode="\" horiz-adv-x="245" 
d="M95 -66q2 65 -8 141t-26.5 152.5t-37 147t-38 124.5t-29.5 86.5l-12 32.5q18 16 34.5 21t31.5 3.5t27.5 -8t21.5 -13.5q2 -23 6 -50q9 -55 24 -122.5t32.5 -137.5l35.5 -137l31.5 -120t21.5 -87t6 -38q-21 -15 -44.5 -22t-46.5 2q-10 4 -18 10.5t-12 14.5z" />
    <glyph glyph-name="fraction" unicode="&#x2044;" horiz-adv-x="450" 
d="M354 555q12 6 29 6q3 0 15 -2t25 -8t23.5 -17.5t10.5 -29.5q-21 -25 -45 -57l-55 -75.5l-70.5 -101.5l-90.5 -135q-35 -50 -67 -102.5t-55 -114.5q-3 -12 -22.5 -11.5t-41 7t-37.5 17t-12 19.5q-7 3 1.5 20.5t23.5 40.5t33 47.5t32 41.5l32 45q8 12 16.5 23.5l17.5 24.5
l67.5 95.5l66 97l58 91t45.5 78.5z" />
    <glyph glyph-name="dotlessi" unicode="&#x131;" horiz-adv-x="253" 
d="M297 171q5 -26 -17.5 -58t-57 -60.5t-74.5 -48t-70 -19.5q-49 0 -69.5 19.5t-27.5 60.5q-4 21 -5.5 54.5t1.5 72t10.5 77.5t21.5 70t35.5 51t52.5 20q35 0 57 -8q20 -8 27.5 -18.5t9.5 -20.5q3 -11 3 -19q1 -22 -6 -41.5l-17 -48.5q-8 -24 -16.5 -57.5t-16.5 -84.5
q0 -6 8 -6q19 0 48 28.5t62 64.5q3 3 8 3q10 -1 20.5 -10t12.5 -21z" />
    <glyph glyph-name="hyphen" unicode="-" horiz-adv-x="417" 
d="M102 233q55 6 101 18.5t90 26.5q17 -2 32 -16t18 -31q4 -21 -15 -35.5t-53 -23.5t-78.5 -14.5t-91.5 -9.5q-14 5 -23 15t-11 21q-3 16 4 29.5t27 19.5z" />
    <glyph glyph-name="colon" unicode=":" horiz-adv-x="373" 
d="M234 61q2 -8 0.5 -14.5t-3.5 -13.5q-7 -21 -27.5 -36t-48.5 -15q-41 0 -69.5 24.5t-34.5 56.5q-5 32 9 53t55 21q21 0 41.5 -7.5t37 -19t27.5 -24.5t13 -25zM216 227q-19 0 -36.5 8t-31.5 21t-23.5 29.5t-12.5 32.5q-5 29 11.5 48t62.5 19q41 0 68.5 -19t32.5 -47
q8 -40 -13 -66t-58 -26z" />
    <glyph glyph-name="semicolon" unicode=";" horiz-adv-x="373" 
d="M288 312q3 -17 -1 -31q-7 -22 -27 -36.5t-46 -14.5q-21 0 -39 8.5t-31 22.5t-21.5 30.5t-11.5 33.5q-4 24 12 42.5t55 18.5q21 0 40 -6.5t34 -17t24.5 -23.5t11.5 -27zM87 -5q-1 6 -7 13.5l-13.5 16.5t-14 18.5t-7.5 18.5q-2 26 16.5 46t57.5 20q18 0 36.5 -5t33.5 -14.5
t25.5 -22.5t13.5 -29q6 -33 -4.5 -60.5t-30.5 -48.5t-47 -35t-54 -21q-16 0 -28 6q-11 6 -18.5 15.5t-9.5 19.5q0 6 4 9q23 16 36 28.5t11 24.5z" />
    <glyph glyph-name="quotesingle" unicode="'" horiz-adv-x="200" 
d="M186 586q2 -15 -6.5 -47.5t-25 -67t-38 -63.5t-45.5 -37q-24 0 -38 5t-16 15q2 35 2 70t3 68v39t5.5 33.5t19 23.5t41.5 9q15 0 31.5 -5.5t31 -13t24.5 -15.5t11 -14z" />
    <glyph glyph-name="quotedbl" unicode="&#x22;" horiz-adv-x="439" 
d="M400 567q2 -2 4.5 -4t5.5 -4q2 -2 4 -8q1 -7 -2.5 -26t-11.5 -44t-19 -52.5t-25 -50.5t-30 -38t-33 -15q-20 0 -26.5 8.5t-16.5 18.5q7 38 6.5 81.5t3 80t16 61t45.5 24.5q16 0 33 -5q14 -5 25 -12t21 -15zM57 375q0 6 0.5 12t0.5 12l2 46q1 33 1 60.5v56.5
q19 22 53.5 26t68.5 -8q13 -5 22 -11.5t11 -17.5q2 -9 -2 -29.5t-11.5 -46t-19 -52t-25.5 -48.5t-30 -36t-33 -14q-26 0 -39 20q0 8 0.5 15.5t0.5 15.5v-1z" />
    <glyph glyph-name="quotedblbase" unicode="&#x201e;" horiz-adv-x="524" 
d="M88 10q-2 9 -8.5 15t-14 11.5t-14 12t-8.5 15.5q-5 32 17.5 53.5t57.5 21.5q48 0 78.5 -25t39.5 -59q4 -27 -7 -56.5t-32 -54t-48 -40.5t-54 -16q-14 0 -29 5q-14 5 -23 12.5t-11 17.5q-1 5 3 9q6 3 10.5 6.5l8.5 6.5q40 30 34 65zM305 14q-2 8 -8.5 14.5t-14 13
t-14 13.5t-7.5 16q-6 33 16 56t57 23q48 0 78 -26.5t40 -61.5q5 -29 -6 -60t-31.5 -56.5t-47 -42.5t-53.5 -17q-15 0 -28 5q-14 5 -23.5 13.5t-11.5 18.5q-1 5 3 9q13 8 19 14q20 17 27.5 34t4.5 34z" />
    <glyph glyph-name="quotesinglbase" unicode="&#x201a;" horiz-adv-x="308" 
d="M88 10q-2 9 -8.5 15t-14 11.5t-14 12t-8.5 15.5q-5 32 17.5 53.5t57.5 21.5q10 0 18.5 -1.5t17.5 -3.5q33 -9 54.5 -31t27.5 -48q4 -27 -7 -56.5t-32 -54t-48 -40.5t-54 -16q-14 0 -28.5 4.5t-23.5 12.5t-11 18q-1 5 3 9q18 10 30 21q15 14 20 28.5t3 28.5z" />
    <glyph glyph-name="ellipsis" unicode="&#x2026;" horiz-adv-x="758" 
d="M154 -18q-11 0 -21 2t-19 5q-26 10 -43 30t-22 44q-2 15 3 28t16 23.5t27.5 16.5t37.5 6q40 0 65.5 -14.5t30.5 -37.5q3 -18 -1.5 -36t-14.5 -33t-25 -24.5t-34 -9.5zM381 -18q-17 0 -36 7q-26 10 -44.5 30.5t-23.5 49.5t16.5 48.5t62.5 19.5q42 0 70.5 -17.5t33.5 -40.5
q3 -16 -1.5 -33t-14.5 -31.5t-26 -23.5t-37 -9zM529 53q-4 22 3.5 38t22 26t34 15t40.5 5q38 -3 56 -20t22 -38q3 -18 -1.5 -35.5t-15.5 -31t-27.5 -22t-37.5 -8.5q-36 0 -63 19t-33 52z" />
    <glyph glyph-name="quotedblright" unicode="&#x201d;" horiz-adv-x="463" 
d="M86 466q-1 5 -7 9.5l-13.5 10.5t-14.5 13.5t-9 17.5q-6 34 15 55t63 21q40 0 71 -25t37 -62q5 -30 -11 -60t-40.5 -54.5t-49.5 -40t-38 -15.5q-23 0 -39.5 14t-19.5 30q0 6 4 9q28 18 41 42t11 35zM296 466q-1 5 -7 9.5l-13.5 10.5t-14.5 13.5t-9 17.5q-6 34 15 55t63 21
q40 0 71 -25t37 -62q5 -30 -11 -60t-40.5 -54.5t-49.5 -40t-38 -15.5q-23 0 -39.5 14t-19.5 30q0 6 4 9q28 18 41 42t11 35z" />
    <glyph glyph-name="quotedblleft" unicode="&#x201c;" horiz-adv-x="463" 
d="M380 463q32 -21 34.5 -45.5t-12 -44t-40 -30t-48.5 -4.5q-33 9 -54.5 31t-27.5 48q-5 27 6.5 56.5t32 54t47.5 40.5t54 16q16 0 29 -5q12 -4 22.5 -11.5t12.5 -18.5q0 -5 -4 -9q-32 -20 -44 -39t-8 -39zM207 402q5 -26 -6 -44.5t-36 -26.5q-8 -2 -14 -3t-14 -1
q-22 0 -41.5 7.5t-35 19.5t-25.5 27.5t-13 31.5q-5 30 5.5 59t31 53t47.5 41t56 23q15 0 33 -10.5t21 -26.5q1 -5 -5.5 -12.5l-15 -17.5t-16.5 -20.5t-10 -19.5q-3 -13 1 -22t11 -17.5l15 -18t11 -22.5z" />
    <glyph glyph-name="plus" unicode="+" horiz-adv-x="527" 
d="M267 42q-13 -11 -38 -11q-44 0 -53 52q-3 13 1.5 29.5t4.5 39.5q-32 0 -63.5 0.5t-58.5 1.5q-10 6 -15 14.5t-7 16.5q-4 22 9.5 33t37 14.5t53 3.5t56.5 2q4 29 6.5 61.5t4.5 55.5q10 10 26 14t32 0.5t29 -14.5t16 -29q3 -15 2 -34t-6 -49q61 2 113 11q16 -6 24.5 -17
t10.5 -22q2 -13 -9 -24t-32.5 -19t-52.5 -13.5t-68 -6.5z" />
    <glyph glyph-name="endash" unicode="&#x2013;" horiz-adv-x="607" 
d="M355 160h-57.5t-72 0.5l-72 1t-56.5 0.5q-10 5 -15.5 13.5t-6.5 15.5q-3 16 8.5 29.5t30.5 16.5q4 0 5 -1q127 4 216.5 11t158.5 18q29 -8 34 -38q4 -24 -9.5 -37t-38 -20t-58 -8.5t-67.5 -1.5z" />
    <glyph glyph-name="emdash" unicode="&#x2014;" horiz-adv-x="734" 
d="M15 217q-28 0 -34 7t-9 22q-2 15 8 29.5t45 15.5q92 2 182.5 7t173 11.5t152.5 13l122 11.5q29 -10 35 -40q2 -11 -3 -20t-27 -16.5t-65.5 -13t-119.5 -10.5t-188.5 -9t-271.5 -8z" />
    <glyph glyph-name="minus" unicode="&#x2212;" horiz-adv-x="486" 
d="M184 241l48 2t44.5 2.5t43.5 4t45 7.5q31 -9 36 -39q4 -23 -9.5 -36t-38.5 -19.5t-57.5 -8t-66.5 -1.5q-14 0 -31.5 1t-34.5 1q-9 0 -18.5 -0.5t-19.5 -0.5q-14 0 -28.5 1t-26.5 4t-20.5 9.5t-10.5 18.5q-2 7 1.5 15t10.5 15t17 12.5t21 6.5z" />
    <glyph glyph-name="macron" unicode="&#xaf;" horiz-adv-x="487" 
d="M87 543q-1 7 2.5 15.5t10 16t14 12.5t15.5 5q47 2 84 4t69 5t61.5 7.5t61.5 10.5q17 -5 27 -17t12 -26q4 -26 -12 -40.5t-45 -21t-66 -7.5t-74 -1q-12 0 -38 1t-52 4.5t-47 11t-23 20.5z" />
    <glyph glyph-name="degree" unicode="&#xb0;" horiz-adv-x="422" 
d="M93 591q9 5 21 7.5t23 2.5q22 0 43.5 -8.5t39 -23.5t29.5 -34t16 -40q5 -29 -3.5 -52t-26.5 -39.5t-41.5 -25.5t-48.5 -9q-31 0 -56 9.5t-44 25t-30.5 35t-14.5 39.5q-4 22 1 42t17 36t31 25.5t44 9.5zM121 532q-28 -2 -41 -17t-9 -34q4 -23 21.5 -36.5t42.5 -13.5
q31 0 47 16t12 39q-4 22 -27 34t-46 12z" />
    <glyph glyph-name="quoteleft" unicode="&#x2018;" horiz-adv-x="245" 
d="M205 412q5 -26 -5.5 -44.5t-36.5 -26.5q-7 -2 -14 -3t-14 -1q-22 0 -41.5 7.5t-35 19.5t-25.5 27.5t-13 31.5q-5 30 5.5 59t31 53t48 41t55.5 23q7 0 16 -3t17 -8t14 -11.5t7 -14.5q1 -5 -5.5 -12.5l-15 -17.5t-16.5 -20.5t-10 -19.5q-3 -13 1 -22t11.5 -17.5t15 -18
t10.5 -22.5z" />
    <glyph glyph-name="quoteright" unicode="&#x2019;" horiz-adv-x="250" 
d="M87 463q-2 9 -8.5 15t-14 11.5t-14 12t-8.5 15.5q-5 32 17.5 53.5t57.5 21.5q10 0 18.5 -1.5t17.5 -3.5q33 -9 54.5 -31t27.5 -48q5 -27 -6.5 -56.5t-32.5 -54t-48 -40.5t-54 -16q-14 0 -28.5 4.5t-23.5 12.5q-6 4 -9.5 13t2.5 14q32 20 44 39t8 39z" />
    <glyph glyph-name="asciicircum" unicode="^" horiz-adv-x="406" 
d="M389 377q4 -11 -2 -18.5t-17 -12t-24.5 -6t-25.5 -1.5q-25 0 -39 15.5t-24.5 36t-22 40.5t-32.5 29q-9 -3 -23 -21.5t-31.5 -39.5t-37 -38t-37.5 -15q-20 2 -38 14t-15 35q3 27 21 57t45.5 57t62.5 46.5t72 24.5q22 2 39 -3.5t35 -19.5q30 -26 51 -71.5t43 -108.5z" />
    <glyph glyph-name="less" unicode="&#x3c;" horiz-adv-x="462" 
d="M279 16q-2 0 -14.5 10l-33.5 27l-50 40t-65 49q-25 5 -45.5 12.5t-24.5 27.5q-4 23 20.5 42.5t62.5 31.5q21 12 50 33.5l58.5 42t54.5 36t37 15.5q14 0 22 -14t10 -23q3 -14 -8 -32t-31 -38t-47 -40.5l-56 -40.5q43 -33 73.5 -64.5t38.5 -57.5q0 -27 -17 -42t-35 -15z
" />
    <glyph glyph-name="greater" unicode="&#x3e;" horiz-adv-x="462" 
d="M151 370q4 -4 22 -17l42.5 -30.5l52.5 -37.5l51 -36.5l38.5 -28l15.5 -11.5q4 -23 -21 -41.5t-61 -29.5q-51 -29 -96.5 -65t-97.5 -65q-22 5 -33 25q-3 4 -5 10.5t-3 11.5q4 25 27 49t55 52h-1q13 13 30 23t34 19q-39 29 -69 63.5t-42 58.5q1 21 13 39t31 18q9 0 17 -7z
" />
    <glyph glyph-name="guilsinglleft" unicode="&#x2039;" horiz-adv-x="529" 
d="M103 182q-2 16 3 24q8 17 28 28.5t46 20.5h-2l79.5 51t70.5 53q9 7 28 17q14 -2 25 -14.5t14 -27.5q4 -23 -23.5 -51t-66.5 -58l-20 -15q-5 -4 -10 -7.5t-10 -7.5q33 -29 61 -58t33 -53q3 -19 -3 -32q-4 -14 -13.5 -21t-19.5 -7q-17 0 -35.5 14.5t-38 34l-40 39
t-40.5 30.5q-23 5 -42.5 12.5t-23.5 27.5z" />
    <glyph glyph-name="guilsinglright" unicode="&#x203a;" horiz-adv-x="529" 
d="M152 319q-2 23 12.5 40.5t39.5 15.5l37 -30q18 -15 40.5 -29.5t44 -30.5t39.5 -34t29 -41q1 -19 -13.5 -35.5t-35.5 -30.5t-43 -27t-36 -24l-44 -36q-21 -17 -42 -30q-7 -5 -14 -4t-13 4q-14 6 -23 18.5t-11 17.5q-2 15 8 31.5t28.5 34.5t43 36.5t51.5 36.5
q-33 29 -61 59.5t-37 57.5z" />
    <glyph glyph-name="guillemotleft" unicode="&#xab;" horiz-adv-x="757" 
d="M103 182q-5 26 18.5 43.5t58.5 29.5h-2l79.5 51t70.5 53q9 7 28 17q14 -2 25 -14.5t14 -27.5q4 -23 -21.5 -49t-62.5 -55q-11 -9 -23 -17.5t-23 -17.5q32 -28 60.5 -57t33.5 -54q3 -19 -3 -32q-4 -14 -13.5 -21t-19.5 -7q-17 0 -36 14.5t-38 33.5q-22 22 -47 38.5
l-46.5 29.5t-36.5 23t-16 19zM530 26q-1 0 -3.5 0.5t-3.5 0.5l-55 45l-32.5 23.5l-44 33t-40 34.5t-18.5 29q-4 22 6.5 31.5t30.5 21.5l19 11h-1q23 14 43 30l40 32l38.5 30.5t37.5 26.5q14 8 28 0t23 -19q5 -5 7 -10t3 -7q2 -15 -8 -31.5t-28.5 -34.5t-43 -36.5
t-51.5 -36.5q33 -29 61.5 -59.5t36.5 -57.5q2 -23 -11 -40t-34 -17z" />
    <glyph glyph-name="guillemotright" unicode="&#xbb;" horiz-adv-x="694" 
d="M569 218q2 -13 -3 -24t-15.5 -20t-25.5 -16t-32 -13h2l-79.5 -51t-71.5 -53q-9 -8 -28 -17q-14 2 -25 14.5t-13 27.5q-4 23 21 49t63 55q10 9 22 17.5t23 17.5q-31 28 -59.5 57t-33.5 54q-2 10 -1 17.5t3 14.5q5 14 14 21t19 7q17 0 36 -14.5t39 -33.5q22 -22 47 -38.5
l46 -29.5t35.5 -23t16.5 -19zM143 374q1 0 3.5 -0.5t3.5 -0.5l55 -45q10 -8 32 -23.5t44 -33t39.5 -34.5t19.5 -29q4 -22 -7 -31.5t-31 -21.5l-19 -11h1q-23 -14 -43 -30l-40 -32l-38 -30.5t-38 -26.5q-14 -8 -28 0t-22 19q-10 12 -10 17q-2 15 8 31.5t28 34.5t42.5 36.5
t51.5 36.5q-33 29 -61 59.5t-36 57.5q-2 23 11 40t34 17z" />
    <glyph glyph-name="dollar" unicode="$" horiz-adv-x="462" 
d="M190 239q-56 47 -82.5 102t-15.5 101q3 13 11 30.5t22 32t33.5 23.5t45.5 6q1 11 1 32t2.5 42t10 36.5t24.5 15.5q15 0 28.5 -8t23.5 -21q9 -12 12 -28q3 -34 -7 -80q38 -7 67.5 -27.5t43.5 -43.5q9 -15 12 -33q4 -21 -2 -38t-16.5 -29t-23.5 -18.5t-23 -6.5
q-6 0 -20.5 4t-30 11.5t-28 17t-14.5 21.5q-2 8 1 11.5t8 6.5t11 7.5t11 14.5q-4 5 -13 7t-20 2q-15 0 -26.5 -4.5t-9.5 -15.5q3 -14 17 -32t44 -48q56 -56 90.5 -95t40.5 -75q6 -32 -0.5 -62.5t-27.5 -55.5t-57 -42t-90 -23q-3 -20 -2 -44.5t0 -45.5t-7 -35t-23 -14
q-29 0 -45 19.5t-21 43.5q-3 18 -2.5 37t3.5 40q-42 5 -75.5 19t-57 33.5t-38 43t-18.5 48.5q-4 23 3 47t23.5 43.5t41 32t54.5 12.5q11 0 26 -3t29 -9.5t24.5 -17.5t13.5 -26q2 -11 -2 -17.5t-11 -11.5q-11 -6 -26.5 -8.5t-30 -5.5t-23.5 -9t-6 -19q5 -28 40.5 -48.5
t82.5 -20.5q34 0 56.5 19.5t17.5 49.5q-2 11 -6.5 22.5t-13.5 25.5t-23.5 29t-36.5 32z" />
    <glyph glyph-name="perthousand" unicode="&#x2030;" horiz-adv-x="1130" 
d="M169 465q-18 -17 -30 -41.5t-13 -47.5q0 -3 0.5 -12t3 -18.5t7.5 -17.5t14 -8q12 0 20.5 9t14 23.5t7.5 32t1 35.5q-8 8 -14 20t-9 23q0 1 -1 1t-1 1zM397 39q-6 33 1 63q6 31 21 60.5t37 52t49 36t56 13.5q12 0 23 -3t20 -10q8 4 19 4q42 0 64.5 -26.5t28.5 -60.5
q7 -38 -1 -73.5t-23 -67.5v1q-10 -18 -26.5 -35.5t-37 -30.5t-44.5 -21t-48 -8t-47 8t-42 22t-32.5 33.5t-17.5 42.5zM585 165q-11 -6 -22 -17.5t-20 -25.5t-14 -30.5t-2 -32.5q6 -31 15 -31q6 0 13 4q10 4 18.5 16.5t14.5 28t8.5 33t-0.5 32.5q-1 8 -4 12t-7 11zM738 39
q-6 33 1 63q6 31 21 60.5t37 52t49 36t56 13.5q12 0 23 -3t20 -10q8 4 19 4q42 0 64.5 -26.5t28.5 -60.5q7 -38 -1 -73.5t-23 -67.5v1q-10 -18 -26.5 -35.5t-37 -30.5t-44.5 -21t-48 -8t-47 8t-42 22t-32.5 33.5t-17.5 42.5zM926 165q-11 -6 -22 -17.5t-20 -25.5t-14 -30.5
t-2 -32.5q6 -31 15 -31q6 0 13 4q10 4 18.5 16.5t14.5 28t8.5 33t-0.5 32.5q-1 8 -4 12t-7 11zM-5 328q-3 14 -3 29t2 30q5 33 20.5 64.5t38 55.5t50.5 38.5t59 14.5q24 0 43 -11q3 1 11 1h11q28 0 45.5 -11.5t27 -28t13.5 -36.5t5.5 -36.5t2 -28t3.5 -11.5q6 0 14.5 5.5
t17.5 13.5t15.5 16.5t7.5 15.5q11 22 21 48.5t21.5 49.5t25 38t31.5 15q38 0 70 -26.5t39 -68.5q2 -5 1.5 -13t-5.5 -11q-16 -14 -38.5 -46t-49.5 -76.5t-57 -99l-60 -113.5l-58.5 -120.5t-52.5 -120.5v1q-5 -20 -16 -26.5t-28 -6.5q1 0 -5.5 1.5t-17 5.5t-23.5 11.5
t-24 19.5q-16 17 -20 42q-2 2 -0.5 7t1.5 6v1q18 30 39 69.5l44 84l47 92l48 95.5q-12 0 -26 7q-25 -37 -67.5 -64t-86.5 -27q-24 0 -47 8t-42 22t-32 33t-16 41z" />
    <glyph glyph-name="lslash" unicode="&#x142;" horiz-adv-x="289" 
d="M-13 222q-15 -5 -28 -3.5t-23 18.5q-11 21 3 35.5t46 27.5l126 47t115 56q30 0 42 -25q14 -25 -16 -51.5t-88 -45.5l-35 -13q-16 -5 -45 -15t-86 -27zM329 172q0 -31 -22 -64.5t-56.5 -61t-76 -45t-80.5 -17.5q-37 0 -64.5 20.5t-35.5 66.5q-3 18 -2 69.5t8 118.5
t19.5 139.5t33 133.5t48 100.5t64.5 39.5q20 0 42.5 -7.5t41.5 -19.5t32.5 -28.5t16.5 -33.5q2 -9 -1 -18t-15 -20q-18 -15 -35 -48.5t-33 -75.5t-29 -89t-22 -89.5t-13 -76.5t-1 -51q5 -20 21 -20q17 0 37 17t39 37l34 37t22 17q11 0 19 -10t8 -21z" />
    <glyph glyph-name="equal" unicode="=" horiz-adv-x="511" 
d="M375 149q28 -10 34 -45q5 -29 -7.5 -44.5t-36.5 -22t-56.5 -7t-65.5 -0.5q-16 0 -34.5 0.5t-37.5 1.5l-37 2q-26 2 -38 6.5t-16 28.5q-3 18 6 35.5t37 23.5zM85 310q43 3 77 5t65 4.5t60 6t61 9.5q27 -10 33 -45q5 -28 -7.5 -43t-35.5 -22t-53.5 -8t-61.5 -1h-47.5
t-54.5 2h-26.5t-23 2.5t-17.5 10t-10 24.5q-5 25 18 43q11 9 23 12z" />
    <glyph glyph-name="parenleft" unicode="(" horiz-adv-x="476" 
d="M297 -148q-32 0 -67.5 19t-66.5 50.5t-54 73t-31 85.5q-16 90 0 177.5t63.5 159.5t127 122t191.5 64q28 2 43.5 -8t17.5 -21q1 -5 -5.5 -11t-16 -11.5t-20 -10.5t-17.5 -9q-62 -39 -106.5 -92t-70 -114t-33 -126.5t3.5 -129.5q6 -32 19 -65t30 -59q8 -14 17.5 -24.5
t18.5 -18.5q10 -9 10 -18t-7.5 -16.5t-20 -12t-26.5 -4.5z" />
    <glyph glyph-name="parenright" unicode=")" horiz-adv-x="494" 
d="M156 604q32 0 67.5 -19t66 -50.5t53.5 -73t31 -85.5q16 -90 0 -177.5t-63 -159.5t-126.5 -122t-191.5 -64q-27 -2 -43 8t-18 21q-1 5 2 8.5t5 4.5q75 36 129.5 90.5t87 120.5t42.5 138t-2 142q-4 24 -13 48.5t-20 47t-24.5 41.5t-26.5 30q-10 9 -10 18t7.5 16.5t20 12
t26.5 4.5z" />
    <glyph glyph-name="bracketright" unicode="]" horiz-adv-x="476" 
d="M152 -159q-15 0 -31 1.5t-32 3.5q-34 5 -63 12.5t-51 16.5t-35 19t-14 19q-2 8 2.5 19t15.5 11q18 1 35.5 1.5t34.5 0.5q25 0 49.5 -1.5t50.5 -3.5q16 47 31.5 114t30 142.5t27.5 153.5l24 148q-33 3 -64 4.5t-56.5 7t-42.5 16t-21 30.5q-2 12 9.5 20t31 13.5t44.5 8
t51 3.5q27 1 62.5 1t67.5 -4t55 -14.5t27 -31.5q2 -12 -0.5 -43t-8 -75t-14.5 -98t-20 -111.5t-24.5 -114.5t-27.5 -107q-11 -40 -21.5 -70.5t-25.5 -50.5t-38 -30.5t-59 -10.5z" />
    <glyph glyph-name="bracketleft" unicode="[" horiz-adv-x="465" 
d="M220 -155q-55 0 -91 13t-65 33q-11 5 -10 46t10 102.5t24.5 136.5t34 147.5t38.5 135t39 99.5q11 31 33 38t55 7q27 -1 63 -1t69 -0.5t57 -0.5t27 -1q25 -14 28 -37q3 -16 -14.5 -28t-44.5 -19.5t-58 -11t-55 -3.5l-18 -50q-20 -58 -37.5 -120t-32.5 -123t-27.5 -117.5
t-21.5 -103.5l-8 -40q5 -1 9.5 -1t12.5 -1l139 -8q15 -7 18.5 -15t5.5 -16q3 -15 -10 -26.5t-37 -19t-58.5 -11.5t-74.5 -4z" />
    <glyph glyph-name="braceleft" unicode="{" 
d="M123 -10q-5 35 5 69.5t20 64.5q5 19 9 37t2 35q-2 10 -14 13t-26.5 6t-27.5 9t-16 23q-3 18 2.5 30.5t16.5 20t26.5 10.5t32.5 2q18 -2 36 -6q15 12 20 27t5.5 34.5t0 44.5t4.5 56q9 52 59.5 92.5t151.5 51.5q27 0 45 -10.5t21 -27.5q1 -6 -1 -14.5t-7 -13.5
q-30 -6 -49 -16q-17 -9 -25.5 -22.5t-12 -29.5t-4 -35t-1.5 -39q-2 -26 -8 -51t-18 -46.5t-32 -39t-51 -27.5q10 -11 18 -23t12 -29t0.5 -36t-9.5 -40l-6 -21q-8 -26 -14.5 -51.5t-2.5 -46.5q2 -12 17.5 -29.5t27.5 -36t13.5 -36t-24.5 -30.5q-7 -3 -15 -5t-19 -2
q-31 0 -59.5 14.5t-50 35.5t-35.5 45t-17 43z" />
    <glyph glyph-name="braceright" unicode="}" horiz-adv-x="535" 
d="M372 473q5 -35 -4.5 -69.5t-19.5 -64.5q-7 -19 -10.5 -37t-1.5 -35q2 -10 14.5 -13t27 -6t27 -9.5t15.5 -22.5q3 -18 -2.5 -30.5t-16.5 -20t-26.5 -10.5t-31.5 -2q-19 1 -37 6q-15 -12 -20 -27t-5.5 -34.5t0 -44.5t-4.5 -56q-5 -26 -19.5 -49.5t-40 -43t-63 -33
t-88.5 -18.5q-27 0 -44.5 10.5t-20.5 27.5q-1 6 1 14.5t7 13.5q29 6 48 16q18 9 26 22.5t11.5 29.5t4 35t2.5 39q2 25 8.5 50.5t20 47t34 39t51.5 27.5q-11 11 -17 23t-10 29t-1.5 36t8.5 40l7 21q8 26 13 56.5t2 51.5q2 22 -9.5 40t-23 33t-14.5 27t17 22q16 7 35 7
q31 0 57.5 -14.5t46.5 -35.5t32 -45t15 -43z" />
    <glyph glyph-name="asciitilde" unicode="~" horiz-adv-x="529" 
d="M169 428q13 -2 28.5 -6l32.5 -8q8 -2 16 -3.5t15 -3.5q15 -3 26 -3q25 0 33.5 3.5t10.5 8t2 8t8 3.5q17 0 31 -9.5t23 -23t13.5 -29.5t2.5 -29q-5 -26 -25 -41.5t-52 -19.5q-20 -3 -38 2t-40.5 12.5t-52 16t-72.5 13.5q-14 2 -26.5 2t-23.5 -1q-6 0 -11.5 -0.5
t-10.5 -0.5q-15 0 -20.5 13.5t-3.5 29.5q2 15 9.5 29.5t23 24.5t40 14t61.5 -2z" />
    <glyph glyph-name="underscore" unicode="_" horiz-adv-x="429" 
d="M-10 -9q-1 6 3 14.5t11 15.5t16 12t17 5q20 1 38.5 1t35.5 1q34 1 63.5 3.5t57 5.5t53.5 6.5t55 8.5q17 -5 28 -16t13 -25q4 -25 -14 -38.5t-50 -20t-73 -7.5t-81 -1q-14 0 -41.5 1t-56 4.5t-51 10.5t-24.5 19z" />
    <glyph glyph-name="eth" unicode="&#xf0;" horiz-adv-x="477" 
d="M195 568q-9 14 -15.5 25.5t-9.5 25.5q-3 18 3 30.5t17 20.5q18 12 42.5 15.5t45.5 5.5q26 0 49.5 -23.5t43.5 -61.5q11 3 22 7.5t22 6.5q10 1 19.5 -3.5t17.5 -12.5t13.5 -18.5t7.5 -20.5q4 -23 -14 -38t-51 -26q4 -15 6 -30q9 -49 12.5 -104.5t-1.5 -109.5t-21.5 -104
t-48.5 -88t-82 -60.5t-121 -22.5q-24 0 -48 6t-45.5 18t-38.5 29.5t-27 41.5q-24 54 -27 100t9.5 83.5t37.5 67t57 49t67 30t68 10.5q37 0 42 -29q3 -16 -1 -23t-16 -12q-28 -11 -48.5 -32.5t-33.5 -50t-16.5 -63.5t3.5 -74q5 -24 25.5 -32.5t36.5 -2.5q23 8 39.5 37.5
t25.5 73t9.5 97.5t-9.5 113q-6 30 -15 54q-15 -2 -30 -3t-30 -1q-17 0 -27 14t-13 28q-3 18 9.5 33.5t36.5 23.5h2z" />
    <glyph glyph-name="asterisk" unicode="*" horiz-adv-x="514" 
d="M219 271q-14 -17 -31.5 -33t-33.5 -16q-11 0 -23 3.5t-22.5 9t-18 13.5t-8.5 17q-2 13 19 34.5t46 43.5q-26 9 -43.5 12.5t-29.5 7t-18 10t-9 20.5q-2 14 3 29t16 26t25 11q20 0 40.5 -6.5t46.5 -20.5q-2 9 -12.5 24.5t-13.5 33.5q-3 19 6.5 33.5t37.5 21.5
q14 3 43.5 3.5t59.5 -5.5t52.5 -20t21.5 -39q-1 -8 -8.5 -23.5t-31.5 -44.5q19 4 36.5 12t32.5 8q22 0 36 -12.5t17 -29.5q1 -10 -3 -19q-9 -17 -39.5 -27t-76.5 -16q17 -20 32.5 -34.5t26.5 -28.5q6 -8 9 -15q-1 -13 -9.5 -23t-20.5 -16q-14 -6 -28 -6q-33 0 -57.5 20.5
t-50.5 63.5z" />
    <glyph glyph-name="question" unicode="?" horiz-adv-x="540" 
d="M151 -17q-32 0 -61 14t-45 39q-8 13 -11 27q-2 14 4 27.5t18.5 24t29.5 17t37 6.5q39 0 62 -17t28 -42q7 -42 -8.5 -69t-53.5 -27zM278 523q2 -13 -5 -25t-20 -21t-31 -14.5t-37 -6.5q-21 2 -39 13.5t-33 29t-25 39t-14 43.5q-4 28 7.5 54.5t36 47t61.5 32.5t84 12
q115 0 176 -48.5t74 -127.5q6 -36 -3 -64t-35 -56.5t-70.5 -60.5l-108.5 -76q-16 -12 -27.5 -25t-20.5 -27q-8 -10 -13 -21t-11.5 -20t-15.5 -14.5t-25 -5.5q-11 0 -24.5 4t-25.5 12t-21.5 19t-11.5 25q-3 19 5 37t24 35.5t37 35l44 35.5l55.5 41t46 39.5t30.5 38.5t9 38
q-2 8 -6 18t-11 19t-16.5 15t-22.5 6q-17 0 -32.5 -11.5t-12.5 -28.5q1 -5 5 -9.5t8.5 -9l9 -9t5.5 -8.5z" />
    <glyph glyph-name="at" unicode="@" horiz-adv-x="2429" 
d="M63 587q22 67 49.5 100t78.5 29q9 -1 26.5 -7.5t36.5 -18.5t34.5 -29.5t18.5 -38.5q2 -10 -5 -27t-16 -36q-23 -48 -41 -104.5t-31 -116.5q4 0 7 0.5t7 1.5q7 2 13 6q24 22 44.5 55.5l41.5 70.5l44 74t52 67t65.5 48.5t84.5 18.5q16 0 44 -8t49 -20q22 -13 25 -25
q3 -15 -29 -25q-32 -15 -57 -40t-47.5 -55l-45 -61.5t-49 -60.5t-59.5 -51.5t-77 -33.5q32 -11 53.5 -27t37.5 -35q16 -20 29 -47.5l26 -53t27.5 -44t32.5 -20.5q22 3 48.5 19t43.5 40q4 6 10.5 8.5t14.5 2.5q10 0 18 -4t10 -12q3 -18 -16 -41t-50 -45t-66.5 -39.5
t-65.5 -24.5q-26 -6 -47 -6q-39 5 -62 21.5t-38 46.5q-20 38 -31 74t-22.5 66.5t-29 53t-50.5 33.5q-8 -45 -12 -89.5t-6 -86.5q1 -27 -1 -48t-10 -34.5t-22.5 -19.5t-37.5 -4q-29 2 -50.5 13.5t-34.5 35.5q-7 12 -11.5 27t-6.5 35q-8 61 -5.5 130t11.5 136t22 126t27 100z
M1077 606q17 -21 19 -38t-4 -33.5t-17 -33.5t-21 -38q32 0 50 2t34 2q8 49 21 94t31 79.5t42.5 54.5t55.5 20q24 0 48 -9q22 -9 42 -22.5t31 -33.5q8 -14 4.5 -28t-13.5 -33l-24 -45t-27 -63q12 0 24 -3q28 -8 45 -27t21 -45q4 -23 -10.5 -34.5t-36 -17t-45 -6t-37.5 -0.5
l-16.5 -61l-15.5 -58.5t-12 -51t-6 -39.5t9 -27.5t24 -11.5t35.5 13.5t44.5 40.5q7 9 13.5 19l12 18.5t10 14.5t8.5 6q10 0 18 -9t10 -26q6 -31 -14.5 -65t-54 -62.5t-74 -47t-76.5 -18.5q-14 0 -30 5.5t-31.5 15t-29.5 22t-23 27.5q-32 -25 -72.5 -43t-76.5 -19
q-38 -2 -70.5 20t-41.5 73q-18 -20 -41 -37.5t-47 -31.5t-48 -22t-43 -8q-49 0 -69.5 19.5t-27.5 60.5q-4 21 -7 52.5t-2.5 66t5.5 69.5t16.5 62.5t31.5 45t51 17.5q42 0 64 -11q20 -10 26 -26.5t7 -38.5q1 -14 -1.5 -27t-7.5 -32.5t-12 -50.5t-14 -80q0 -6 7.5 -5.5
t10.5 1.5q17 7 40.5 29t49.5 50q-2 37 5 85.5t9 94.5q-32 0 -66.5 14.5t-64 35.5t-50.5 45t-25 44q-9 33 -4 60.5t21.5 45.5t44 25t64.5 1q5 -1 13 -3t16 -6t13.5 -9.5t5.5 -13.5q0 -1 1 -2q1 -9 -4 -26l-10 -34t-7 -31.5t5 -18.5q13 -8 27.5 -13t27.5 -5q5 37 12.5 70
t19 58t26 39.5t34.5 15.5q11 1 22.5 -1t22.5 -5q21 -6 42.5 -18.5t35.5 -28.5zM1098 142q0 36 9.5 91.5t15.5 113.5l-48.5 2t-48.5 3l-10.5 -49l-10.5 -50t-8 -47t-2 -40q1 -12 2 -21.5t3 -17.5q6 -25 23 -25q11 1 33 10.5t42 29.5zM1820 219q2 2 6 3.5t7 1.5
q22 0 31.5 -11.5t6.5 -29.5q-6 -33 -31 -68t-64 -63.5t-89 -46.5t-105 -18q-39 0 -73 10.5t-60.5 30t-45 47t-25.5 60.5q-11 46 -6.5 92t25.5 84q26 48 82 78.5t145 30.5q64 0 95 -25t39 -68q6 -33 -8.5 -63.5t-43 -54.5t-68.5 -40t-87 -21q9 -25 26 -40t46 -17
q60 1 109.5 38t87.5 90zM1542 222q21 1 38 10t28.5 22.5t17 29t3.5 28.5q-2 9 -5.5 15.5t-13.5 6.5q-12 0 -24 -9t-22 -24t-16 -35.5t-6 -43.5zM2361 160q-1 -22 -25 -52t-59 -57t-75.5 -46t-73.5 -19q-48 0 -79 18t-38 55q-5 26 3 59t19.5 63l20.5 54t8 32q-14 -3 -29 -13
q-24 -16 -40.5 -44t-26 -61t-12.5 -67.5t0 -61.5q2 -17 -13 -24t-51 -7q-5 0 -13.5 1.5t-19 6.5t-21 14t-19.5 23q-15 21 -19 49q-9 52 -3 114.5t22 116.5t39 90.5t48 36.5q15 0 34 -2.5t36 -8t29.5 -14t14.5 -20.5q1 -6 -2.5 -13.5t-8.5 -16.5t-10 -19t-7 -21
q35 38 78 62.5t78 24.5q14 0 31 -4t32.5 -12t26.5 -19.5t14 -27.5q2 -15 -2.5 -35.5t-13 -44t-18.5 -48.5l-18.5 -47.5t-13.5 -41t-3 -29.5q2 -7 9 -7q15 0 41 16t48 46l30 38l5.5 5.5t9.5 4.5q8 0 14.5 -5t11 -12t7.5 -15t4 -15zM2306 310q16 19 35 12.5t35.5 -26t27 -45
t10.5 -43.5q0 -23 -10.5 -46t-34.5 -44q-24 -83 -37.5 -154t-27 -130t-32.5 -105.5t-54.5 -79.5t-94 -52t-150.5 -23q-68 -1 -153.5 8.5t-178.5 26t-190 37.5l-188 42.5l-172 40.5t-142 31q-42 7 -83 12t-76 0t-61.5 -24.5t-39.5 -64.5q-5 -14 -8 -32.5t-9 -35t-18 -28
t-34 -11.5q-24 0 -47 22t-30 60q-11 60 17.5 113t86.5 93.5t141 64t182 23.5q31 0 84 -10t120 -26.5l144 -37l156.5 -42.5l158 -42.5t148.5 -37t127 -26.5t94 -10q69 0 114 28.5t73.5 75t43.5 105t24 118.5t14.5 116t15.5 97q5 19 9.5 31t9.5 19z" />
    <glyph glyph-name="sterling" unicode="&#xa3;" horiz-adv-x="676" 
d="M97 285q11 -1 23.5 -0.5t23.5 1.5q7 83 31 149t66 112.5t102.5 71.5t142.5 25q35 0 64.5 -10t52.5 -26.5t39 -36.5t24 -41q2 -5 3.5 -10.5t2.5 -10.5q5 -30 -4 -54.5t-27.5 -42t-44 -27.5t-53.5 -10q-35 0 -61.5 13.5t-31.5 41.5q-3 11 3 20q5 8 16 11.5t25 3.5l14 -3
q7 10 5 23q-2 14 -12 25t-27 11q-49 0 -76.5 -21t-42.5 -53.5t-22 -71.5l-14 -75l46 9l18 3q17 -5 27 -17t12 -26q3 -20 -5 -32.5t-24.5 -20.5t-39.5 -11.5t-50 -4.5q-8 -31 -20 -58t-33 -47q18 1 45 -2.5t56 -8l55.5 -8.5t43.5 -5q5 -1 10.5 -1h10.5q10 0 20.5 5t19.5 12
t17.5 14.5t14.5 13.5q7 8 15.5 7.5t16 -6.5t13 -15.5t7.5 -19.5q6 -33 -9 -60.5t-41.5 -48t-60 -31.5t-65.5 -11q-41 0 -79.5 9t-80.5 20.5t-88.5 23t-102.5 16.5q-26 2 -48 7t-24 15q-2 13 4 26.5t18.5 25.5t29 22.5t35.5 16.5q4 9 9.5 16.5l12 17t13.5 24t13 37.5
q-26 5 -44.5 9.5t-21.5 19.5q-1 7 -0.5 15.5t4 16.5t10 13t18.5 4z" />
    <glyph glyph-name="florin" unicode="&#x192;" horiz-adv-x="528" 
d="M34 339q16 3 26 4t15.5 1.5t8.5 0.5h5q7 58 17.5 115t33 105.5t61 83t101.5 47.5q16 3 33 5t37 2q25 0 53 -7.5t52.5 -20.5t42 -31t21.5 -39q1 -8 -7 -27t-21.5 -39.5t-31 -37t-35.5 -18.5q-12 -2 -22.5 4t-18.5 22q-15 25 -37 46t-42 24h-5q-16 0 -25 -12t-13 -30.5
t-4.5 -42t-0.5 -46v-41.5t-3 -30l30 7q7 2 14.5 3.5t15.5 3.5q24 -3 45 -18.5t25 -35.5q2 -14 -7 -25t-27 -20t-43.5 -16t-56.5 -12l-10.5 -108.5t-15 -114.5t-25.5 -108.5t-43 -91.5t-67 -63.5t-96 -23.5h-7q-22 1 -46.5 6t-46 15t-37 25t-19.5 36q-2 12 4.5 28.5t18 31.5
t26.5 25.5t31 9.5q17 -2 27 -14.5t18 -26.5q4 -8 13 -17t20 -14.5t22 -4.5t19 14q12 21 17 65t6.5 97.5t1.5 110.5t2 103l-59 -4q-19 5 -31.5 16t-14.5 24q-3 19 9 36.5t46 22.5z" />
    <glyph glyph-name="dagger" unicode="&#x2020;" horiz-adv-x="423" 
d="M90 79l4 29t5 34l7 40q13 63 24 135t19.5 143.5t14 137t7.5 115.5q5 5 10 9.5t12 6.5q3 1 13 4t22.5 3t26 -5t22.5 -20q0 -1 1 -2t1 -2v-4q-7 -33 -14.5 -74.5t-16 -97t-18.5 -128.5l-22 -169q-7 -46 -11 -83.5t-5.5 -69t-1 -58.5t3.5 -51q-10 -20 -29 -28
q-20 -10 -39.5 -4t-40.5 19q-4 0 -6 5q-4 6 -3.5 18.5t3 28t6 33.5t6.5 35h-1zM52 525q8 -1 17 -1t17 -1q66 -2 121.5 1t109.5 8q20 -6 36 -23.5t15 -36.5q-2 -25 -30 -36t-75 -14t-107 0.5t-124 9.5q-17 8 -25.5 21.5t-7.5 24.5q1 18 12.5 31.5t40.5 15.5z" />
    <glyph glyph-name="daggerdbl" unicode="&#x2021;" horiz-adv-x="423" 
d="M90 79l4 29t5 34l7 40q13 63 24 135t19.5 143.5t14 137t7.5 115.5q5 5 10 9.5t12 6.5q3 1 13 4t22.5 3t26 -5t22.5 -20q0 -1 1 -2t1 -2v-4q-7 -33 -14.5 -74.5t-16 -97t-18.5 -128.5l-22 -169q-7 -46 -11 -83.5t-5.5 -69t-1 -58.5t3.5 -51q-10 -20 -29 -28
q-20 -10 -39.5 -4t-40.5 19q-4 0 -6 5q-4 6 -3.5 18.5t3 28t6 33.5t6.5 35h-1zM52 525q8 -1 17 -1t17 -1q66 -2 121.5 1t109.5 8q18 -6 35 -23.5t16 -36.5q-2 -25 -30 -36t-75 -14t-107 0.5t-124 9.5q-17 8 -25.5 21.5t-7.5 24.5q1 18 12.5 31.5t40.5 15.5zM47 345
q21 -2 42.5 -1.5t41.5 -1.5q49 0 93 2.5t87 7.5q21 -6 37 -23.5t15 -36.5q-2 -25 -30 -36t-75 -14t-107.5 0.5t-123.5 9.5q-17 8 -25.5 21.5t-7.5 24.5q1 18 12.5 31.5t40.5 15.5z" />
    <glyph glyph-name="OE" unicode="&#x152;" horiz-adv-x="1185" 
d="M19 184q-20 118 12.5 219t104.5 173.5t175.5 110t225.5 28.5q61 -5 107 -20t79 -44t53.5 -72.5t31.5 -103.5q13 -75 0.5 -143t-44 -126.5t-79 -106t-105 -81t-121 -51.5t-127.5 -18q-51 0 -103 16t-95.5 46t-74 73.5t-40.5 99.5zM565 217q23 51 42.5 110t18.5 122
q0 22 -4.5 52.5t-21.5 57t-50 43.5t-89 13q-49 -4 -95.5 -38t-82 -86t-56.5 -115.5t-18 -126.5q3 -51 16 -86t34 -57.5t48.5 -32.5t59.5 -10t61.5 13t55.5 34t46.5 49t34.5 58zM626 614q-2 30 15.5 51.5t50.5 35t80 19.5t104 6q114 0 189.5 -8.5t95.5 -38.5q4 -23 0 -47
t-15 -44.5t-27 -36t-36 -21.5q-58 8 -105.5 11.5t-91.5 3.5h-14l-14 -30q-12 -23 -21 -49.5t-17 -54.5q55 3 91.5 4t61.5 1q41 0 64 -7t26 -25q6 -35 -4 -60.5t-25 -42t-29 -24.5t-15 -8q-32 0 -61.5 6t-62.5 6h-40t-34 -1q-4 -35 -5 -68t1 -64q33 3 69 3q94 0 156 -7
t79 -32q3 -19 0 -39t-12 -37t-22.5 -29.5t-29.5 -17.5q-49 7 -86.5 9.5t-75.5 2.5t-76 -4t-72 -4q-14 0 -24.5 1.5t-20.5 3.5q-17 4 -27 15q-11 11 -17 29.5t-11 45.5q-7 39 -7.5 83.5t4 89.5t12 89t16.5 83t17.5 70.5t15.5 52.5q-18 0 -28 10t-14.5 23t-6 26t-1.5 19z" />
    <glyph glyph-name="oe" unicode="&#x153;" horiz-adv-x="686" 
d="M694 219q2 2 6 3t7 1q22 0 33.5 -13t14.5 -31q-16 -30 -44 -63.5t-66 -62t-86 -47.5t-103 -19q-39 0 -73 10.5t-61 30t-45.5 47t-25.5 60.5q-11 46 -6.5 92t26.5 84q26 48 82 78.5t145 30.5q64 0 95 -25t39 -68q6 -32 -8 -62t-42 -54.5t-68.5 -41.5t-88.5 -21
q9 -25 26 -40t46 -17q60 1 109.5 38t87.5 90zM416 222q16 2 26 6q35 13 50 38.5t11 45.5q-2 9 -5.5 15.5t-13.5 6.5q-12 0 -24 -9t-22 -24t-16 -35.5t-6 -43.5zM351 112q-16 -25 -39 -48t-50 -40t-57 -27.5t-59 -10.5q-30 0 -59 9.5t-53 27t-40.5 41t-21.5 51.5
q-9 51 6 104.5t46 97t74.5 71.5t91.5 28q15 0 30.5 -4t26.5 -12q15 3 29 3q25 0 43.5 -8.5t32 -23t22 -33t13.5 -38.5q5 -28 3.5 -55t-11.5 -59q17 8 22.5 4.5t3.5 -12.5t-9.5 -22t-16.5 -24t-17 -17.5t-11 -2.5zM175 93q38 2 55 33.5t11 83.5q-6 6 -12 21.5t-10.5 33t-7 34
t-2.5 25.5q-18 -13 -34 -32t-27.5 -41.5t-17 -46t-1.5 -45.5q2 -9 5 -20.5t8 -21.5t13 -17t20 -7zM259 324q-2 8 -4 17t-13 5q-2 -2 -1.5 -5.5t3.5 -5.5q2 -2 6.5 -5t8.5 -6z" />
    <glyph glyph-name="trademark" unicode="&#x2122;" horiz-adv-x="666" 
d="M3 567q-17 0 -27.5 4t-12.5 15q-4 22 2.5 35.5t20.5 21t33.5 10t42.5 2.5q48 0 82 -6t37 -22q1 -9 0 -19.5t-5.5 -19.5t-13 -15.5t-20.5 -6.5l-34 2q-8 -17 -13 -38t-8 -42.5t-3 -41.5t3 -36q3 -26 -2.5 -35t-31.5 -9q-29 0 -37 19q-5 8 -8 27q-3 18 -3 39t2 42t5.5 40.5
t7.5 33.5h-17zM185 432q12 75 17.5 117.5t11.5 64t14.5 27t25.5 5.5q6 0 14.5 -4.5t16 -11t13.5 -14t7 -13.5q2 -6 -3 -11q9 -23 18.5 -38t18.5 -27l10 14q17 22 43 43.5t50 50.5q10 11 30 11q4 0 11 -2.5t14.5 -7.5t14 -12t9.5 -17q2 -5 -0.5 -12.5t-5.5 -15.5
q-5 -14 -9.5 -32.5t-8 -38.5t-6 -40.5t-2.5 -38.5q0 -14 0.5 -26.5t-1.5 -21.5t-9 -14.5t-20 -5.5q-21 0 -34 11t-18 37q-4 22 -4 45t2 46l-14 -20q-5 -6 -8 -14.5t-7.5 -16.5t-11.5 -13.5t-20 -5.5q-14 0 -32.5 20t-33.5 49q-4 -22 -3.5 -46.5t-1.5 -44.5t-8.5 -33.5
t-23.5 -13.5q-28 0 -39.5 16.5t-16.5 54.5z" />
    <glyph glyph-name="bullet" unicode="&#x2022;" horiz-adv-x="509" 
d="M365 194q4 -20 0.5 -38.5t-14.5 -32.5t-31.5 -22.5t-50.5 -8.5q-14 0 -26 1.5t-24 3.5q-47 9 -75.5 32t-33.5 51q-5 24 2.5 47t23 40t37.5 27.5t47 10.5q29 0 54 -9t44 -24.5t31 -35.5t16 -42z" />
    <glyph glyph-name="questiondown" unicode="&#xbf;" horiz-adv-x="506" 
d="M379.009 471.999q31.998 0 60.9971 -13.999q28.998 -13.999 44.9971 -38.998q7.99902 -12.999 10.999 -26.998q2 -13.999 -4 -27.498q-5.99902 -13.5 -18.498 -23.999q-12.5 -10.499 -29.499 -16.999q-16.999 -6.49902 -36.9971 -6.49902q-38.998 0 -61.9961 16.999
q-22.999 16.998 -27.999 41.9971q-6.99902 41.9971 8.5 68.9961q15.499 26.998 53.4961 26.998zM252.017 -67.9678q-1.99902 12.999 5 24.998q7 11.999 19.999 20.999q12.999 8.99902 30.998 14.499t36.998 6.49902q20.998 -1.99902 38.9971 -13.499
q17.999 -11.499 32.998 -28.998t24.999 -38.9971q9.99902 -21.499 13.999 -43.498q3.99902 -27.998 -7.5 -54.4961q-11.499 -26.499 -35.998 -46.9971q-24.498 -20.499 -61.4961 -32.498q-36.9971 -12 -83.9951 -12q-114.992 0 -175.989 48.4971
q-60.9961 48.4971 -73.9951 127.492q-6 35.998 3 63.9961q8.99902 27.999 34.998 56.4971q25.998 28.498 70.4951 60.4961l108.493 75.9951q16 12 27.499 24.999t20.499 26.998q7.99902 9.99902 12.999 20.999q4.99902 10.999 11.499 19.999q6.5 8.99902 15.499 14.499
q8.99902 5.49902 24.998 5.49902q11 0 24.499 -3.99902q13.499 -4 25.498 -12q12 -7.99902 21.499 -18.998q9.49902 -11 11.499 -24.999q3 -18.999 -4.99902 -36.998q-8 -17.999 -23.999 -35.4971q-15.999 -17.499 -36.998 -34.998l-43.9971 -35.498l-55.4961 -40.9971
q-26.499 -19.999 -45.998 -39.498q-19.498 -19.499 -30.498 -38.498q-10.999 -18.998 -8.99902 -37.9971q2 -8 6 -17.999q3.99902 -9.99902 10.999 -18.999q6.99902 -8.99902 16.499 -14.999q9.49902 -6 22.498 -6q16.999 0 32.498 11.5q15.499 11.499 12.5 28.498
q-1 5 -5 9.49902q-4 4.5 -8.5 9l-8.99902 8.99902q-4.5 4.5 -5.5 8.5z" />
    <glyph glyph-name="exclamdown" unicode="&#xa1;" horiz-adv-x="362" 
d="M203.01 471.999q15.998 0 32.9971 -4.5q16.999 -4.49902 31.498 -13.499q14.5 -8.99902 24.999 -22.498q10.499 -13.5 11.499 -31.498q3 -32.998 -22.998 -56.4971q-25.999 -23.499 -77.9951 -23.499q-32.998 0 -51.4971 14q-18.499 13.999 -23.499 37.9971
q-3 17.999 1 35.498t13.499 31.998q9.5 14.499 24.999 23.499q15.499 8.99902 35.498 8.99902zM186.011 -172.962q-14 -24.998 -27.499 -43.9971t-28.998 -30.998t-33.998 -16.999t-42.4971 -3q-5 1 -13.999 3q-9 2 -18.999 7q-20.999 8.99902 -42.4971 24.998
q-21.499 15.999 -23.499 36.998q-2 7.99902 6 20.499q7.99902 12.499 18.999 26.498q25.998 35.998 48.4961 79.4951q22.499 43.4971 39.998 89.4941t30.498 92.9941t19.999 89.9951q2 19.999 2.5 35.498t4.99902 25.998q4.5 10.499 15.999 15.499q11.5 5 33.498 3
q27.999 -2 46.4971 -10.999q18.499 -9 29.498 -26.999q12 -16.999 13 -46.9971q1 -44.9971 -5 -97.4941q-6 -52.4961 -16.499 -102.993t-24.998 -94.9941q-14.499 -44.498 -31.498 -75.4961z" />
    <glyph glyph-name="cent" unicode="&#xa2;" horiz-adv-x="451" 
d="M173 288q-2 10 1.5 17.5t14.5 18.5l42 41q-8 10 -19 10q-21 0 -38.5 -13t-28.5 -37t-14.5 -59t3.5 -78q11 -45 31.5 -69.5t56.5 -26.5q28 0 45 3t30.5 13t25.5 28t30 49q2 7 6.5 10t8.5 3q12 0 23 -14t13 -24q4 -21 -2 -46.5t-24 -50.5t-49 -47.5t-77 -37.5
q-10 -4 -20 -5.5t-21 -3.5q-3 -19 -2 -44t0.5 -47t-5.5 -37.5t-20 -15.5q-17 0 -29 8t-19.5 20.5t-10.5 27t-1 28.5q0 15 2 30.5t5 32.5q-110 21 -146 139q-8 25 -12 52q-9 53 0.5 104.5t34.5 94t64 72.5t89 41q4 24 5.5 54.5t4.5 58.5t10 47t22 19q10 0 20.5 -4.5t19 -11.5
t14.5 -16t8 -19q4 -21 2 -51.5t-11 -74.5q15 -2 32 -7.5t32 -15.5t26.5 -26t17.5 -40q5 -37 0.5 -67.5t-16 -52.5t-27.5 -34.5t-34 -12.5q-14 0 -32 4t-35.5 12.5t-30.5 21t-16 29.5z" />
    <glyph glyph-name="copyright" unicode="&#xa9;" horiz-adv-x="795" 
d="M688 276q15 -83 -8.5 -149.5t-75.5 -113.5t-126.5 -72t-162.5 -25q-68 0 -121.5 16t-92.5 44.5t-62.5 68t-31.5 85.5q-14 78 4.5 148t64 123t115.5 84.5t159 31.5q156 0 237 -63t101 -178zM85 208q-1 -14 0.5 -28t3.5 -28q9 -49 32 -80.5t56 -50t74 -25.5t85 -7
q65 0 120.5 21t94 58.5t56 90.5t6.5 117q-15 84 -80 133.5t-182 49.5q-58 0 -106.5 -20t-84 -54t-55 -79.5t-20.5 -97.5zM546 157q-21 -36 -66 -69.5t-115 -42.5q-26 -3 -51 -3q-76 5 -116 36.5t-47 70.5q-8 45 2.5 90t39 81t73.5 59t106 24q53 -3 82.5 -24.5t36.5 -53.5
q2 -15 -3 -30t-17 -28t-30.5 -22t-42.5 -10q-27 0 -40 9.5t-15 20.5q-3 14 4 21.5t15.5 11.5t16 6.5t6.5 7.5q-2 11 -11 11q-19 0 -35 -8q-29 -16 -39 -53t-3 -76q5 -26 22.5 -41t46.5 -15q22 0 41 7t34.5 17.5t28.5 24t22 26.5q6 8 18 7.5t23 -7.5t16.5 -19.5t-3.5 -28.5z
" />
    <glyph glyph-name="registered" unicode="&#xae;" horiz-adv-x="817" 
d="M227 410q2 9 4.5 15.5t5.5 13.5q-14 10 -15 26q-7 37 8.5 47.5t50.5 11.5q8 0 15 -0.5t15 -0.5h35q68 0 104 -20.5t42 -54.5q3 -18 -1.5 -39t-16 -40t-29.5 -34.5t-41 -22.5q14 -12 23.5 -26t22.5 -31l-1 1l10 -14q6 -14 12 -14q2 0 6 6t11 12.5t16 12.5t21 6
q10 0 14 -4.5t5 -9.5q2 -11 -5 -27.5t-21 -31.5t-34.5 -26t-45.5 -11q-29 0 -43.5 11t-25.5 34v-1q-9 14 -15 27.5t-12 25.5t-13 22t-19 17q-5 -30 -5.5 -55t-2.5 -44t-8.5 -29.5t-22.5 -10.5q-28 0 -38 13t-15 39q-5 25 -6 53t0.5 56t5.5 53t9 44zM348 348q19 8 28.5 27
t9.5 38v-1q-2 11 -10.5 19.5t-29.5 9.5q2 -9 -1.5 -21t-8.5 -26l-9 -23l-4 -12t-4 -13h10q9 0 20 3zM692 391q15 -83 -8.5 -149.5t-75.5 -113.5t-126.5 -72t-162.5 -25q-68 0 -121.5 16t-92.5 44.5t-63 68t-32 85.5q-13 78 5.5 148t64 123t115.5 84.5t159 31.5
q156 0 237 -63t101 -178zM89 323q-3 -66 17.5 -108.5t56.5 -67t82.5 -34t94.5 -9.5q65 0 120.5 21t94 58.5t56 90.5t6.5 117q-15 84 -80.5 133.5t-182.5 49.5q-58 0 -106.5 -20t-83.5 -54t-54.5 -79.5t-20.5 -97.5z" />
    <glyph glyph-name="ordfeminine" unicode="&#xaa;" horiz-adv-x="504" 
d="M248 593l6 2t7 2q13 3 30 1t33.5 -7.5t29.5 -15t18 -22.5q0 -1 -0.5 -11.5t-3.5 -33t-10 -58.5t-21 -88q6 0 14 5.5t16 13.5q9 8 17.5 14t16.5 6q11 0 16.5 -7.5t7.5 -15.5q3 -17 -5 -37q-11 -29 -44 -53t-88 -24q-29 0 -42 7.5t-22 29.5q-17 -20 -39 -30.5t-42 -12.5
q-42 0 -71.5 21.5t-37.5 71.5q-7 39 9 79t45.5 73t66 53.5t69.5 20.5h18zM231 488q2 4 4 15q-14 -6 -26 -20t-20.5 -31t-12.5 -35.5t-2 -34.5q3 -13 8 -13q7 0 16 2.5t16 7.5q0 3 0.5 6.5t0.5 6.5z" />
    <glyph glyph-name="logicalnot" unicode="&#xac;" horiz-adv-x="631" 
d="M388 207h-334q-8 2 -11.5 7t-4.5 9q-1 6 -2 15.5t0 18.5t3.5 15.5t8.5 6.5h367q19 0 29.5 -0.5t16 -4.5t7 -13.5t1.5 -26.5l2 -95v-22.5t-3 -13t-11.5 -6.5t-25.5 -2q-14 0 -29.5 1t-17.5 13z" />
    <glyph glyph-name="plusminus" unicode="&#xb1;" horiz-adv-x="553" 
d="M248 153q-6 -5 -17 -8t-22 -3q-20 0 -34 13t-19 39q-2 9 -0.5 30.5t6.5 38.5q-32 0 -63.5 0.5t-57.5 1.5q-11 6 -16 14.5t-7 16.5q-4 23 11 33.5t39.5 14.5t53.5 3.5t52 1.5q4 29 7 61.5t4 55.5q8 8 19.5 11t24.5 3q24 0 39 -7.5t20 -35.5q3 -15 2 -34t-6 -49
q61 1 113 11q17 -6 25 -17t10 -22q2 -13 -9 -24t-32.5 -19t-52.5 -13.5t-68 -6.5zM211 78l48 2t44.5 2.5t43.5 4t45 7.5q30 -9 36 -39q4 -23 -10 -36t-39 -19.5t-57.5 -8t-66.5 -1.5q-14 0 -31 1t-34 1q-9 0 -18.5 -0.5t-19.5 -0.5q-29 0 -55.5 5t-31.5 28q-1 7 2.5 15
t10.5 15t17 12.5t21 6.5z" />
    <glyph glyph-name="divide" unicode="&#xf7;" horiz-adv-x="533" 
d="M288 73q4 -26 -13 -43.5t-52 -17.5q-32 0 -56.5 18t-28.5 42q-2 9 1 19.5t11 20t21.5 15.5t34.5 6q32 0 54.5 -18t27.5 -42zM247 325q-31 2 -55.5 18t-29.5 43q-1 6 1 16.5t9 20t20 17t34 7.5q34 0 58.5 -18t29.5 -47q3 -18 -13.5 -37.5t-53.5 -19.5zM294 196h-57.5
t-72 0.5l-72 1t-56.5 0.5q-11 5 -16 13.5t-7 15.5q-2 16 9.5 29.5t29.5 16.5q4 0 6 -1q127 4 216.5 11t157.5 18q30 -9 35 -38q4 -24 -9.5 -37t-38.5 -20t-58 -8.5t-67 -1.5z" />
    <glyph glyph-name="multiply" unicode="&#xd7;" horiz-adv-x="494" 
d="M118 81q-21 1 -35.5 14.5t-16.5 28.5q-2 11 5.5 23t21 24.5t30.5 25l34 24.5l16 13l-39 55l-38 51q-2 18 15 32t37 14q29 0 51.5 -26t48.5 -67l23 19q49 38 82 67q26 -1 44.5 -17t22.5 -37q-5 -22 -29 -45.5t-59 -50.5l-28 -22l34 -55q8 -14 16 -26.5t15 -21.5
q0 -15 -15 -26.5t-32 -12.5q-26 2 -51 28.5t-42 58.5l-33 -21l-31 -20z" />
    <glyph glyph-name="threequarters" unicode="&#xbe;" horiz-adv-x="945" 
d="M1998.44 -28.3516q3.67285 -6.48047 5.96875 -13.3662t2.2959 -15.7959q0 -4.86133 -2.75488 -14.582t-10.1025 -19.4414q-7.34668 -9.7207 -20.2041 -17.0107t-33.0625 -7.29004q-15.6133 0 -27.5518 5.26465q-11.9395 5.26562 -20.6641 13.3662t-13.3174 18.6309
q-4.5918 10.5312 -4.5918 21.0625q0 26.7314 20.6641 42.5273q20.6641 15.7969 45.4609 15.7969q21.123 0 35.8174 -8.91113t22.042 -20.251zM1361.07 -28.3516q3.67383 -6.48047 5.96973 -13.3662t2.2959 -15.7959q0 -25.9219 -19.7461 -42.123
q-19.7451 -16.2012 -46.3789 -16.2012q-15.6123 0 -28.0107 5.26465q-12.3984 5.26562 -20.6641 13.7715q-8.26562 8.50488 -12.8574 18.6309t-4.5918 20.6572q0 14.5801 5.96973 25.5166q5.96875 10.9355 15.6123 18.2256q9.64355 7.29102 21.582 10.9365
q11.9395 3.64551 22.96 3.64551q21.123 0 35.8174 -8.91113t22.042 -20.251zM2140.79 -0.810547q1.83691 0 2.2959 0.405273t2.29688 0.405273h23.877v-115.028h-23.877v84.2461q-0.918945 -1.62012 -0.918945 -2.83496t-0.918945 -2.83594l-17.4492 -39.6924
t-18.3672 -38.8828h-22.042l-33.9814 72.9053q-1.83594 3.24023 -1.83594 5.66992l-1.83691 4.86133v-83.4365h-23.8779v115.028h22.96q8.26465 0 13.7754 -5.66992l2.75488 -3.24023l7.34766 -17.417q3.67383 -8.50488 8.26562 -17.416l15.6133 -34.833
q1.83594 -1.61914 1.83594 -7.29004v-0.80957q0 1.61914 0.917969 4.0498q0.918945 2.43066 0.918945 4.0498l4.5918 8.10156l26.6338 61.5645q3.67383 5.66992 11.0205 8.09961zM1478.62 0h23.8779v-115.028h-22.041l-62.4512 76.9561q-0.918945 0.80957 -0.918945 1.21484
q0 0.404297 -0.917969 1.21484l-1.83691 3.24023q-1.83691 1.62012 -1.83691 2.42969l-1.83594 2.43066v-87.4863h-23.8789v115.028h21.123q10.1025 0 19.7461 -12.9609l19.7451 -25.9219l27.5518 -33.2129q3.67383 -6.48047 3.67383 -8.91016v81.0059zM1083.71 0
l56.9404 -115.028h-14.6943q-9.18359 0 -15.6133 8.91113l-7.34668 15.3906h-59.6963l-7.34668 -15.3906q-1.83691 -3.24023 -5.96973 -6.07617q-4.13281 -2.83496 -9.64258 -2.83496h-14.6953l56.9414 115.028h21.123zM1860.68 162.012q-4.5918 -8.91016 -13.7764 -19.4414
q-9.18359 -10.5312 -32.1436 -10.5312q-18.3682 0 -32.6035 10.9365q-14.2344 10.9355 -14.2344 29.5674q0 13.7705 11.4795 27.9463q11.4795 14.1768 35.3584 14.1768q18.3682 0 32.6035 -11.3418q14.2344 -11.3398 14.2344 -30.7812q0 -6.48047 -0.917969 -10.5312z
M724.62 0h96.4316v-9.7207q0 -4.05078 -0.918945 -5.66992l-2.75488 -4.86133l-64.2881 -76.1445q0.918945 0 1.83691 0.80957q0.918945 0.80957 3.67383 0.80957h61.5322v-20.251h-99.1865v6.48047q0 6.48047 2.75488 10.5303l2.75586 4.86133
q2.75488 2.42969 3.67285 4.0498l56.9404 68.8545h-62.4502v20.252zM1183.82 162.012q-4.5918 -10.5312 -14.2344 -20.252q-9.64355 -9.7207 -30.7666 -9.7207q-18.3682 0 -33.0625 11.3418q-14.6943 11.3398 -14.6943 29.1621q0 17.0107 14.2354 29.5664
q14.2354 12.5566 33.5215 12.5566q20.2051 0 33.5215 -12.5566q13.3164 -12.5557 13.3164 -29.5664q0 -2.43066 -0.458984 -4.86133q-0.458984 -2.42969 -1.37793 -5.66992zM836.664 0h83.5742v-20.252h-59.6963v-26.7314h48.6758v-20.251h-48.6758v-27.543h59.6963v-20.251
h-83.5742v115.028zM1784.45 -30.7822q-5.51074 -5.6709 -9.18457 -12.5557q-3.67383 -6.88574 -3.67383 -14.1758q0 -15.3916 12.8584 -26.3271q12.8574 -10.9365 30.3066 -10.9365q11.9395 0 17.9082 4.45605q5.96973 4.45508 15.1543 4.45508q7.34668 0 12.8574 -4.86035
l4.5918 -4.05078q-10.1025 -11.3398 -23.4189 -16.2012q-13.3174 -4.85938 -27.0928 -4.85938q-30.3066 0 -48.2158 18.2256q-17.9092 18.2266 -17.9092 40.0986q0 21.8711 17.9092 40.0977t48.2158 18.2266q12.8574 0 26.6338 -5.26562q13.7754 -5.26562 23.8779 -15.7969
l-4.5918 -4.85938q-4.5918 -4.05078 -12.8574 -4.05078q-7.34766 0 -15.1543 4.45508q-7.80566 4.45508 -17.9082 4.45508q-8.26562 0 -16.0723 -3.24023t-14.2344 -7.29004zM1695.36 -59.1348q8.26562 -6.48047 8.26562 -20.251q0 -17.8213 -15.1533 -27.1367
q-15.1543 -9.31543 -30.7666 -9.31543q-18.3682 0 -28.4697 8.50488q-10.1025 8.50586 -14.6953 16.6064q1.83789 0.810547 3.21484 1.62012q1.37793 0.80957 3.21484 1.62012l3.67285 0.810547q1.83691 0 2.2959 0.404297q0.459961 0.405273 2.29688 0.405273
q9.18359 0 14.2344 -4.45508q5.05176 -4.45605 14.2354 -4.45605q4.5918 0 7.34766 0.810547l7.34668 2.42969q8.26562 5.6709 8.26562 12.1514q0 5.6709 -8.26562 9.7207q-7.34668 4.0498 -16.0723 6.48047q-8.72461 2.43066 -16.5303 6.0752
q-7.80664 3.64551 -13.3174 9.7207q-5.50977 6.07617 -5.50977 16.6064q0 17.0107 13.7754 24.3018q13.7764 7.29102 26.6338 7.29102q9.18359 0 19.2861 -4.86133q10.1025 -4.85938 17.4492 -13.7705l-4.5918 -3.24023q-7.34668 -4.0498 -13.7754 -4.0498h-2.75586
q-3.67383 0.80957 -7.34668 2.83496q-3.67383 2.02441 -8.26562 2.02441q-16.5312 0 -16.5312 -10.5303q0 -4.86035 3.67383 -6.88574q3.67285 -2.02539 8.26562 -3.64453l15.6123 -4.86133q15.6133 -4.0498 22.96 -12.9609zM1627.4 38.8828
q-5.51074 5.66992 -9.18457 12.5557t-3.67383 14.1768q0 17.0107 13.7764 27.541q13.7764 10.5312 29.3887 10.5312q18.3682 0 30.7666 -11.7461t12.3984 -26.3262q0 -18.6318 -13.7764 -27.9473q-13.7764 -9.31641 -29.3887 -9.31641q-18.3682 0 -30.3066 10.5312z
M2050.78 38.8828q-11.9385 -10.5312 -30.3066 -10.5312q-17.4492 0 -30.3066 10.5312q-12.8584 10.5312 -12.8584 26.7324q0 11.3398 11.0215 24.7061q11.0205 13.3662 32.1436 13.3662q15.6123 0 29.3887 -10.126q13.7754 -10.126 13.7754 -27.9463
q0 -15.3916 -12.8574 -26.7324zM1980.07 -72.0957q1.83691 4.05078 2.75488 7.29102t0.917969 7.29102q0 17.0107 -13.7754 27.1367q-13.7764 10.125 -29.3887 10.125q-15.6133 0 -28.9297 -10.5303t-13.3164 -26.7314t12.8574 -26.7324t29.3887 -10.5312
q14.6943 0 23.8779 6.07617q9.18457 6.0752 15.6133 16.6055zM1342.7 -72.0957q1.83691 4.05078 2.75488 7.29102q0.918945 3.24023 0.918945 7.29102q0 16.2012 -12.8574 26.7314q-12.8584 10.5303 -30.3076 10.5303q-15.6123 0 -28.9297 -10.125
q-13.3164 -10.126 -13.3164 -27.1367q0 -16.2012 12.8574 -26.7324t29.3887 -10.5312q27.5518 0 39.4912 22.6816zM1146.16 0h82.6553v-20.252h-59.6963v-29.1621h50.5117v-20.251h-50.5117v-45.3633h-22.959v115.028zM1513.52 0h100.105v-20.252h-38.5723v-94.7764
h-23.8789v94.7764h-37.6543v20.252zM1024.94 -20.252h-37.6543v-94.7764h-23.8789v94.7764h-38.5723v20.252h100.105v-20.252zM1008.4 132.85q-9.18457 0 -11.0205 4.86035l-23.8789 28.3525h-13.7754v-33.2129h-12.8584v81.0059h33.0625q11.0215 0 18.8271 -6.88574
q7.80664 -6.88574 7.80664 -17.416q0 -16.2012 -18.3682 -21.8721l28.4707 -34.832h-8.26562zM1839.55 194.414q-10.1025 8.91016 -24.7969 8.91016q-12.8574 0 -23.4189 -8.50488q-10.5615 -8.50586 -10.5615 -22.2764q0 -8.91113 8.26562 -19.4414
q8.26562 -10.5312 25.7148 -10.5312q13.7754 0 24.3379 8.91016q10.5605 8.91113 10.5605 21.0625q0 14.5801 -10.1016 21.8711zM1162.69 194.414q-8.26562 8.91016 -23.8779 8.91016q-12.8574 0 -23.8789 -8.50488q-11.0205 -8.50586 -11.0205 -22.2764
q0 -8.91113 8.26562 -19.4414q8.26562 -10.5312 26.6338 -10.5312q12.8574 0 23.4189 8.50586t10.5615 21.4668t-10.1025 21.8711zM1374.84 132.85q-6.42871 0 -9.18359 4.86035l-6.42871 12.9609h-46.8379l-6.42871 -12.9609q-2.75586 -4.86035 -9.18457 -4.86035h-7.34668
l40.4092 81.0059h11.9395l40.4092 -81.0059h-7.34766zM858.705 178.213q-2.75488 -6.48047 -9.64258 -10.9355t-16.9902 -4.45508h-20.2051v-29.9727h-11.9395v81.0059h32.1445q12.8574 0 21.123 -8.10059t8.26562 -17.8213q0 -4.86035 -2.75586 -9.7207zM2020.48 36.4531
q15.6123 0 24.3379 8.91016q8.72461 8.91016 8.72461 20.252q0 14.5801 -10.5615 21.8711t-22.501 7.29102q-12.8574 0 -22.96 -8.10156q-10.1025 -8.09961 -10.1025 -21.0605q0 -8.91113 8.26562 -19.0371q8.26562 -10.125 24.7969 -10.125zM1627.4 76.9551
q-2.75586 -4.85938 -2.75586 -11.3398q0 -12.1514 9.64355 -20.6572q9.64258 -8.50488 23.4189 -8.50488q16.5312 0 24.7969 9.31543t8.26562 19.8467q0 11.3398 -8.72461 20.251q-8.72559 8.91113 -24.3379 8.91113q-9.18359 0 -17.4492 -4.05078t-12.8574 -13.7715z
M1280.25 132.85h-10.1025l-52.3477 63.1846q-0.918945 0.80957 -1.83691 3.24023v-66.4248h-12.8584v81.0059h9.18457q6.42871 0 9.18359 -3.24023l44.083 -54.2734q1.83691 -3.24023 1.83691 -5.6709v63.1846h12.8574v-81.0059zM1957.11 132.85h-11.0215l-52.3477 63.1846
q-0.918945 0 -0.918945 3.24023l-0.917969 1.62012v-68.0449h-12.8584v81.0059h9.18457q5.51074 0 9.18359 -3.24023l44.083 -54.2734q1.83691 -1.62109 1.83691 -2.83594t0.918945 -2.83496v63.1846h12.8574v-81.0059zM1487.81 63.1846
q-1.83691 -0.80957 -7.34668 -2.43066l27.5518 -31.5918h-5.51074q-7.34668 0 -10.1025 4.05078l-22.959 27.541h-14.6953v-31.5918h-9.18359v73.7148h29.3887q11.0205 0 17.4492 -6.88477q6.42969 -6.88574 6.42969 -14.1758q0 -6.48047 -3.21484 -10.9365
q-3.21484 -4.45508 -7.80664 -7.69531zM1955.27 68.0449q-4.5918 -5.66992 -12.8574 -7.29102l26.6338 -31.5918h-5.51074q-7.34766 0 -9.18457 4.05078l-22.959 27.541h-15.6133v-31.5918h-9.18359v73.7148h29.3887q11.0205 0 17.9082 -6.48047
q6.88867 -6.48047 6.88867 -14.5801q0 -8.91113 -5.51074 -13.7715zM2157.32 101.258q3.67383 1.61914 4.5918 1.61914h7.34668v-73.7148h-9.18359v60.7539l-0.917969 -1.61914v-0.810547v-0.810547l-8.26562 -16.2012q-3.67383 -8.09961 -7.80664 -14.9854
t-5.96875 -13.3662l-7.34766 -12.9609h-9.18359q-4.5918 6.48047 -7.80664 13.7715q-3.21484 7.29004 -6.88867 14.5801l-14.6934 29.1621v0.810547q0 0.810547 -0.458984 0.810547q-0.459961 0 -0.459961 0.80957v-59.9443h-9.18457v73.7148h7.34766
q1.83691 0 4.5918 -1.61914q2.75586 -1.62109 2.75586 -3.24023l28.4707 -56.7051v-1.61914q0 -0.810547 0.917969 -0.810547q0 0.810547 0.458984 1.62012t0.458984 1.62012l28.4707 55.8945q0.917969 1.61914 2.75488 3.24023zM927.585 202.515h-44.083v-23.4912h35.8174
v-11.3418h-35.8174v-24.3008h44.083v-10.5312h-56.9404v81.0059h56.9404v-11.3408zM1715.57 202.515l-44.083 0.80957v-24.3008h35.8174v-11.3418h-35.8174v-24.3008h44.083v-10.5312h-56.9404v81.0059h56.9404v-11.3408zM1569.54 164.441q0 -9.7207 -4.13281 -15.7959
t-10.1025 -10.126q-5.96875 -4.0498 -12.3984 -5.66992q-6.42871 -1.62012 -10.1016 -1.62012q-18.3682 0 -27.5527 10.9355q-9.18359 10.9365 -9.18359 22.2764v49.4141h11.9395v-49.4141q0 -8.91016 7.34668 -15.3906q7.34766 -6.48047 17.4502 -6.48047
q9.18359 0 16.5312 6.0752q7.34668 6.0752 7.34668 15.7959v49.4141h12.8574v-49.4141zM1725.67 29.1621h-9.18457v73.7148h6.42871q4.5918 0 7.34766 -3.24023l43.1641 -53.4629q1.83691 -1.62109 1.83691 -4.05078v60.7539h9.18457v-73.7148h-8.26562l-49.5938 60.7539
q-0.917969 0 -0.458984 1.21582q0.458984 1.21484 -0.458984 2.02441v-63.9941zM1079.12 146.621q-10.1025 -14.582 -29.3887 -14.582q-7.34766 0 -17.4502 3.64551t-10.1025 10.126q-0.917969 0 -0.917969 1.62012l2.75488 0.80957q1.83691 1.62109 5.51074 1.62109
t6.42871 -2.43066l1.83691 -0.80957q2.75488 -4.05078 11.9395 -4.05078q4.5918 0 11.4795 3.24023t6.8877 10.5312q0 7.29004 -5.50977 9.31543q-5.51074 2.02441 -12.8574 4.45508l-9.18457 4.0498q-15.6123 5.6709 -15.6123 19.4414q0 12.9609 10.1016 17.0117
q10.1025 4.05078 17.4502 4.05078q3.67285 0 7.80566 -1.21582q4.13281 -1.21484 5.96973 -2.83496l6.42871 -4.05078q1.83691 -1.61914 2.75586 -2.02441q0.917969 -0.405273 1.83691 -2.02539l-3.67383 -1.62012q-2.75488 -2.42969 -6.42871 -2.42969
q-4.5918 0 -7.34766 2.42969q-2.75488 2.42969 -7.34668 2.42969q-3.67383 0 -5.51074 -0.80957l-5.50977 -1.62012q-3.67383 -2.42969 -3.67383 -7.29102q0 -4.0498 1.37695 -6.0752q1.37793 -2.02441 6.88867 -3.64551l8.26562 -2.42969
q1.83594 -0.810547 4.13281 -1.62012q2.2959 -0.80957 5.05078 -1.62012l3.67383 -1.62012q7.34668 -2.43066 10.5615 -8.10059q3.21387 -5.66992 3.21387 -12.1504q0 -3.24023 -1.83594 -9.7207zM1640.26 146.621q-9.18457 -14.582 -28.4707 -14.582
q-10.1025 0 -15.6123 3.24023q-5.51074 3.24023 -11.0215 8.10156l-2.75488 4.0498l3.67383 0.80957q1.83691 1.62109 4.5918 1.62109q4.5918 0 7.34766 -2.43066l0.917969 -0.80957q4.5918 -4.05078 12.8574 -4.05078q7.34766 0 12.8574 4.05078
q5.51074 4.0498 5.51074 9.7207q0 4.85938 -5.51074 9.7207l-12.8574 4.0498l-9.18359 4.0498q-16.5312 5.6709 -16.5312 19.4414q0 11.3418 9.64355 16.2012q9.64258 4.86133 18.8262 4.86133q7.34766 0 13.7764 -4.05078l6.42871 -4.05078l4.5918 -4.0498
l-3.67285 -1.62012q-2.75586 -2.42969 -6.42871 -2.42969q-4.59277 0 -8.26562 2.42969q-3.67383 2.42969 -6.42969 2.42969q-4.5918 0 -6.42773 -0.80957l-4.59277 -1.62012q-4.5918 -2.42969 -4.5918 -7.29102q0 -5.66992 9.18457 -9.7207l7.34668 -2.42969
q3.67383 -1.62012 4.5918 -1.62012l9.18457 -3.24023q7.34668 -2.43066 10.5615 -8.10059q3.21387 -5.66992 3.21387 -12.1504q0 -4.86133 -2.75488 -9.7207zM727.375 46.9834q-3.67383 3.24023 -5.05078 8.50586q-1.37793 5.26465 -1.37793 10.126
q0 16.2012 12.8574 27.1367t30.3066 10.9355q8.26562 0 16.5312 -2.83496t13.7764 -8.50586l-1.83691 -1.62012q-1.83691 -1.62012 -3.67383 -1.62012h-1.83691q-5.50977 0 -10.5615 2.83496q-5.05078 2.83594 -12.3984 2.83594q-13.7754 0 -23.8779 -8.50586
t-10.1025 -20.6562q0 -13.7715 11.0205 -21.4668q11.0215 -7.69531 22.96 -7.69531q11.0215 0 21.124 4.85938v15.3916h-6.42969q-3.67285 0 -5.96875 2.43066q-2.29688 2.42969 -2.29688 4.85938v0.810547h23.8789v-28.3516q-6.42871 -6.48047 -22.042 -8.10156h-8.26562
q-13.7754 0 -22.96 5.26562q-9.18359 5.26562 -13.7754 13.3662zM2071.91 174.162q-3.67383 -3.24023 -2.75488 -3.24023l-0.918945 -1.61914v-2.43066v-34.0225h-12.8574v36.4531q-0.917969 0.80957 -0.917969 1.61914l-2.75586 3.24023l-33.0615 39.6934h9.18457
q7.34668 0 11.0205 -5.66992l22.041 -25.9219l0.918945 -0.810547v-1.62012v0.80957q0 1.62109 0.917969 1.62109l22.041 25.9219q2.75586 5.66992 11.0215 5.66992h9.18359zM1384.03 93.9668v-23.4922h33.9805v-8.09961h-33.9805v-25.1123h41.3271v-8.10059h-50.5117
v73.7148h50.5117v-8.91016h-41.3271zM824.725 93.9668v-23.4922h33.0625v-8.09961h-33.0625v-25.1123h41.3281v-8.10059h-51.4297v73.7148l51.4297 -0.80957v-8.10059h-41.3281zM1067.18 102.877v-45.3633q0 -8.91016 6.8877 -14.9854t16.9902 -6.0752
q9.18457 0 16.9902 5.66992q7.80664 5.66992 7.80664 15.3906v45.3633h9.18359v-45.3633q0 -15.3906 -11.4795 -22.2764q-11.4805 -6.88574 -22.501 -6.88574q-13.7754 0 -23.4189 8.10156q-9.64258 8.09961 -9.64258 21.0605v45.3633h9.18359zM1322.5 29.1621
l-36.7363 73.7148h5.50977q1.83789 0 4.13281 -1.21484q2.29688 -1.21484 3.21484 -3.64453l27.5518 -55.084q0 -1.62109 0.458984 -2.43066q0.459961 -0.80957 0.459961 -1.62012v1.62012q0 0.80957 0.458984 1.21484t0.458984 1.21582l27.5518 55.084
q1.83691 4.85938 7.34766 4.85938h4.5918l-35.8174 -73.7148h-9.18359zM1443.72 132.85h-52.3486v81.0059h11.9395v-70.4746h40.4092v-10.5312zM1552.09 39.6934q5.51074 3.24023 5.51074 9.7207q0 8.91016 -11.0215 12.9609l-6.42871 1.61914
q-6.42871 1.62109 -14.2354 5.26562q-7.80566 3.64551 -7.80566 14.9863q0 7.29102 6.8877 13.3662t16.9902 6.0752q1.83691 0 3.67383 -0.405273t3.67383 -0.405273l5.50977 -2.42969q1.83691 -1.62012 2.75586 -2.02539q0.917969 -0.404297 1.83594 -1.21484
l4.5918 -3.24023l-2.75488 -1.62012q-0.917969 -1.62012 -4.5918 -1.62012q-2.75488 0 -4.5918 0.810547l-4.5918 2.42969q-1.83691 0 -2.75586 0.405273q-0.917969 0.405273 -2.75488 0.405273q-14.6943 0 -14.6943 -10.5312q0 -6.48047 8.26562 -9.7207l8.26562 -2.42969
q1.83691 -1.62109 5.51074 -2.43066q3.67285 -0.80957 6.42773 -2.43066l3.67383 -1.61914q8.26562 -7.29102 8.26562 -16.2012q0 -11.3418 -9.18359 -16.2012q-9.18359 -4.86133 -19.2861 -4.86133q-9.18457 0 -16.9902 4.45605q-7.80664 4.45508 -7.80664 8.50488
l1.83691 0.810547q0.917969 0.810547 3.67383 0.810547q4.5918 0 9.18359 -3.24023t10.1025 -3.24023q8.26562 0 12.8574 3.24023zM1001.06 93.9668v-25.1113h34.8994v-8.10156h-34.8994v-31.5918h-10.1016v73.7148h51.4297v-8.91016h-41.3281zM1855.17 93.9668v-25.1113
h34.8994v-8.10156h-34.8994v-31.5918h-9.18359v73.7148h50.5117v-8.91016h-41.3281zM902.789 29.1621v64.8047h-26.6338v8.91016h62.4512v-8.91016h-26.6338v-64.8047h-9.18359zM1151.67 102.877v-65.6143h37.6543v-8.10059h-46.8379v73.7148h9.18359zM1208.61 102.877
v-65.6143h37.6543v-8.10059h-46.8379v73.7148h9.18359zM844.012 198.465q-6.42969 4.0498 -11.9395 4.0498h-20.2051v-29.1621h20.2051q7.34668 0 11.9395 4.45508q4.5918 4.45605 4.5918 10.126q0 6.48047 -4.5918 10.5312zM1942.41 69.665q4.5918 1.62012 6.42871 4.86035
t1.83691 7.29102q0 4.85938 -3.67383 8.50488t-11.0205 3.64551h-20.2051v-25.1113h20.2051q4.5918 0 6.42871 0.80957zM1474.95 68.8555q4.5918 0 9.64355 3.24023q5.05078 3.24023 5.05078 9.7207q0 4.85938 -4.5918 8.50488t-10.1025 3.64551h-20.2051v-25.1113h20.2051z
M992.791 184.693q0.918945 1.62012 0.918945 4.86035q0 4.86035 -3.67383 8.91113q-3.67383 4.0498 -10.1025 4.0498h-20.2041v-25.1123h20.2041q3.67383 0 5.51074 0.810547l4.5918 2.42969zM1091.98 -69.665l-16.5312 34.833q-1.83691 2.42969 -1.83691 4.0498
t-0.918945 3.24023q0 -0.80957 -1.83594 -7.29004l-16.5312 -34.833h37.6543zM1595.26 102.877v-73.7148h-9.18359v73.7148h9.18359zM1335.35 197.654l-17.4502 -35.6426h35.8174l-17.4492 34.0225q0 0.80957 -0.458984 1.62012t-0.458984 2.42969v-2.42969z
M1735.77 -94.7773q3.67383 -3.24023 3.67383 -8.91016q0 -12.1504 -14.6943 -12.1504q-4.5918 0 -9.18359 2.83496q-4.59277 2.83496 -4.59277 9.31543q0 4.86035 3.67383 8.91016q3.67383 4.05078 10.1025 4.05078t11.0205 -4.05078zM766.866 386.398
q6.42871 25.9219 18.8271 56.2988t27.5518 61.1592t32.6025 59.5391q17.4502 28.7568 33.9814 51.4385q11.9385 16.2012 16.5303 27.543q4.59277 11.3398 4.59277 20.251q-0.918945 13.7705 -14.2354 19.0361l-28.9297 10.9355q-15.6123 5.6709 -28.9297 15.7969
q-13.3164 10.125 -14.2344 33.6172q0 10.5312 4.13281 21.4668q4.13184 10.9355 16.9902 22.2764q0.917969 24.3018 14.6943 40.9082q13.7754 16.6064 31.2246 17.416q5.51074 0 5.51074 -1.62012q0 -3.24023 -4.5918 -10.5312q-4.5918 -7.29004 -4.5918 -17.0107
q5.50977 2.43066 14.2344 5.26562q8.72559 2.83496 17.9092 5.26465q9.18359 2.43066 16.0723 4.05078l6.8877 1.62012q14.6943 11.3408 31.6846 18.2266t22.501 6.88574q3.67383 3.24023 5.50977 -10.5312q0 -10.5312 -1.83594 -17.0117q37.6543 -8.91016 53.7256 -25.5166
q16.0723 -16.6064 16.9902 -32.8076q1.83691 -17.0107 -11.0205 -31.9971q-12.8574 -14.9854 -30.3066 -23.8965l17.9082 -31.5928q13.3164 -23.4912 26.1738 -56.7031q10.1025 5.66992 23.4199 10.5303q13.3164 4.86035 28.0107 5.6709q22.96 0 37.6543 -12.5566
q14.6943 -12.5557 15.6123 -21.4668q0 -9.7207 -11.9385 -18.6309q-11.9395 -8.91016 -24.7969 -8.91016q-6.42871 0 -11.0205 2.83496t-9.18457 6.48047q-4.5918 3.64551 -9.18359 6.48047t-11.0205 2.83496q-2.75586 -0.810547 -6.42969 -2.02539
q-3.67285 -1.21484 -8.26465 -4.45508l5.50977 -21.8711q2.75488 -10.5312 4.59277 -21.8721q18.3672 -1.62012 28.4697 -13.7705q10.1025 -12.1514 11.0205 -17.8223q0.918945 -10.5303 -11.0205 -19.4414q-11.9395 -8.91016 -24.7969 -9.7207
q-1.83691 -14.5801 -5.51074 -28.7568l-6.8877 -27.542q-3.21387 -13.3652 -5.50977 -25.9219q-2.2959 -12.5557 -1.37793 -23.8965q0 -15.3906 4.13281 -27.9473q4.13281 -12.5557 11.4805 -23.8965q22.959 -13.7715 53.2666 -23.0869q30.3066 -9.31543 64.2881 -14.1758
q33.9805 -4.86035 69.7979 -6.0752t69.7979 0.404297q53.2666 1.62109 112.044 20.6572t121.688 46.1729t128.575 58.7295q65.666 31.5928 131.331 58.7295t131.331 46.5781q65.665 19.4414 128.115 21.8711q54.1855 2.43066 94.1367 -20.251
q39.9492 -22.6816 55.5625 -79.3857q0.917969 -4.05078 1.37695 -7.29102q0.459961 -3.24023 0.459961 -6.48047q0.917969 -12.1504 -2.2959 -18.6309q-3.21484 -6.48047 -6.88867 -9.31543t-7.34668 -3.64551q-3.67383 -0.810547 -4.59277 -0.810547
q-12.8574 -0.80957 -17.9082 7.69629q-5.05078 8.50488 -12.8574 19.0361t-22.96 18.6309q-15.1533 8.10156 -46.3789 7.29102q-38.5732 -1.62012 -93.6768 -17.416q-55.1035 -15.7969 -119.851 -39.2881l-136.382 -50.2236t-142.811 -50.2236t-137.759 -40.0977
q-66.584 -16.6064 -121.688 -18.2266q-34.8994 -1.62012 -73.0127 0.405273t-74.8496 7.29004q-36.7354 5.26562 -69.7979 13.7715q-33.0625 8.50488 -58.7773 19.8467q-8.26562 3.24023 -23.8779 1.61914q10.1016 0.810547 10.1016 0q0 -0.80957 -10.5605 -2.83496
q-10.5625 -2.02441 -28.0117 -4.0498t-40.8682 -4.05078t-49.1348 -2.83496q-33.9805 -1.62012 -69.7979 -0.80957q-35.8174 0.80957 -64.7471 5.66992t-47.7568 14.9863q-18.8262 10.125 -19.7451 26.3262q-1.83691 18.6318 2.75488 39.6934
q4.59277 21.0615 9.18457 39.6934zM1018.51 752.545q1.83691 -3.24023 7.34668 -3.24023q6.42871 0 6.42871 5.66992t-5.51074 4.86035q-8.26465 0 -8.26465 -7.29004zM979.016 717.712q0.917969 -2.43066 3.67383 -5.26562q2.75488 -2.83496 5.50977 -2.83496
q11.0205 2.42969 11.0205 11.3408q0 4.0498 -6.42871 4.0498q-6.42871 -0.80957 -10.1016 -2.02441q-3.67383 -1.21582 -3.67383 -5.26562zM891.768 729.053q0 -4.05078 3.21484 -4.86035q3.21387 -0.80957 6.8877 -0.80957q7.34766 0 7.34766 5.66992
q0 6.48047 -10.1025 6.48047q-7.34766 0 -7.34766 -6.48047zM2031.5 132.85h-52.3486v81.0059h12.8574v-70.4746h39.4912v-10.5312zM569 565q12 6 29 6q3 0 15 -2t25 -8t23.5 -17.5t10.5 -29.5q-21 -25 -45 -57l-55 -75.5l-70.5 -101.5l-90.5 -135q-35 -50 -67 -102.5
t-55 -114.5q-3 -12 -22.5 -11.5t-41 7t-37.5 17t-12 19.5q-7 3 1.5 20.5t23.5 40.5t33 47.5t32 41.5l32 45q8 12 16.5 23.5l17.5 24.5l67.5 95.5l66 97l58 91t45.5 78.5zM206 666q75 0 121 -23t65 -60q5 -8 7 -16l4 -16q5 -39 -19.5 -76.5t-89.5 -59.5q29 -19 44 -40.5
t19 -42.5q8 -47 -11 -78t-53.5 -49.5t-77 -26t-80.5 -7.5q-43 0 -75 9t-55.5 24.5t-38 36t-21.5 42.5q-3 44 26 71.5t86 27.5q12 0 25 -5.5t24.5 -13.5t19 -17t8.5 -16q1 -9 -8 -13.5t-20.5 -8.5t-20.5 -10.5t-7 -20.5q4 -19 20 -25t36 -3q15 2 31 8.5t28 15.5t19 20t5 23
q-3 17 -23.5 34.5t-75.5 34.5q-3 0 -5.5 4t-3.5 6q-2 11 1.5 22.5t11 20t18 12.5t24.5 0q21 6 38 20q26 20 39 46t11 42q-2 11 -11.5 18t-24.5 7q-23 0 -37 -7t-21 -18.5t-8.5 -26.5t1.5 -31q2 -8 5 -9.5t4 -7.5q2 -13 -16 -17.5t-36 -4.5q-39 0 -61.5 19.5t-28.5 46.5
t3.5 55t32.5 45q29 19 70.5 29t81.5 10z" />
    <glyph glyph-name="germandbls" unicode="&#xdf;" horiz-adv-x="483" 
d="M0 15q0 79 -1.5 160t2 156t14 141t34 115t63 77t101.5 28q65 0 118.5 -23.5t82.5 -57.5q19 -23 23.5 -45.5t0.5 -45.5t-14 -45.5t-22 -43.5q-15 -27 -34.5 -51t-38.5 -45l42.5 -45t44 -48.5t36 -48t18.5 -43.5q9 -50 -8 -86t-48 -57.5t-70.5 -27t-76.5 6.5t-65.5 42
t-37.5 80q-3 20 0.5 36.5t12 28.5t20.5 18.5t26 6.5q43 0 60.5 -12.5t20.5 -30.5q2 -14 2.5 -28.5t2.5 -25.5q3 -23 25 -23q16 0 21 13.5t3 32.5q-6 30 -32 56q-18 18 -45.5 36t-52 38.5t-38 44.5t-2.5 54q6 15 19 36.5t25.5 44.5t21 46.5t5.5 42.5q-3 18 -21 18
q-28 0 -43 -36t-23 -94q-6 -41 -10 -90.5l-8 -101.5t-9 -104t-13 -99.5t-20 -87.5t-30 -67q-14 -22 -33 -34t-44 -12q-32 0 -57.5 17.5t-31.5 49.5q-2 15 1 35t11 36q7 15 17 21t22 -7q15 -11 22 -7.5t9.5 13.5t2 22.5t-0.5 19.5z" />
    <glyph glyph-name="mu" unicode="&#xb5;" horiz-adv-x="504" 
d="M494 170q2 3 5 8t7 10t7.5 8.5t7.5 3.5q12 -1 23.5 -8.5t16.5 -20.5q-3 -27 -27 -58.5t-59 -59.5t-74.5 -46.5t-72.5 -18.5q-29 0 -47 7.5t-29 22.5q-10 17 -13 37q-20 -41 -44 -60.5t-48 -19.5q-21 0 -36.5 3t-33.5 14l10 -34q5 -17 9.5 -35t7.5 -34q6 -34 0 -57
t-36 -23q-36 0 -66 28q-14 14 -24 32t-15 41q-6 44 -4.5 93.5t7 97.5t14.5 92.5t18 78.5q4 27 12.5 52t22 44t32.5 30.5t44 11.5q37 0 56.5 -7t28.5 -18q7 -9 9 -22q4 -21 1.5 -35.5t-8.5 -31l-14 -38.5t-17 -57q-5 -17 -8.5 -38.5l-7.5 -47.5q1 -9 9 -9q18 0 32 14t25 36
t19.5 48.5t15 52.5t11 47.5t8.5 33.5q6 21 15 35t19.5 22t21 11.5t19.5 3.5q13 0 31 -2.5t34.5 -8t29 -14.5t14.5 -22q2 -11 -0.5 -30l-4.5 -33q-5 -24 -11.5 -45.5t-12.5 -39.5q-13 -36 -25 -61.5t-11 -43.5q4 -8 13 -8q14 0 36 14.5t57 53.5z" />
    <glyph glyph-name="section" unicode="&#xa7;" horiz-adv-x="530" 
d="M164 113q34 -29 37 -46t-10 -30q-5 -5 -8.5 -13t-0.5 -22q5 -21 21 -40t39 -19q11 0 18.5 6.5t11.5 15.5t5 19t-1 18q-3 13 -19 33.5t-38.5 45l-48.5 51.5t-49.5 54.5t-41 53t-23.5 47.5q-14 54 1 93t72 62q-11 14 -15.5 32.5t-4.5 37.5q0 25 9 52.5t28 50t48.5 37.5
t71.5 15q28 0 54 -9t46.5 -25.5t35 -38.5t20.5 -48q11 -45 -7 -70.5t-56 -25.5q-26 0 -39.5 14.5t-16.5 28.5q-2 8 1 12t7 7t7.5 6t2.5 8q0 1 -1.5 5.5t-4.5 9t-8 8t-14 3.5q-26 0 -37.5 -16t-6.5 -36q6 -28 32 -61.5l56.5 -69.5t58 -72t35.5 -68q11 -44 -2 -70.5t-38 -44.5
q16 -23 29 -58.5t9 -75.5q-2 -25 -12 -49t-30.5 -43t-54 -31t-81.5 -12q-28 0 -53 6q-31 7 -57 21.5t-46.5 34t-35 43t-21.5 48.5q-11 43 -4.5 76t25 50t46.5 15.5t59 -26.5zM298 205q-3 13 -24 39q-2 2 -9.5 11.5t-18.5 22l-23 25.5t-21.5 22t-14.5 11t-2 -7l4 -12t7 -13
q11 -17 33.5 -42.5t60.5 -63.5q5 0 7.5 0.5t0.5 6.5z" />
    <glyph glyph-name="brokenbar" unicode="&#xa6;" horiz-adv-x="454" 
d="M221 85l-15 -55q-7 -25 -10 -53.5t-8.5 -52.5t-15 -40t-29.5 -16q-19 0 -35 14t-28 36q4 23 7.5 47t8.5 48v-1q2 10 5 23t8 37t14 63.5l24 103.5q9 6 17.5 8.5t16.5 2.5q17 0 36 -15.5t29 -53.5zM196 531q5 34 9 66t9 60q14 9 34 8.5t37 -9.5t26.5 -27t3.5 -44v1l-5 -21
q-13 -48 -22.5 -102.5t-23.5 -124.5q-2 -9 -3 -17t-4.5 -13.5t-10 -9t-19.5 -3.5q-31 0 -45.5 13.5t-18.5 36.5q-2 12 3 26.5t10 27.5z" />
    <glyph glyph-name="twosuperior" unicode="&#xb2;" horiz-adv-x="444" 
d="M251 109q-14 0 -29 2.5t-34.5 5t-45.5 5t-61 2.5h-5h1h-10.5t-19.5 2q-11 1 -23.5 4.5t-23 9t-18.5 14.5t-10 21q0 15 17 25t44 21q57 22 104 54t80.5 65.5t51 63.5t14.5 49q-3 17 -11 25.5t-29 8.5q-17 0 -35 -5.5t-31.5 -15t-21 -23.5t-4.5 -30q3 -20 12 -33.5
t11 -21.5q2 -12 -9.5 -18.5t-28 -8.5t-34 -0.5t-27.5 5.5q-20 8 -36.5 24t-21.5 39q-5 27 7 56t39.5 53.5t69 40t95.5 15.5q96 0 144.5 -31.5t57.5 -83.5q6 -33 -11 -62t-50.5 -55.5t-80 -52l-98.5 -52.5q22 0 38.5 -1.5t29 -3t22.5 -3t19 -1.5q20 0 39.5 6.5t33.5 19.5
q8 8 13.5 -1.5t7.5 -17.5q5 -28 -7 -49.5t-34 -36.5t-49 -22.5t-52 -7.5z" />
    <glyph glyph-name="threesuperior" unicode="&#xb3;" horiz-adv-x="433" 
d="M234 566q75 0 121 -23t65 -60q5 -8 7 -16l4 -16q5 -39 -19.5 -76.5t-89.5 -59.5q29 -19 44 -40.5t19 -42.5q8 -47 -11 -78t-53.5 -49.5t-77 -26t-80.5 -7.5q-43 0 -75 9t-55.5 24.5t-38 36t-21.5 42.5q-3 44 26 71.5t86 27.5q12 0 25 -5.5t24.5 -13.5t19 -17t8.5 -16
q1 -9 -8 -13.5t-20.5 -8.5t-20.5 -10.5t-7 -20.5q4 -19 20 -25t36 -3q15 2 31 8.5t28 15.5t19 20t5 23q-3 17 -23.5 34.5t-75.5 34.5q-3 0 -5.5 4t-3.5 6q-2 11 1.5 22.5t11 20t18 12.5t24.5 0q21 6 38 20q26 20 39 46t11 42q-2 11 -11.5 18t-24.5 7q-23 0 -37 -7t-21 -18.5
t-8.5 -26.5t1.5 -31q2 -8 5 -9.5t4 -7.5q2 -13 -16 -17.5t-36 -4.5q-39 0 -61.5 19.5t-28.5 46.5t3.5 55t32.5 45q29 19 70.5 29t81.5 10z" />
    <glyph glyph-name="onesuperior" unicode="&#xb9;" horiz-adv-x="304" 
d="M124 129q-27 0 -46 -0.5t-32 1.5t-20 9.5t-10 24.5q20 51 31 106t34 115v-2q1 5 1 8t2 5q-5 -1 -10 -1h-10q-17 0 -26.5 8.5t-14.5 25.5q-1 2 0 4.5t2 4.5q36 35 63 66t44 65q6 7 26.5 9t43 -1t42.5 -11t25 -21v-4q-6 -26 -22 -70l-34 -97t-33.5 -111t-20.5 -111
q-2 -10 -10 -16.5t-25 -6.5z" />
    <glyph glyph-name="ordmasculine" unicode="&#xba;" horiz-adv-x="460" 
d="M335 359q-17 0 -34 7q-12 -18 -29.5 -34t-38 -28t-42 -19t-42.5 -7q-24 0 -47 7.5t-41.5 21t-31.5 32.5t-17 41q-6 39 5.5 79.5t35 73t56.5 53.5t70 21q11 0 22.5 -3t20.5 -8q5 1 9 1h10q40 0 62 -25.5t29 -57.5q2 -11 -1.5 -21l-7 -20t-4 -19.5t7.5 -20.5q3 -5 12 -1
t12 11q10 22 23 24t23.5 -7t15.5 -26t0 -33.5t-23 -29t-55 -12.5zM168 371q12 1 20.5 9.5t14 22.5t7.5 31.5t0 35.5q-6 8 -11.5 20.5t-9.5 25.5q-11 -9 -20 -21.5t-15.5 -26.5t-9 -29t-0.5 -28q2 -11 6.5 -25.5t17.5 -14.5z" />
    <glyph glyph-name="periodcentered" unicode="&#xb7;" horiz-adv-x="384" 
d="M269 230q2 -18 -2.5 -36t-14.5 -33t-25.5 -24.5t-36.5 -9.5q-44 0 -70.5 25t-31.5 57q2 36 24 54.5t73 18.5q70 -5 84 -52z" />
    <glyph glyph-name="paragraph" unicode="&#xb6;" horiz-adv-x="605" 
d="M-40 328q-10 56 0 96.5t33.5 69.5t58 46.5t73.5 25.5t79.5 8.5t76.5 -4.5q5 17 14.5 27t20 15.5t20 7t14.5 1.5q9 0 22 -3t27.5 -8t28 -13t23.5 -17q26 2 52 6l56 9q19 -6 30.5 -18.5t14.5 -27.5q4 -23 -5 -37t-29 -21.5t-48.5 -10.5t-63.5 -4q-10 -42 -16 -90t-14 -100
q-11 -77 -26 -154t-44 -139.5t-76.5 -101.5t-123.5 -39q-29 0 -60 9.5t-57.5 26t-45.5 37.5t-23 45q-3 14 6 32t24.5 34.5t36 28t41.5 12.5q17 -36 38.5 -57t44.5 -26q23 -6 40 6t28 33t15.5 47t3.5 49q-8 -1 -15 -1h-14q-33 0 -74 8t-79 30t-67.5 61t-40.5 101zM193 318
q6 -32 21 -59.5t42 -44.5q5 68 8.5 134.5t8.5 134.5l-12 2t-11 1q-25 0 -39 -15.5t-19.5 -40t-4.5 -54.5t6 -58z" />
    <glyph glyph-name="Eth" unicode="&#xd0;" horiz-adv-x="680" 
d="M352 742q79 -15 134 -56.5t88 -98.5t44 -124t1 -134q-8 -57 -31 -111t-60.5 -98t-89 -76t-115.5 -45q-20 -4 -40 -6t-41 -2q-31 0 -72.5 3t-79 11.5t-63.5 24t-26 40.5q0 16 17 24q8 4 20.5 5t29.5 1q10 0 29.5 -0.5t39.5 -0.5t37 -0.5t23 -0.5q23 0 43.5 2.5t40.5 7.5
q77 19 120.5 76t43.5 154q0 51 -15.5 101.5t-45.5 86t-75 48.5t-104 -9q-39 -8 -77.5 -18t-75.5 -10q-38 0 -56.5 7.5t-26 19t-7.5 24v22.5q-1 27 17.5 49t50 39.5t72.5 29t84.5 17.5t86.5 5t79 -8zM188 628q14 0 31.5 -6.5t34 -17t29 -24.5t16.5 -29q2 -9 -4 -25.5
t-13 -32.5q-21 -46 -37 -100.5t-27 -111.5t-16.5 -114t-5.5 -108l3.5 -42.5t-1.5 -32t-13.5 -20.5t-32.5 -7q-55 0 -81 40q-15 27 -23 66.5t-10.5 85.5t-1 95.5t6.5 97t12.5 89.5t16.5 72q19 63 43.5 94t72.5 31zM-35 318q-1 7 2.5 15.5t10 16t14 12.5t15.5 5q47 2 84 4
t69 5t61.5 7.5t61.5 10.5q17 -5 27 -17t12 -26q4 -26 -12 -40.5t-45 -21t-66 -7.5t-74 -1q-12 0 -38 1t-52 4.5t-47 11t-23 20.5z" />
    <glyph glyph-name="ae" unicode="&#xe6;" horiz-adv-x="675" 
d="M702 223q22 0 33.5 -13t14.5 -31q-16 -30 -44 -63.5t-66 -62t-86 -47.5t-103 -19q-53 0 -96 18.5t-72 52.5q-24 -29 -62.5 -53t-98.5 -24q-54 0 -91.5 27.5t-48.5 92.5q-13 71 5.5 125t56 91.5t89.5 59t107 27.5q11 2 22 2h22l18 47q6 2 14.5 3t17.5 1q18 0 31.5 -4
t22.5 -10q10 -6 15.5 -14t9.5 -17q18 4 37.5 6t42.5 2q48 0 77.5 -14t43.5 -40q5 -8 8 -18t5 -21q5 -30 -3.5 -57.5t-33.5 -51t-67 -41.5t-103 -29q11 -26 26 -40.5t46 -16.5q60 1 109.5 38t87.5 90q1 1 7 3q3 1 6 1zM183 115q12 0 31 7t31 16q-2 11 -3 22l-2 22
q-2 34 4 69.5t25 80.5q-6 0 -16 -4q-19 -8 -37.5 -27.5t-33 -45.5t-21.5 -55t-4 -56q3 -17 9.5 -23t16.5 -6zM411 222q16 2 26 6q35 13 50 38.5t11 45.5q-2 9 -5.5 15.5t-13.5 6.5q-12 0 -24 -9t-22 -24t-16 -35.5t-6 -43.5z" />
    <glyph glyph-name="egrave" unicode="&#xe8;" horiz-adv-x="418" 
d="M431 219q2 2 6 3.5t7 1.5q22 0 31.5 -11.5t6.5 -29.5q-6 -33 -31 -68t-64 -63.5t-89 -46.5t-105 -18q-39 0 -73 10.5t-60.5 30t-45 47t-25.5 60.5q-11 46 -6.5 92t25.5 84q26 48 82 78.5t145 30.5q64 0 95 -25t39 -68q6 -33 -8.5 -63.5t-43 -54.5t-68.5 -40t-87 -21
q9 -25 26 -40t46 -17q60 1 109.5 38t87.5 90zM153 222q21 1 38 10t28.5 22.5t17 29t3.5 28.5q-2 9 -5.5 15.5t-13.5 6.5q-12 0 -24 -9t-22 -24t-16 -35.5t-6 -43.5zM291 484q3 -14 -18 -14q-20 0 -47.5 5t-57.5 15t-60 24t-55 32t-42.5 39.5t-21.5 46.5q-2 11 7.5 18.5
t23.5 12.5q24 7 41.5 6t31.5 -8.5t26 -19.5t24 -26q15 -17 38.5 -33.5l47 -32.5t41.5 -32.5t21 -32.5z" />
    <glyph glyph-name="eacute" unicode="&#xe9;" horiz-adv-x="418" 
d="M431 219q2 2 6 3.5t7 1.5q22 0 31.5 -11.5t6.5 -29.5q-6 -33 -31 -68t-64 -63.5t-89 -46.5t-105 -18q-39 0 -73 10.5t-60.5 30t-45 47t-25.5 60.5q-11 46 -6.5 92t25.5 84q26 48 82 78.5t145 30.5q64 0 95 -25t39 -68q6 -33 -8.5 -63.5t-43 -54.5t-68.5 -40t-87 -21
q9 -25 26 -40t46 -17q60 1 109.5 38t87.5 90zM153 222q21 1 38 10t28.5 22.5t17 29t3.5 28.5q-2 9 -5.5 15.5t-13.5 6.5q-12 0 -24 -9t-22 -24t-16 -35.5t-6 -43.5zM383 642q6 -30 -10.5 -56.5t-45 -47t-63.5 -34.5t-67 -19l-15 -3t-20.5 -2.5t-19 2.5t-10.5 12
q-3 16 9.5 32.5t30 32.5l35.5 32.5t27 33.5l10 20.5t9 15.5q7 8 19 12.5t39 4.5q10 0 22 -2.5t22.5 -7.5t18.5 -11.5t9 -14.5z" />
    <glyph glyph-name="ecircumflex" unicode="&#xea;" horiz-adv-x="418" 
d="M431 219q2 2 6 3.5t7 1.5q22 0 31.5 -11.5t6.5 -29.5q-6 -33 -31 -68t-64 -63.5t-89 -46.5t-105 -18q-39 0 -73 10.5t-60.5 30t-45 47t-25.5 60.5q-11 46 -6.5 92t25.5 84q26 48 82 78.5t145 30.5q64 0 95 -25t39 -68q6 -33 -8.5 -63.5t-43 -54.5t-68.5 -40t-87 -21
q9 -25 26 -40t46 -17q60 1 109.5 38t87.5 90zM153 222q21 1 38 10t28.5 22.5t17 29t3.5 28.5q-2 9 -5.5 15.5t-13.5 6.5q-12 0 -24 -9t-22 -24t-16 -35.5t-6 -43.5zM378 533q2 -8 4.5 -15.5t5.5 -15.5q3 -10 -2 -16.5t-14.5 -10t-21.5 -5t-22 -1.5q-22 0 -34 13.5t-21.5 31
l-19.5 35t-28 25.5q-8 -3 -20.5 -19.5l-27.5 -35t-32 -33t-32 -12.5q-17 0 -33 11.5t-14 31.5q3 23 18.5 49.5t40 50t55 41t62.5 21.5q35 4 64 -21q22 -18 39.5 -50t32.5 -75z" />
    <glyph glyph-name="edieresis" unicode="&#xeb;" horiz-adv-x="418" 
d="M431 219q2 2 6 3.5t7 1.5q22 0 31.5 -11.5t6.5 -29.5q-6 -33 -31 -68t-64 -63.5t-89 -46.5t-105 -18q-39 0 -73 10.5t-60.5 30t-45 47t-25.5 60.5q-11 46 -6.5 92t25.5 84q26 48 82 78.5t145 30.5q64 0 95 -25t39 -68q6 -33 -8.5 -63.5t-43 -54.5t-68.5 -40t-87 -21
q9 -25 26 -40t46 -17q60 1 109.5 38t87.5 90zM153 222q21 1 38 10t28.5 22.5t17 29t3.5 28.5q-2 9 -5.5 15.5t-13.5 6.5q-12 0 -24 -9t-22 -24t-16 -35.5t-6 -43.5zM323 623q28 0 55 -12.5t43 -30.5q11 -12 14.5 -25.5t0.5 -27t-11 -26.5t-20 -22q-14 -11 -30.5 -15t-33 -1
t-32 13.5t-25.5 27.5q-12 19 -16 40t0 38.5t17.5 29t37.5 11.5zM62 536q-6 34 5.5 57t49.5 23q18 0 35 -5.5t31 -15t23.5 -21.5t11.5 -25q4 -21 -3.5 -43.5t-23.5 -36t-40.5 -13.5t-55.5 23q-26 19 -33 57z" />
    <glyph glyph-name="iacute" unicode="&#xed;" horiz-adv-x="253" 
d="M296 642q6 -30 -10.5 -56.5t-45 -47t-63.5 -34.5t-67 -19l-15 -3t-20.5 -2.5t-19 2.5t-10.5 12q-3 16 9.5 32.5t30 32.5l35.5 32.5t27 33.5l10 20.5t9 15.5q7 8 19 12.5t39 4.5q10 0 22 -2.5t22.5 -7.5t18.5 -11.5t9 -14.5zM297 171q5 -26 -17.5 -58t-57 -60.5t-74.5 -48
t-70 -19.5q-49 0 -69.5 19.5t-27.5 60.5q-4 21 -5.5 54.5t1.5 72t10.5 77.5t21.5 70t35.5 51t52.5 20q35 0 57 -8q20 -8 27.5 -18.5t9.5 -20.5q3 -11 3 -19q1 -22 -6 -41.5l-17 -48.5q-8 -24 -16.5 -57.5t-16.5 -84.5q0 -6 8 -6q19 0 48 28.5t62 64.5q3 3 8 3
q10 -1 20.5 -10t12.5 -21z" />
    <glyph glyph-name="otilde" unicode="&#xf5;" horiz-adv-x="460" 
d="M175 93q19 1 32.5 14.5t22 35t12 48t0.5 52.5q-12 12 -21.5 36t-12.5 41v1q0 1 0.5 1t0.5 2q-18 -13 -34 -32t-27.5 -41.5t-17 -46t-1.5 -45.5q2 -9 5 -20.5t8 -21.5t13 -17t20 -7zM351 112q-16 -25 -39 -48t-50 -40t-57 -27.5t-59 -10.5q-30 0 -59 9.5t-53 27t-40.5 41
t-21.5 51.5q-9 51 6 104.5t46 97t74.5 71.5t91.5 28q15 0 30.5 -4t26.5 -12q15 3 29 3q43 0 69 -24t37 -58t9.5 -71t-12.5 -64q9 -9 19 -9q17 0 33 15t29 29q6 7 11 11.5t9 4.5q16 -2 24.5 -9.5t10.5 -18.5q3 -18 -6.5 -37.5t-26 -36t-38 -27t-43.5 -10.5q-26 0 -50 14z
M218 569q13 -2 28.5 -6l32.5 -8q8 -2 16 -3.5t15 -3.5q15 -3 26 -3q25 0 33.5 3.5t10.5 8t2 8t8 3.5q17 0 31 -9.5t23 -23t13.5 -29.5t2.5 -29q-5 -26 -25 -41.5t-52 -19.5q-20 -3 -38 2t-40.5 12.5t-52 16t-72.5 13.5q-14 2 -26.5 2t-23.5 -1q-6 0 -11.5 -0.5t-10.5 -0.5
q-15 0 -20.5 13.5t-3.5 29.5q2 15 9.5 29.5t23 24.5t40 14t61.5 -2z" />
    <glyph glyph-name="uni00AD" unicode="&#xad;" horiz-adv-x="470" 
d="M150 243q51 7 96.5 14t96.5 19q19 0 33.5 -15t17.5 -32q4 -29 -20.5 -45t-66.5 -23.5t-95 -9.5t-105 -5q-14 5 -23.5 14.5t-11.5 21.5q-3 16 4 27t19 18t26.5 10.5t28.5 5.5z" />
    <glyph glyph-name="eogonek" unicode="&#x119;" horiz-adv-x="418" 
d="M431 219q2 2 6 3.5t7 1.5q22 0 31.5 -11.5t6.5 -29.5q-6 -33 -31 -68t-64 -63.5t-89 -46.5t-105 -18q-39 0 -73 10.5t-60.5 30t-45 47t-25.5 60.5q-11 46 -6.5 92t25.5 84q26 48 82 78.5t145 30.5q64 0 95 -25t39 -68q6 -33 -8.5 -63.5t-43 -54.5t-68.5 -40t-87 -21
q9 -25 26 -40t46 -17q60 1 109.5 38t87.5 90zM153 222q21 1 38 10t28.5 22.5t17 29t3.5 28.5q-2 9 -5.5 15.5t-13.5 6.5q-12 0 -24 -9t-22 -24t-16 -35.5t-6 -43.5zM156 -127q-2 13 7.5 43.5t31 62.5t55.5 58.5t81 31.5q10 0 14 -9t6 -20q2 -5 -3 -10q-37 -39 -55 -73
t-16 -48q2 -9 11.5 -11.5t21 -4t21 -5t11.5 -15.5q3 -15 -5.5 -26.5t-22.5 -19t-32 -11t-35 -3.5q-37 0 -62 18t-29 42z" />
    <glyph glyph-name="ecaron" unicode="&#x11b;" horiz-adv-x="418" 
d="M431 219q2 2 6 3.5t7 1.5q22 0 31.5 -11.5t6.5 -29.5q-6 -33 -31 -68t-64 -63.5t-89 -46.5t-105 -18q-39 0 -73 10.5t-60.5 30t-45 47t-25.5 60.5q-11 46 -6.5 92t25.5 84q26 48 82 78.5t145 30.5q64 0 95 -25t39 -68q6 -33 -8.5 -63.5t-43 -54.5t-68.5 -40t-87 -21
q9 -25 26 -40t46 -17q60 1 109.5 38t87.5 90zM153 222q21 1 38 10t28.5 22.5t17 29t3.5 28.5q-2 9 -5.5 15.5t-13.5 6.5q-12 0 -24 -9t-22 -24t-16 -35.5t-6 -43.5zM424 629q-21 -22 -42 -50t-44.5 -52.5t-50.5 -41.5t-61 -17q-9 0 -19.5 2.5t-18.5 8.5q-23 13 -43.5 37
t-35.5 48.5t-22.5 44t-5.5 24.5q8 17 25.5 32t32.5 15q22 0 34.5 -9.5t19 -23t10 -29t7.5 -28t11.5 -19.5t22.5 -3q3 1 12.5 18t24.5 37t36 36.5t48 16.5q10 0 22 -5.5t22 -13t15 -15.5t0 -13z" />
    <glyph glyph-name="hbar" unicode="&#x127;" horiz-adv-x="469" 
d="M38 454q-20 0 -38.5 6t-20.5 30q-2 26 19 34.5t57 7.5q75 -4 152 -5t145 8q30 -11 33 -41q1 -15 -9.5 -26.5t-31 -19t-48.5 -10t-61 0.5l-42 4q-19 2 -54 4t-101 7zM546 172q-3 -27 -26 -59.5t-56.5 -61.5t-72.5 -48.5t-75 -19.5q-46 0 -70.5 17t-29.5 55q-5 26 3 59
t18.5 64t20 56t7.5 36q-1 2 -2 3.5t-6 1.5q-6 0 -16 -6t-17 -17q-6 -9 -12.5 -17.5t-14 -30.5t-17 -65t-22.5 -122q-3 -17 -20 -27.5t-34 -10.5q-34 0 -54.5 15t-29.5 39q-7 15 -10 34q-5 29 -3 60.5t7 60.5l11 73.5t17.5 103.5t24.5 114t33 105.5t43 77.5t55 30
q20 0 42.5 -7.5t41.5 -19.5t32.5 -28.5t16.5 -33.5q2 -9 -1 -18t-14 -20q-14 -12 -27 -34t-25.5 -50.5t-24 -62t-20.5 -67.5q33 26 66 40.5t60 14.5q35 0 57 -17q19 -15 30 -44q1 -8 -0.5 -17.5t-3.5 -19.5q-5 -25 -15.5 -53l-20 -55t-16 -51.5t-3.5 -42.5q2 -8 4 -8
q6 0 17 4t25.5 13t30 22.5t29.5 31.5h-1q9 14 19 22.5t11 8.5q12 0 23 -7.5t15 -20.5z" />
    <glyph glyph-name="jcircumflex" unicode="&#x135;" horiz-adv-x="251" 
d="M303 172q3 -16 -9.5 -39t-35 -48t-51 -50t-56.5 -46q-7 -59 -24.5 -110t-45.5 -88.5t-66 -59t-86 -21.5q-13 0 -26 3t-24 11.5t-20 24t-13 40.5q-6 35 6 72q9 27 24.5 53t34 48.5t38.5 41t38 30.5q4 26 4.5 71.5t4 95.5t13 97.5t30.5 77.5q12 17 29 27t40 10
q14 0 28.5 -3.5t27.5 -10t21.5 -15.5t10.5 -19q2 -6 2 -12v-13q0 -24 -4 -53.5t-9 -59.5l-10 -58.5t-8 -51.5q18 8 37 27.5l36 36.5q11 11 20 19t15 8q11 0 18.5 -12t9.5 -24zM-7 -82q-4 -2 -6.5 -4.5l-5.5 -5.5q-17 -17 -25 -39.5t-7 -38.5q3 -14 7 -14q6 0 12 10t11.5 25
t9.5 33t4 34zM287 515q2 -8 4.5 -15.5t5.5 -15.5q3 -10 -2 -16.5t-14.5 -10t-21.5 -5t-22 -1.5q-22 0 -34 13.5t-21.5 31l-19.5 35t-28 25.5q-8 -3 -20.5 -19.5l-27.5 -35t-32 -33t-32 -12.5q-17 0 -33 11.5t-14 31.5q3 23 18.5 49.5t40 50t55 41t62.5 21.5q35 4 64 -21
q22 -18 39.5 -50t32.5 -75z" />
    <glyph glyph-name="emacron" unicode="&#x113;" horiz-adv-x="418" 
d="M431 219q2 2 6 3.5t7 1.5q22 0 31.5 -11.5t6.5 -29.5q-6 -33 -31 -68t-64 -63.5t-89 -46.5t-105 -18q-39 0 -73 10.5t-60.5 30t-45 47t-25.5 60.5q-11 46 -6.5 92t25.5 84q26 48 82 78.5t145 30.5q64 0 95 -25t39 -68q6 -33 -8.5 -63.5t-43 -54.5t-68.5 -40t-87 -21
q9 -25 26 -40t46 -17q60 1 109.5 38t87.5 90zM153 222q21 1 38 10t28.5 22.5t17 29t3.5 28.5q-2 9 -5.5 15.5t-13.5 6.5q-12 0 -24 -9t-22 -24t-16 -35.5t-6 -43.5zM65 492q-1 7 2.5 15.5t10 16t14 12.5t15.5 5q47 2 84 4t69 5t61.5 7.5t61.5 10.5q17 -5 27 -17t12 -26
q4 -26 -12 -40.5t-45 -21t-66 -7.5t-74 -1q-12 0 -38 1t-52 4.5t-47 11t-23 20.5z" />
    <glyph glyph-name="tbar" unicode="&#x167;" horiz-adv-x="303" 
d="M10 166h-6q-14 0 -25.5 7.5t-16.5 33.5q-6 37 16 52.5t56.5 19t74 1t68.5 -2.5l70 6q11 -11 18 -25t9 -26q4 -22 -21 -42t-72 -20zM355 424q2 -13 -3 -26t-14.5 -23.5t-22 -18t-24.5 -8.5q-14 -2 -34 -3t-38 -2q-11 -31 -19.5 -62t-14.5 -59.5t-9 -53t-3 -40.5v-9t1 -7
q2 -9 9.5 -13t16.5 -4q27 0 75 48q6 5 12.5 14l13.5 18l12.5 15.5t9.5 6.5q9 -1 19.5 -8t12.5 -20q5 -30 -15.5 -62.5t-55.5 -60t-78 -45t-82 -17.5q-29 0 -58.5 20t-45.5 52q-5 11 -9 23.5t-4 25.5q-1 17 0.5 44t5.5 60t10 71t14 77q-24 7 -40 19t-19 31q-3 18 0.5 28.5
t13 16t25 7.5t35.5 4q3 0 6 0.5t7 0.5q10 34 23.5 64.5t29.5 53.5t34.5 36t39.5 13q28 0 55 -12q27 -11 48 -30t25 -41q2 -11 -2 -18.5t-11.5 -15.5l-17.5 -19t-20 -29h48q7 0 13 -4.5t11.5 -11t9 -13.5t4.5 -13z" />
    <glyph glyph-name="edotaccent" unicode="&#x117;" horiz-adv-x="418" 
d="M431 219q2 2 6 3.5t7 1.5q22 0 31.5 -11.5t6.5 -29.5q-6 -33 -31 -68t-64 -63.5t-89 -46.5t-105 -18q-39 0 -73 10.5t-60.5 30t-45 47t-25.5 60.5q-11 46 -6.5 92t25.5 84q26 48 82 78.5t145 30.5q64 0 95 -25t39 -68q6 -33 -8.5 -63.5t-43 -54.5t-68.5 -40t-87 -21
q9 -25 26 -40t46 -17q60 1 109.5 38t87.5 90zM153 222q21 1 38 10t28.5 22.5t17 29t3.5 28.5q-2 9 -5.5 15.5t-13.5 6.5q-12 0 -24 -9t-22 -24t-16 -35.5t-6 -43.5zM299 470q-20 0 -38 5q-26 8 -42.5 26.5t-21.5 45.5q-8 42 3 65t51 23q18 0 36.5 -6t33.5 -16t25.5 -22
t12.5 -25q2 -11 0 -27.5t-8.5 -31.5t-19.5 -26t-32 -11z" />
    <glyph glyph-name="one" unicode="1" horiz-adv-x="2048" 
d="M1649 -35q4 -8 6.5 -16.5t2.5 -19.5q0 -6 -3 -18t-11 -24t-22 -21t-36 -9q-17 0 -30 6.5t-22.5 16.5t-14.5 23t-5 26q0 33 22.5 52.5t49.5 19.5q23 0 39 -11t24 -25zM955 -35q4 -8 6.5 -16.5t2.5 -19.5q0 -32 -21.5 -52t-50.5 -20q-17 0 -30.5 6.5t-22.5 17t-14 23
t-5 25.5q0 18 6.5 31.5t17 22.5t23.5 13.5t25 4.5q23 0 39 -11t24 -25zM1804 -1q2 0 2.5 0.5t2.5 0.5h26v-142h-26v104q-1 -2 -1 -3.5t-1 -3.5l-19 -49t-20 -48h-24l-37 90q-2 4 -2 7l-2 6v-103h-26v142h25q9 0 15 -7l3 -4l8 -21.5t9 -21.5l17 -43q2 -2 2 -9v-1q0 2 1 5t1 5
l5 10l29 76q4 7 12 10zM1083 0h26v-142h-24l-68 95q-1 1 -1 1.5t-1 1.5l-2 4q-2 2 -2 3l-2 3v-108h-26v142h23q11 0 21.5 -16l21.5 -32l30 -41q4 -8 4 -11v100zM653 0l62 -142h-16q-10 0 -17 11l-8 19h-65l-8 -19q-2 -4 -6.5 -7.5t-10.5 -3.5h-16l62 142h23zM1499 200
q-5 -11 -15 -24t-35 -13q-20 0 -35.5 13.5t-15.5 36.5q0 17 12.5 34.5t38.5 17.5q20 0 35.5 -14t15.5 -38q0 -8 -1 -13zM262 0h105v-12q0 -5 -1 -7l-3 -6l-70 -94q1 0 2 1t4 1h67v-25h-108v8q0 8 3 13l3 6q3 3 4 5l62 85h-68v25zM762 200q-5 -13 -15.5 -25t-33.5 -12
q-20 0 -36 14t-16 36q0 21 15.5 36.5t36.5 15.5q22 0 36.5 -15.5t14.5 -36.5q0 -3 -0.5 -6t-1.5 -7zM384 0h91v-25h-65v-33h53v-25h-53v-34h65v-25h-91v142zM1416 -38q-6 -7 -10 -15.5t-4 -17.5q0 -19 14 -32.5t33 -13.5q13 0 19.5 5.5t16.5 5.5q8 0 14 -6l5 -5
q-11 -14 -25.5 -20t-29.5 -6q-33 0 -52.5 22.5t-19.5 49.5t19.5 49.5t52.5 22.5q14 0 29 -6.5t26 -19.5l-5 -6q-5 -5 -14 -5q-8 0 -16.5 5.5t-19.5 5.5q-9 0 -17.5 -4t-15.5 -9zM1319 -73q9 -8 9 -25q0 -22 -16.5 -33.5t-33.5 -11.5q-20 0 -31 10.5t-16 20.5q2 1 3.5 2
t3.5 2l4 1q2 0 2.5 0.5t2.5 0.5q10 0 15.5 -5.5t15.5 -5.5q5 0 8 1l8 3q9 7 9 15q0 7 -9 12q-8 5 -17.5 8t-18 7.5t-14.5 12t-6 20.5q0 21 15 30t29 9q10 0 21 -6t19 -17l-5 -4q-8 -5 -15 -5h-3q-4 1 -8 3.5t-9 2.5q-18 0 -18 -13q0 -6 4 -8.5t9 -4.5l17 -6q17 -5 25 -16z
M1245 48q-6 7 -10 15.5t-4 17.5q0 21 15 34t32 13q20 0 33.5 -14.5t13.5 -32.5q0 -23 -15 -34.5t-32 -11.5q-20 0 -33 13zM1706 48q-13 -13 -33 -13q-19 0 -33 13t-14 33q0 14 12 30.5t35 16.5q17 0 32 -12.5t15 -34.5q0 -19 -14 -33zM1629 -89q2 5 3 9t1 9q0 21 -15 33.5
t-32 12.5t-31.5 -13t-14.5 -33t14 -33t32 -13q16 0 26 7.5t17 20.5zM935 -89q2 5 3 9t1 9q0 20 -14 33t-33 13q-17 0 -31.5 -12.5t-14.5 -33.5q0 -20 14 -33t32 -13q30 0 43 28zM721 0h90v-25h-65v-36h55v-25h-55v-56h-25v142zM1121 0h109v-25h-42v-117h-26v117h-41v25z
M589 -25h-41v-117h-26v117h-42v25h109v-25zM571 164q-10 0 -12 6l-26 35h-15v-41h-14v100h36q12 0 20.5 -8.5t8.5 -21.5q0 -20 -20 -27l31 -43h-9zM1476 240q-11 11 -27 11q-14 0 -25.5 -10.5t-11.5 -27.5q0 -11 9 -24t28 -13q15 0 26.5 11t11.5 26q0 18 -11 27zM739 240
q-9 11 -26 11q-14 0 -26 -10.5t-12 -27.5q0 -11 9 -24t29 -13q14 0 25.5 10.5t11.5 26.5t-11 27zM970 164q-7 0 -10 6l-7 16h-51l-7 -16q-3 -6 -10 -6h-8l44 100h13l44 -100h-8zM408 220q-3 -8 -10.5 -13.5t-18.5 -5.5h-22v-37h-13v100h35q14 0 23 -10t9 -22q0 -6 -3 -12z
M1673 45q17 0 26.5 11t9.5 25q0 18 -11.5 27t-24.5 9q-14 0 -25 -10t-11 -26q0 -11 9 -23.5t27 -12.5zM1245 95q-3 -6 -3 -14q0 -15 10.5 -25.5t25.5 -10.5q18 0 27 11.5t9 24.5q0 14 -9.5 25t-26.5 11q-10 0 -19 -5t-14 -17zM867 164h-11l-57 78q-1 1 -2 4v-82h-14v100h10
q7 0 10 -4l48 -67q2 -4 2 -7v78h14v-100zM1604 164h-12l-57 78q-1 0 -1 4l-1 2v-84h-14v100h10q6 0 10 -4l48 -67q2 -2 2 -3.5t1 -3.5v78h14v-100zM1093 78q-2 -1 -8 -3l30 -39h-6q-8 0 -11 5l-25 34h-16v-39h-10v91h32q12 0 19 -8.5t7 -17.5q0 -8 -3.5 -13.5t-8.5 -9.5z
M1602 84q-5 -7 -14 -9l29 -39h-6q-8 0 -10 5l-25 34h-17v-39h-10v91h32q12 0 19.5 -8t7.5 -18q0 -11 -6 -17zM1822 125q4 2 5 2h8v-91h-10v75l-1 -2v-1v-1l-9 -20q-4 -10 -8.5 -18.5t-6.5 -16.5l-8 -16h-10q-5 8 -8.5 17t-7.5 18l-16 36v1q0 1 -0.5 1t-0.5 1v-74h-10v91h8
q2 0 5 -2t3 -4l31 -70v-2q0 -1 1 -1q0 1 0.5 2t0.5 2l31 69q1 2 3 4zM483 250h-48v-29h39v-14h-39v-30h48v-13h-62v100h62v-14zM1341 250l-48 1v-30h39v-14h-39v-30h48v-13h-62v100h62v-14zM1182 203q0 -12 -4.5 -19.5t-11 -12.5t-13.5 -7t-11 -2q-20 0 -30 13.5t-10 27.5
v61h13v-61q0 -11 8 -19t19 -8q10 0 18 7.5t8 19.5v61h14v-61zM1352 36h-10v91h7q5 0 8 -4l47 -66q2 -2 2 -5v75h10v-91h-9l-54 75q-1 0 -0.5 1.5t-0.5 2.5v-79zM648 181q-11 -18 -32 -18q-8 0 -19 4.5t-11 12.5q-1 0 -1 2l3 1q2 2 6 2t7 -3l2 -1q3 -5 13 -5q5 0 12.5 4
t7.5 13t-6 11.5t-14 5.5l-10 5q-17 7 -17 24q0 16 11 21t19 5q4 0 8.5 -1.5t6.5 -3.5l7 -5q2 -2 3 -2.5t2 -2.5l-4 -2q-3 -3 -7 -3q-5 0 -8 3t-8 3q-4 0 -6 -1l-6 -2q-4 -3 -4 -9q0 -5 1.5 -7.5t7.5 -4.5l9 -3q2 -1 4.5 -2t5.5 -2l4 -2q8 -3 11.5 -10t3.5 -15q0 -4 -2 -12z
M1259 181q-10 -18 -31 -18q-11 0 -17 4t-12 10l-3 5l4 1q2 2 5 2q5 0 8 -3l1 -1q5 -5 14 -5q8 0 14 5t6 12q0 6 -6 12l-14 5l-10 5q-18 7 -18 24q0 14 10.5 20t20.5 6q8 0 15 -5l7 -5l5 -5l-4 -2q-3 -3 -7 -3q-5 0 -9 3t-7 3q-5 0 -7 -1l-5 -2q-5 -3 -5 -9q0 -7 10 -12l8 -3
q4 -2 5 -2l10 -4q8 -3 11.5 -10t3.5 -15q0 -6 -3 -12zM265 58q-4 4 -5.5 10.5t-1.5 12.5q0 20 14 33.5t33 13.5q9 0 18 -3.5t15 -10.5l-2 -2q-2 -2 -4 -2h-2q-6 0 -11.5 3.5t-13.5 3.5q-15 0 -26 -10.5t-11 -25.5q0 -17 12 -26.5t25 -9.5q12 0 23 6v19h-7q-4 0 -6.5 3
t-2.5 6v1h26v-35q-7 -8 -24 -10h-9q-15 0 -25 6.5t-15 16.5zM1729 215q-4 -4 -3 -4l-1 -2v-3v-42h-14v45q-1 1 -1 2l-3 4l-36 49h10q8 0 12 -7l24 -32l1 -1v-2v1q0 2 1 2l24 32q3 7 12 7h10zM980 116v-29h37v-10h-37v-31h45v-10h-55v91h55v-11h-45zM371 116v-29h36v-10h-36
v-31h45v-10h-56v91l56 -1v-10h-45zM635 127v-56q0 -11 7.5 -18.5t18.5 -7.5q10 0 18.5 7t8.5 19v56h10v-56q0 -19 -12.5 -27.5t-24.5 -8.5q-15 0 -25.5 10t-10.5 26v56h10zM913 36l-40 91h6q2 0 4.5 -1.5t3.5 -4.5l30 -68q0 -2 0.5 -3t0.5 -2v2q0 1 0.5 1.5t0.5 1.5l30 68
q2 6 8 6h5l-39 -91h-10zM1045 164h-57v100h13v-87h44v-13zM1163 49q6 4 6 12q0 11 -12 16l-7 2q-7 2 -15.5 6.5t-8.5 18.5q0 9 7.5 16.5t18.5 7.5q2 0 4 -0.5t4 -0.5l6 -3q2 -2 3 -2.5t2 -1.5l5 -4l-3 -2q-1 -2 -5 -2q-3 0 -5 1l-5 3q-2 0 -3 0.5t-3 0.5q-16 0 -16 -13
q0 -8 9 -12l9 -3q2 -2 6 -3t7 -3l4 -2q9 -9 9 -20q0 -14 -10 -20t-21 -6q-10 0 -18.5 5.5t-8.5 10.5l2 1q1 1 4 1q5 0 10 -4t11 -4q9 0 14 4zM563 116v-31h38v-10h-38v-39h-11v91h56v-11h-45zM1493 116v-31h38v-10h-38v-39h-10v91h55v-11h-45zM456 36v80h-29v11h68v-11h-29
v-80h-10zM727 127v-81h41v-10h-51v91h10zM789 127v-81h41v-10h-51v91h10zM392 245q-7 5 -13 5h-22v-36h22q8 0 13 5.5t5 12.5q0 8 -5 13zM1588 86q5 2 7 6t2 9q0 6 -4 10.5t-12 4.5h-22v-31h22q5 0 7 1zM1079 85q5 0 10.5 4t5.5 12q0 6 -5 10.5t-11 4.5h-22v-31h22zM554 228
q1 2 1 6q0 6 -4 11t-11 5h-22v-31h22q4 0 6 1l5 3zM662 -86l-18 43q-2 3 -2 5t-1 4q0 -1 -2 -9l-18 -43h41zM1210 127v-91h-10v91h10zM927 244l-19 -44h39l-19 42q0 1 -0.5 2t-0.5 3v-3zM1363 -117q4 -4 4 -11q0 -15 -16 -15q-5 0 -10 3.5t-5 11.5q0 6 4 11t11 5t12 -5z
M2013 738q20 -17 35 -43.5t19.5 -54.5t-3 -53.5t-32.5 -41.5q-14 -9 -23 -7t-16 10.5t-13 21l-12 24.5q-5 11 -11.5 21t-11.5 17q-13 17 -33.5 24.5t-39.5 4.5q-74 -11 -162 -42t-184 -70l-197 -81t-201 -74.5t-196.5 -49.5t-182.5 -7q-2 -5 -3 -8t-2 -5q-1 -3 -1 -5
q-26 -5 -46.5 -6.5t-47.5 6.5q-23 2 -48 2t-53 -4q2 -5 -23.5 -7.5t-61.5 -2.5t-75 3t-64 9q-7 5 -15 25t-14 48.5t-9 62.5t1 68t16 64.5t36 52.5q36 33 56.5 66.5t31.5 61.5t16 49t8 30q4 8 5 26t15 38q0 2 -0.5 4t-0.5 4v8t1 10q0 12 3 21q0 8 4 18q3 9 5 10q4 1 8 -8
q2 -3 3.5 -6t4.5 -5l10 -10q1 -2 3 -3.5t4 -3.5q14 5 32 8.5t41 3.5h15.5t14.5 -1q10 -2 18.5 -4t13.5 -4q4 3 9.5 5.5t7.5 3.5q3 2 6.5 3t6.5 3q4 1 11 8t10 4q2 -2 2 -11q0 -4 -0.5 -8.5t-1.5 -9.5q-2 -5 -2.5 -10.5t-2.5 -10.5v-1q11 -12 17.5 -25.5t9.5 -26.5t3.5 -24
t0.5 -16q0 -3 -2 -7q-1 -4 -6 -10q-2 -3 -4.5 -5.5t-4.5 -5.5q-3 -2 -5 -4t-4 -3v-1q-15 -26 -22.5 -61t-5.5 -70t15 -66.5t39 -50.5q29 -22 36 -58.5t3 -73.5q69 9 142.5 39.5t153 71l165 85t178 83t192.5 65t208 30.5q58 0 112 -11t95 -46zM559 882q0 11 -9 15
q-12 0 -12 -14q-2 -12 10 -14q9 0 11 13zM682 884q0 12 -11 14q-9 0 -11 -12q0 -14 10 -14q5 -2 8 2.5t4 9.5zM644 833q0 6 -11 6q-9 0 -9 -6q0 -4 4 -8.5t5 -4.5q2 0 6.5 4.5t4.5 8.5zM1685 164h-57v100h14v-87h43v-13z" />
    <glyph glyph-name="two" unicode="2" horiz-adv-x="2048" 
d="M1649 -35q4 -8 6.5 -16.5t2.5 -19.5q0 -6 -3 -18t-11 -24t-22 -21t-36 -9q-17 0 -30 6.5t-22.5 16.5t-14.5 23t-5 26q0 33 22.5 52.5t49.5 19.5q23 0 39 -11t24 -25zM955 -35q4 -8 6.5 -16.5t2.5 -19.5q0 -32 -21.5 -52t-50.5 -20q-17 0 -30.5 6.5t-22.5 17t-14 23
t-5 25.5q0 18 6.5 31.5t17 22.5t23.5 13.5t25 4.5q23 0 39 -11t24 -25zM1804 -1q2 0 2.5 0.5t2.5 0.5h26v-142h-26v104q-1 -2 -1 -3.5t-1 -3.5l-19 -49t-20 -48h-24l-37 90q-2 4 -2 7l-2 6v-103h-26v142h25q9 0 15 -7l3 -4l8 -21.5t9 -21.5l17 -43q2 -2 2 -9v-1q0 2 1 5t1 5
l5 10l29 76q4 7 12 10zM1083 0h26v-142h-24l-68 95q-1 1 -1 1.5t-1 1.5l-2 4q-2 2 -2 3l-2 3v-108h-26v142h23q11 0 21.5 -16l21.5 -32l30 -41q4 -8 4 -11v100zM653 0l62 -142h-16q-10 0 -17 11l-8 19h-65l-8 -19q-2 -4 -6.5 -7.5t-10.5 -3.5h-16l62 142h23zM1499 200
q-5 -11 -15 -24t-35 -13q-20 0 -35.5 13.5t-15.5 36.5q0 17 12.5 34.5t38.5 17.5q20 0 35.5 -14t15.5 -38q0 -8 -1 -13zM262 0h105v-12q0 -5 -1 -7l-3 -6l-70 -94q1 0 2 1t4 1h67v-25h-108v8q0 8 3 13l3 6q3 3 4 5l62 85h-68v25zM762 200q-5 -13 -15.5 -25t-33.5 -12
q-20 0 -36 14t-16 36q0 21 15.5 36.5t36.5 15.5q22 0 36.5 -15.5t14.5 -36.5q0 -3 -0.5 -6t-1.5 -7zM384 0h91v-25h-65v-33h53v-25h-53v-34h65v-25h-91v142zM1416 -38q-6 -7 -10 -15.5t-4 -17.5q0 -19 14 -32.5t33 -13.5q13 0 19.5 5.5t16.5 5.5q8 0 14 -6l5 -5
q-11 -14 -25.5 -20t-29.5 -6q-33 0 -52.5 22.5t-19.5 49.5t19.5 49.5t52.5 22.5q14 0 29 -6.5t26 -19.5l-5 -6q-5 -5 -14 -5q-8 0 -16.5 5.5t-19.5 5.5q-9 0 -17.5 -4t-15.5 -9zM1319 -73q9 -8 9 -25q0 -22 -16.5 -33.5t-33.5 -11.5q-20 0 -31 10.5t-16 20.5q2 1 3.5 2
t3.5 2l4 1q2 0 2.5 0.5t2.5 0.5q10 0 15.5 -5.5t15.5 -5.5q5 0 8 1l8 3q9 7 9 15q0 7 -9 12q-8 5 -17.5 8t-18 7.5t-14.5 12t-6 20.5q0 21 15 30t29 9q10 0 21 -6t19 -17l-5 -4q-8 -5 -15 -5h-3q-4 1 -8 3.5t-9 2.5q-18 0 -18 -13q0 -6 4 -8.5t9 -4.5l17 -6q17 -5 25 -16z
M1245 48q-6 7 -10 15.5t-4 17.5q0 21 15 34t32 13q20 0 33.5 -14.5t13.5 -32.5q0 -23 -15 -34.5t-32 -11.5q-20 0 -33 13zM1706 48q-13 -13 -33 -13q-19 0 -33 13t-14 33q0 14 12 30.5t35 16.5q17 0 32 -12.5t15 -34.5q0 -19 -14 -33zM1629 -89q2 5 3 9t1 9q0 21 -15 33.5
t-32 12.5t-31.5 -13t-14.5 -33t14 -33t32 -13q16 0 26 7.5t17 20.5zM935 -89q2 5 3 9t1 9q0 20 -14 33t-33 13q-17 0 -31.5 -12.5t-14.5 -33.5q0 -20 14 -33t32 -13q30 0 43 28zM721 0h90v-25h-65v-36h55v-25h-55v-56h-25v142zM1121 0h109v-25h-42v-117h-26v117h-41v25z
M589 -25h-41v-117h-26v117h-42v25h109v-25zM571 164q-10 0 -12 6l-26 35h-15v-41h-14v100h36q12 0 20.5 -8.5t8.5 -21.5q0 -20 -20 -27l31 -43h-9zM1476 240q-11 11 -27 11q-14 0 -25.5 -10.5t-11.5 -27.5q0 -11 9 -24t28 -13q15 0 26.5 11t11.5 26q0 18 -11 27zM739 240
q-9 11 -26 11q-14 0 -26 -10.5t-12 -27.5q0 -11 9 -24t29 -13q14 0 25.5 10.5t11.5 26.5t-11 27zM970 164q-7 0 -10 6l-7 16h-51l-7 -16q-3 -6 -10 -6h-8l44 100h13l44 -100h-8zM408 220q-3 -8 -10.5 -13.5t-18.5 -5.5h-22v-37h-13v100h35q14 0 23 -10t9 -22q0 -6 -3 -12z
M1673 45q17 0 26.5 11t9.5 25q0 18 -11.5 27t-24.5 9q-14 0 -25 -10t-11 -26q0 -11 9 -23.5t27 -12.5zM1245 95q-3 -6 -3 -14q0 -15 10.5 -25.5t25.5 -10.5q18 0 27 11.5t9 24.5q0 14 -9.5 25t-26.5 11q-10 0 -19 -5t-14 -17zM867 164h-11l-57 78q-1 1 -2 4v-82h-14v100h10
q7 0 10 -4l48 -67q2 -4 2 -7v78h14v-100zM1604 164h-12l-57 78q-1 0 -1 4l-1 2v-84h-14v100h10q6 0 10 -4l48 -67q2 -2 2 -3.5t1 -3.5v78h14v-100zM1093 78q-2 -1 -8 -3l30 -39h-6q-8 0 -11 5l-25 34h-16v-39h-10v91h32q12 0 19 -8.5t7 -17.5q0 -8 -3.5 -13.5t-8.5 -9.5z
M1602 84q-5 -7 -14 -9l29 -39h-6q-8 0 -10 5l-25 34h-17v-39h-10v91h32q12 0 19.5 -8t7.5 -18q0 -11 -6 -17zM1822 125q4 2 5 2h8v-91h-10v75l-1 -2v-1v-1l-9 -20q-4 -10 -8.5 -18.5t-6.5 -16.5l-8 -16h-10q-5 8 -8.5 17t-7.5 18l-16 36v1q0 1 -0.5 1t-0.5 1v-74h-10v91h8
q2 0 5 -2t3 -4l31 -70v-2q0 -1 1 -1q0 1 0.5 2t0.5 2l31 69q1 2 3 4zM483 250h-48v-29h39v-14h-39v-30h48v-13h-62v100h62v-14zM1341 250l-48 1v-30h39v-14h-39v-30h48v-13h-62v100h62v-14zM1182 203q0 -12 -4.5 -19.5t-11 -12.5t-13.5 -7t-11 -2q-20 0 -30 13.5t-10 27.5
v61h13v-61q0 -11 8 -19t19 -8q10 0 18 7.5t8 19.5v61h14v-61zM1352 36h-10v91h7q5 0 8 -4l47 -66q2 -2 2 -5v75h10v-91h-9l-54 75q-1 0 -0.5 1.5t-0.5 2.5v-79zM648 181q-11 -18 -32 -18q-8 0 -19 4.5t-11 12.5q-1 0 -1 2l3 1q2 2 6 2t7 -3l2 -1q3 -5 13 -5q5 0 12.5 4
t7.5 13t-6 11.5t-14 5.5l-10 5q-17 7 -17 24q0 16 11 21t19 5q4 0 8.5 -1.5t6.5 -3.5l7 -5q2 -2 3 -2.5t2 -2.5l-4 -2q-3 -3 -7 -3q-5 0 -8 3t-8 3q-4 0 -6 -1l-6 -2q-4 -3 -4 -9q0 -5 1.5 -7.5t7.5 -4.5l9 -3q2 -1 4.5 -2t5.5 -2l4 -2q8 -3 11.5 -10t3.5 -15q0 -4 -2 -12z
M1259 181q-10 -18 -31 -18q-11 0 -17 4t-12 10l-3 5l4 1q2 2 5 2q5 0 8 -3l1 -1q5 -5 14 -5q8 0 14 5t6 12q0 6 -6 12l-14 5l-10 5q-18 7 -18 24q0 14 10.5 20t20.5 6q8 0 15 -5l7 -5l5 -5l-4 -2q-3 -3 -7 -3q-5 0 -9 3t-7 3q-5 0 -7 -1l-5 -2q-5 -3 -5 -9q0 -7 10 -12l8 -3
q4 -2 5 -2l10 -4q8 -3 11.5 -10t3.5 -15q0 -6 -3 -12zM265 58q-4 4 -5.5 10.5t-1.5 12.5q0 20 14 33.5t33 13.5q9 0 18 -3.5t15 -10.5l-2 -2q-2 -2 -4 -2h-2q-6 0 -11.5 3.5t-13.5 3.5q-15 0 -26 -10.5t-11 -25.5q0 -17 12 -26.5t25 -9.5q12 0 23 6v19h-7q-4 0 -6.5 3
t-2.5 6v1h26v-35q-7 -8 -24 -10h-9q-15 0 -25 6.5t-15 16.5zM1729 215q-4 -4 -3 -4l-1 -2v-3v-42h-14v45q-1 1 -1 2l-3 4l-36 49h10q8 0 12 -7l24 -32l1 -1v-2v1q0 2 1 2l24 32q3 7 12 7h10zM980 116v-29h37v-10h-37v-31h45v-10h-55v91h55v-11h-45zM371 116v-29h36v-10h-36
v-31h45v-10h-56v91l56 -1v-10h-45zM635 127v-56q0 -11 7.5 -18.5t18.5 -7.5q10 0 18.5 7t8.5 19v56h10v-56q0 -19 -12.5 -27.5t-24.5 -8.5q-15 0 -25.5 10t-10.5 26v56h10zM913 36l-40 91h6q2 0 4.5 -1.5t3.5 -4.5l30 -68q0 -2 0.5 -3t0.5 -2v2q0 1 0.5 1.5t0.5 1.5l30 68
q2 6 8 6h5l-39 -91h-10zM1045 164h-57v100h13v-87h44v-13zM1163 49q6 4 6 12q0 11 -12 16l-7 2q-7 2 -15.5 6.5t-8.5 18.5q0 9 7.5 16.5t18.5 7.5q2 0 4 -0.5t4 -0.5l6 -3q2 -2 3 -2.5t2 -1.5l5 -4l-3 -2q-1 -2 -5 -2q-3 0 -5 1l-5 3q-2 0 -3 0.5t-3 0.5q-16 0 -16 -13
q0 -8 9 -12l9 -3q2 -2 6 -3t7 -3l4 -2q9 -9 9 -20q0 -14 -10 -20t-21 -6q-10 0 -18.5 5.5t-8.5 10.5l2 1q1 1 4 1q5 0 10 -4t11 -4q9 0 14 4zM563 116v-31h38v-10h-38v-39h-11v91h56v-11h-45zM1493 116v-31h38v-10h-38v-39h-10v91h55v-11h-45zM456 36v80h-29v11h68v-11h-29
v-80h-10zM727 127v-81h41v-10h-51v91h10zM789 127v-81h41v-10h-51v91h10zM392 245q-7 5 -13 5h-22v-36h22q8 0 13 5.5t5 12.5q0 8 -5 13zM1588 86q5 2 7 6t2 9q0 6 -4 10.5t-12 4.5h-22v-31h22q5 0 7 1zM1079 85q5 0 10.5 4t5.5 12q0 6 -5 10.5t-11 4.5h-22v-31h22zM554 228
q1 2 1 6q0 6 -4 11t-11 5h-22v-31h22q4 0 6 1l5 3zM662 -86l-18 43q-2 3 -2 5t-1 4q0 -1 -2 -9l-18 -43h41zM1210 127v-91h-10v91h10zM927 244l-19 -44h39l-19 42q0 1 -0.5 2t-0.5 3v-3zM1363 -117q4 -4 4 -11q0 -15 -16 -15q-5 0 -10 3.5t-5 11.5q0 6 4 11t11 5t12 -5z
M1851 638q8 -19 11.5 -35.5t3.5 -30.5q0 -26 -16.5 -46.5t-46.5 -20.5q-13 0 -23 8t-21.5 20.5l-25.5 27t-35 27t-50 20.5t-71 8q-57 0 -152 -17t-226 -56q8 -10 14.5 -21t10.5 -23q0 -11 12.5 -31.5t30.5 -41t39 -35.5t39 -15q24 0 39 -3.5t24 -9.5t13.5 -13.5l9.5 -15.5
h-262v-16q0 -35 -6.5 -42.5t-16.5 -7.5q-9 0 -16.5 4t-12.5 9.5t-8 10.5t-3 7q-17 5 -28.5 11t-22.5 14q-28 -1 -61 -1.5l-68.5 -1t-71.5 -0.5h-69h-158q-21 -3 -43.5 -7l-44 -8t-41 -7t-33.5 -3q-19 0 -38.5 2t-35 9t-25 21t-9.5 38q0 16 3 32.5t13 30.5q16 27 34 53
t49 47.5t81.5 36t132.5 16.5q49 0 88 -13.5t81 -30.5q25 13 54 26.5t60 30.5q-27 33 -27 52q0 14 4 27.5t11 25.5q-5 14 -12 37t-7 45q0 8 0.5 14.5t3.5 11.5l31 -19l30 -17t31 -16q14 5 29.5 7.5t30.5 2.5q18 0 33 -2.5t29 -7.5q15 7 31.5 16l30.5 17q16 10 32 19
q1 -5 3 -11.5t2 -12.5q0 -19 -6 -40.5t-12 -37.5q76 23 165 40t186 17q45 0 89.5 -9t82 -25.5t66 -39.5t41.5 -51zM1009 692q-1 6 -8 6q-8 -2 -8 -6q0 -5 3 -7.5t5 -2.5q4 0 6 3.5t2 6.5zM1081 655q0 6 -12 6q-6 0 -9 -0.5t-5 -5.5q0 -5 4 -9.5t9 -4.5t9 4.5t4 9.5z
M1167 693q-2 8 -11 8q-8 -5 -8 -10q1 -9 8 -9q5 0 8 3.5t3 7.5zM1685 164h-57v100h14v-87h43v-13z" />
    <glyph glyph-name="three" unicode="3" horiz-adv-x="2048" 
d="M1649 -35q4 -8 6.5 -16.5t2.5 -19.5q0 -6 -3 -18t-11 -24t-22 -21t-36 -9q-17 0 -30 6.5t-22.5 16.5t-14.5 23t-5 26q0 33 22.5 52.5t49.5 19.5q23 0 39 -11t24 -25zM955 -35q4 -8 6.5 -16.5t2.5 -19.5q0 -32 -21.5 -52t-50.5 -20q-17 0 -30.5 6.5t-22.5 17t-14 23
t-5 25.5q0 18 6.5 31.5t17 22.5t23.5 13.5t25 4.5q23 0 39 -11t24 -25zM1804 -1q2 0 2.5 0.5t2.5 0.5h26v-142h-26v104q-1 -2 -1 -3.5t-1 -3.5l-19 -49t-20 -48h-24l-37 90q-2 4 -2 7l-2 6v-103h-26v142h25q9 0 15 -7l3 -4l8 -21.5t9 -21.5l17 -43q2 -2 2 -9v-1q0 2 1 5t1 5
l5 10l29 76q4 7 12 10zM1083 0h26v-142h-24l-68 95q-1 1 -1 1.5t-1 1.5l-2 4q-2 2 -2 3l-2 3v-108h-26v142h23q11 0 21.5 -16l21.5 -32l30 -41q4 -8 4 -11v100zM653 0l62 -142h-16q-10 0 -17 11l-8 19h-65l-8 -19q-2 -4 -6.5 -7.5t-10.5 -3.5h-16l62 142h23zM1499 200
q-5 -11 -15 -24t-35 -13q-20 0 -35.5 13.5t-15.5 36.5q0 17 12.5 34.5t38.5 17.5q20 0 35.5 -14t15.5 -38q0 -8 -1 -13zM262 0h105v-12q0 -5 -1 -7l-3 -6l-70 -94q1 0 2 1t4 1h67v-25h-108v8q0 8 3 13l3 6q3 3 4 5l62 85h-68v25zM762 200q-5 -13 -15.5 -25t-33.5 -12
q-20 0 -36 14t-16 36q0 21 15.5 36.5t36.5 15.5q22 0 36.5 -15.5t14.5 -36.5q0 -3 -0.5 -6t-1.5 -7zM384 0h91v-25h-65v-33h53v-25h-53v-34h65v-25h-91v142zM1416 -38q-6 -7 -10 -15.5t-4 -17.5q0 -19 14 -32.5t33 -13.5q13 0 19.5 5.5t16.5 5.5q8 0 14 -6l5 -5
q-11 -14 -25.5 -20t-29.5 -6q-33 0 -52.5 22.5t-19.5 49.5t19.5 49.5t52.5 22.5q14 0 29 -6.5t26 -19.5l-5 -6q-5 -5 -14 -5q-8 0 -16.5 5.5t-19.5 5.5q-9 0 -17.5 -4t-15.5 -9zM1319 -73q9 -8 9 -25q0 -22 -16.5 -33.5t-33.5 -11.5q-20 0 -31 10.5t-16 20.5q2 1 3.5 2
t3.5 2l4 1q2 0 2.5 0.5t2.5 0.5q10 0 15.5 -5.5t15.5 -5.5q5 0 8 1l8 3q9 7 9 15q0 7 -9 12q-8 5 -17.5 8t-18 7.5t-14.5 12t-6 20.5q0 21 15 30t29 9q10 0 21 -6t19 -17l-5 -4q-8 -5 -15 -5h-3q-4 1 -8 3.5t-9 2.5q-18 0 -18 -13q0 -6 4 -8.5t9 -4.5l17 -6q17 -5 25 -16z
M1245 48q-6 7 -10 15.5t-4 17.5q0 21 15 34t32 13q20 0 33.5 -14.5t13.5 -32.5q0 -23 -15 -34.5t-32 -11.5q-20 0 -33 13zM1706 48q-13 -13 -33 -13q-19 0 -33 13t-14 33q0 14 12 30.5t35 16.5q17 0 32 -12.5t15 -34.5q0 -19 -14 -33zM1629 -89q2 5 3 9t1 9q0 21 -15 33.5
t-32 12.5t-31.5 -13t-14.5 -33t14 -33t32 -13q16 0 26 7.5t17 20.5zM935 -89q2 5 3 9t1 9q0 20 -14 33t-33 13q-17 0 -31.5 -12.5t-14.5 -33.5q0 -20 14 -33t32 -13q30 0 43 28zM721 0h90v-25h-65v-36h55v-25h-55v-56h-25v142zM1121 0h109v-25h-42v-117h-26v117h-41v25z
M589 -25h-41v-117h-26v117h-42v25h109v-25zM571 164q-10 0 -12 6l-26 35h-15v-41h-14v100h36q12 0 20.5 -8.5t8.5 -21.5q0 -20 -20 -27l31 -43h-9zM1476 240q-11 11 -27 11q-14 0 -25.5 -10.5t-11.5 -27.5q0 -11 9 -24t28 -13q15 0 26.5 11t11.5 26q0 18 -11 27zM739 240
q-9 11 -26 11q-14 0 -26 -10.5t-12 -27.5q0 -11 9 -24t29 -13q14 0 25.5 10.5t11.5 26.5t-11 27zM970 164q-7 0 -10 6l-7 16h-51l-7 -16q-3 -6 -10 -6h-8l44 100h13l44 -100h-8zM408 220q-3 -8 -10.5 -13.5t-18.5 -5.5h-22v-37h-13v100h35q14 0 23 -10t9 -22q0 -6 -3 -12z
M1673 45q17 0 26.5 11t9.5 25q0 18 -11.5 27t-24.5 9q-14 0 -25 -10t-11 -26q0 -11 9 -23.5t27 -12.5zM1245 95q-3 -6 -3 -14q0 -15 10.5 -25.5t25.5 -10.5q18 0 27 11.5t9 24.5q0 14 -9.5 25t-26.5 11q-10 0 -19 -5t-14 -17zM867 164h-11l-57 78q-1 1 -2 4v-82h-14v100h10
q7 0 10 -4l48 -67q2 -4 2 -7v78h14v-100zM1604 164h-12l-57 78q-1 0 -1 4l-1 2v-84h-14v100h10q6 0 10 -4l48 -67q2 -2 2 -3.5t1 -3.5v78h14v-100zM1093 78q-2 -1 -8 -3l30 -39h-6q-8 0 -11 5l-25 34h-16v-39h-10v91h32q12 0 19 -8.5t7 -17.5q0 -8 -3.5 -13.5t-8.5 -9.5z
M1602 84q-5 -7 -14 -9l29 -39h-6q-8 0 -10 5l-25 34h-17v-39h-10v91h32q12 0 19.5 -8t7.5 -18q0 -11 -6 -17zM1822 125q4 2 5 2h8v-91h-10v75l-1 -2v-1v-1l-9 -20q-4 -10 -8.5 -18.5t-6.5 -16.5l-8 -16h-10q-5 8 -8.5 17t-7.5 18l-16 36v1q0 1 -0.5 1t-0.5 1v-74h-10v91h8
q2 0 5 -2t3 -4l31 -70v-2q0 -1 1 -1q0 1 0.5 2t0.5 2l31 69q1 2 3 4zM483 250h-48v-29h39v-14h-39v-30h48v-13h-62v100h62v-14zM1341 250l-48 1v-30h39v-14h-39v-30h48v-13h-62v100h62v-14zM1182 203q0 -12 -4.5 -19.5t-11 -12.5t-13.5 -7t-11 -2q-20 0 -30 13.5t-10 27.5
v61h13v-61q0 -11 8 -19t19 -8q10 0 18 7.5t8 19.5v61h14v-61zM1352 36h-10v91h7q5 0 8 -4l47 -66q2 -2 2 -5v75h10v-91h-9l-54 75q-1 0 -0.5 1.5t-0.5 2.5v-79zM648 181q-11 -18 -32 -18q-8 0 -19 4.5t-11 12.5q-1 0 -1 2l3 1q2 2 6 2t7 -3l2 -1q3 -5 13 -5q5 0 12.5 4
t7.5 13t-6 11.5t-14 5.5l-10 5q-17 7 -17 24q0 16 11 21t19 5q4 0 8.5 -1.5t6.5 -3.5l7 -5q2 -2 3 -2.5t2 -2.5l-4 -2q-3 -3 -7 -3q-5 0 -8 3t-8 3q-4 0 -6 -1l-6 -2q-4 -3 -4 -9q0 -5 1.5 -7.5t7.5 -4.5l9 -3q2 -1 4.5 -2t5.5 -2l4 -2q8 -3 11.5 -10t3.5 -15q0 -4 -2 -12z
M1259 181q-10 -18 -31 -18q-11 0 -17 4t-12 10l-3 5l4 1q2 2 5 2q5 0 8 -3l1 -1q5 -5 14 -5q8 0 14 5t6 12q0 6 -6 12l-14 5l-10 5q-18 7 -18 24q0 14 10.5 20t20.5 6q8 0 15 -5l7 -5l5 -5l-4 -2q-3 -3 -7 -3q-5 0 -9 3t-7 3q-5 0 -7 -1l-5 -2q-5 -3 -5 -9q0 -7 10 -12l8 -3
q4 -2 5 -2l10 -4q8 -3 11.5 -10t3.5 -15q0 -6 -3 -12zM265 58q-4 4 -5.5 10.5t-1.5 12.5q0 20 14 33.5t33 13.5q9 0 18 -3.5t15 -10.5l-2 -2q-2 -2 -4 -2h-2q-6 0 -11.5 3.5t-13.5 3.5q-15 0 -26 -10.5t-11 -25.5q0 -17 12 -26.5t25 -9.5q12 0 23 6v19h-7q-4 0 -6.5 3
t-2.5 6v1h26v-35q-7 -8 -24 -10h-9q-15 0 -25 6.5t-15 16.5zM1729 215q-4 -4 -3 -4l-1 -2v-3v-42h-14v45q-1 1 -1 2l-3 4l-36 49h10q8 0 12 -7l24 -32l1 -1v-2v1q0 2 1 2l24 32q3 7 12 7h10zM980 116v-29h37v-10h-37v-31h45v-10h-55v91h55v-11h-45zM371 116v-29h36v-10h-36
v-31h45v-10h-56v91l56 -1v-10h-45zM635 127v-56q0 -11 7.5 -18.5t18.5 -7.5q10 0 18.5 7t8.5 19v56h10v-56q0 -19 -12.5 -27.5t-24.5 -8.5q-15 0 -25.5 10t-10.5 26v56h10zM913 36l-40 91h6q2 0 4.5 -1.5t3.5 -4.5l30 -68q0 -2 0.5 -3t0.5 -2v2q0 1 0.5 1.5t0.5 1.5l30 68
q2 6 8 6h5l-39 -91h-10zM1045 164h-57v100h13v-87h44v-13zM1163 49q6 4 6 12q0 11 -12 16l-7 2q-7 2 -15.5 6.5t-8.5 18.5q0 9 7.5 16.5t18.5 7.5q2 0 4 -0.5t4 -0.5l6 -3q2 -2 3 -2.5t2 -1.5l5 -4l-3 -2q-1 -2 -5 -2q-3 0 -5 1l-5 3q-2 0 -3 0.5t-3 0.5q-16 0 -16 -13
q0 -8 9 -12l9 -3q2 -2 6 -3t7 -3l4 -2q9 -9 9 -20q0 -14 -10 -20t-21 -6q-10 0 -18.5 5.5t-8.5 10.5l2 1q1 1 4 1q5 0 10 -4t11 -4q9 0 14 4zM563 116v-31h38v-10h-38v-39h-11v91h56v-11h-45zM1493 116v-31h38v-10h-38v-39h-10v91h55v-11h-45zM456 36v80h-29v11h68v-11h-29
v-80h-10zM727 127v-81h41v-10h-51v91h10zM789 127v-81h41v-10h-51v91h10zM392 245q-7 5 -13 5h-22v-36h22q8 0 13 5.5t5 12.5q0 8 -5 13zM1588 86q5 2 7 6t2 9q0 6 -4 10.5t-12 4.5h-22v-31h22q5 0 7 1zM1079 85q5 0 10.5 4t5.5 12q0 6 -5 10.5t-11 4.5h-22v-31h22zM554 228
q1 2 1 6q0 6 -4 11t-11 5h-22v-31h22q4 0 6 1l5 3zM662 -86l-18 43q-2 3 -2 5t-1 4q0 -1 -2 -9l-18 -43h41zM1210 127v-91h-10v91h10zM927 244l-19 -44h39l-19 42q0 1 -0.5 2t-0.5 3v-3zM1363 -117q4 -4 4 -11q0 -15 -16 -15q-5 0 -10 3.5t-5 11.5q0 6 4 11t11 5t12 -5z
M1455 786q33 -14 55 -35t35 -46t18 -53.5t4 -58.5q-2 -40 -16 -89.5t-34 -93t-42 -73t-40 -28.5q-8 0 -8 15q0 6 10.5 27.5t23 50.5t23 62.5t11.5 64.5q2 29 -9.5 53t-41.5 35q5 -11 6.5 -24t1.5 -27q-2 -26 -9 -54.5t-17 -55.5t-21 -50t-20 -39q-16 -29 -25 -37t-15 -7
q-5 0 -6.5 4.5t-1.5 8.5q1 5 2 5.5t3 2.5q8 15 17.5 38t17.5 49t13.5 54t6.5 53q1 31 -6.5 54t-27.5 31q-26 -4 -54 -15t-59 -32t-65 -54t-70 -79q-44 -56 -87.5 -86t-83.5 -43.5t-75.5 -15t-63.5 -0.5q-27 2 -66 2.5t-76 1.5l-88 2q-3 3 -3 7q0 8 15.5 16.5t47.5 9.5
q6 0 30 -2t57.5 -4t71.5 -1.5t72.5 5t60.5 15.5t36 31q2 4 4 6t2 4q0 6 -10 9t-25 4q-22 -12 -46 -19.5t-44 -6.5q-18 1 -32 10q-36 -9 -70 -9q-28 1 -55 14.5t-52 33t-48 42l-44 42.5q-14 14 -22.5 19.5t-15.5 5.5q-5 0 -11.5 -2.5t-14.5 -1.5q-19 0 -19 16q2 6 12 16t33 9
q14 0 27 -6t23.5 -13.5t19 -15.5t13.5 -12l50 -46.5t47 -37.5t46 -21t47 3q-16 25 -25 57t-8 61q1 22 9.5 41.5t19 33.5t21.5 21.5t17 7.5q2 0 5 -7.5t5.5 -18t4.5 -22t3 -19.5q28 -10 51.5 -20.5t43.5 -20.5l10 10l12.5 12t12 10t8.5 4q4 -1 11.5 -11t12.5 -26
q12 14 26 33.5t34 42.5q30 36 71.5 70.5t87 61.5t91 43t83.5 15q11 -1 21 -3l21 -4q39 53 55.5 84t17.5 54q3 23 -16 42q-35 32 -70 54.5t-63 43t-45 43.5t-16 57q1 1 4.5 15.5t10 31t16 29.5t21.5 13q5 0 10.5 -3.5t5.5 -11.5q0 -3 -2 -6t-4 -5q-14 -18 -22 -34.5
t-10 -33.5q2 -25 18 -45t46 -41l69.5 -49.5t46.5 -35t26 -30.5t7 -36q-1 -29 -21 -62.5t-57 -83.5zM790 489q0 3 -1.5 6t-5.5 4q-10 0 -10 -8q0 -9 9 -9q7 0 8 7zM825 423q0 4 -5 7t-11 3q-6 1 -6 -5q0 -5 2 -10t8 -5q4 0 7 3t5 6v1zM907 454q0 10 -10 10q-8 0 -8 -10
q0 -7 9 -7q7 0 9 6v1zM1685 164h-57v100h14v-87h43v-13z" />
    <glyph glyph-name="four" unicode="4" horiz-adv-x="2048" 
d="M1649 -35q4 -8 6.5 -16.5t2.5 -19.5q0 -6 -3 -18t-11 -24t-22 -21t-36 -9q-17 0 -30 6.5t-22.5 16.5t-14.5 23t-5 26q0 33 22.5 52.5t49.5 19.5q23 0 39 -11t24 -25zM955 -35q4 -8 6.5 -16.5t2.5 -19.5q0 -32 -21.5 -52t-50.5 -20q-17 0 -30.5 6.5t-22.5 17t-14 23
t-5 25.5q0 18 6.5 31.5t17 22.5t23.5 13.5t25 4.5q23 0 39 -11t24 -25zM1804 -1q2 0 2.5 0.5t2.5 0.5h26v-142h-26v104q-1 -2 -1 -3.5t-1 -3.5l-19 -49t-20 -48h-24l-37 90q-2 4 -2 7l-2 6v-103h-26v142h25q9 0 15 -7l3 -4l8 -21.5t9 -21.5l17 -43q2 -2 2 -9v-1q0 2 1 5t1 5
l5 10l29 76q4 7 12 10zM1083 0h26v-142h-24l-68 95q-1 1 -1 1.5t-1 1.5l-2 4q-2 2 -2 3l-2 3v-108h-26v142h23q11 0 21.5 -16l21.5 -32l30 -41q4 -8 4 -11v100zM653 0l62 -142h-16q-10 0 -17 11l-8 19h-65l-8 -19q-2 -4 -6.5 -7.5t-10.5 -3.5h-16l62 142h23zM1499 200
q-5 -11 -15 -24t-35 -13q-20 0 -35.5 13.5t-15.5 36.5q0 17 12.5 34.5t38.5 17.5q20 0 35.5 -14t15.5 -38q0 -8 -1 -13zM262 0h105v-12q0 -5 -1 -7l-3 -6l-70 -94q1 0 2 1t4 1h67v-25h-108v8q0 8 3 13l3 6q3 3 4 5l62 85h-68v25zM762 200q-5 -13 -15.5 -25t-33.5 -12
q-20 0 -36 14t-16 36q0 21 15.5 36.5t36.5 15.5q22 0 36.5 -15.5t14.5 -36.5q0 -3 -0.5 -6t-1.5 -7zM384 0h91v-25h-65v-33h53v-25h-53v-34h65v-25h-91v142zM1416 -38q-6 -7 -10 -15.5t-4 -17.5q0 -19 14 -32.5t33 -13.5q13 0 19.5 5.5t16.5 5.5q8 0 14 -6l5 -5
q-11 -14 -25.5 -20t-29.5 -6q-33 0 -52.5 22.5t-19.5 49.5t19.5 49.5t52.5 22.5q14 0 29 -6.5t26 -19.5l-5 -6q-5 -5 -14 -5q-8 0 -16.5 5.5t-19.5 5.5q-9 0 -17.5 -4t-15.5 -9zM1319 -73q9 -8 9 -25q0 -22 -16.5 -33.5t-33.5 -11.5q-20 0 -31 10.5t-16 20.5q2 1 3.5 2
t3.5 2l4 1q2 0 2.5 0.5t2.5 0.5q10 0 15.5 -5.5t15.5 -5.5q5 0 8 1l8 3q9 7 9 15q0 7 -9 12q-8 5 -17.5 8t-18 7.5t-14.5 12t-6 20.5q0 21 15 30t29 9q10 0 21 -6t19 -17l-5 -4q-8 -5 -15 -5h-3q-4 1 -8 3.5t-9 2.5q-18 0 -18 -13q0 -6 4 -8.5t9 -4.5l17 -6q17 -5 25 -16z
M1245 48q-6 7 -10 15.5t-4 17.5q0 21 15 34t32 13q20 0 33.5 -14.5t13.5 -32.5q0 -23 -15 -34.5t-32 -11.5q-20 0 -33 13zM1706 48q-13 -13 -33 -13q-19 0 -33 13t-14 33q0 14 12 30.5t35 16.5q17 0 32 -12.5t15 -34.5q0 -19 -14 -33zM1629 -89q2 5 3 9t1 9q0 21 -15 33.5
t-32 12.5t-31.5 -13t-14.5 -33t14 -33t32 -13q16 0 26 7.5t17 20.5zM935 -89q2 5 3 9t1 9q0 20 -14 33t-33 13q-17 0 -31.5 -12.5t-14.5 -33.5q0 -20 14 -33t32 -13q30 0 43 28zM721 0h90v-25h-65v-36h55v-25h-55v-56h-25v142zM1121 0h109v-25h-42v-117h-26v117h-41v25z
M589 -25h-41v-117h-26v117h-42v25h109v-25zM571 164q-10 0 -12 6l-26 35h-15v-41h-14v100h36q12 0 20.5 -8.5t8.5 -21.5q0 -20 -20 -27l31 -43h-9zM1476 240q-11 11 -27 11q-14 0 -25.5 -10.5t-11.5 -27.5q0 -11 9 -24t28 -13q15 0 26.5 11t11.5 26q0 18 -11 27zM739 240
q-9 11 -26 11q-14 0 -26 -10.5t-12 -27.5q0 -11 9 -24t29 -13q14 0 25.5 10.5t11.5 26.5t-11 27zM970 164q-7 0 -10 6l-7 16h-51l-7 -16q-3 -6 -10 -6h-8l44 100h13l44 -100h-8zM408 220q-3 -8 -10.5 -13.5t-18.5 -5.5h-22v-37h-13v100h35q14 0 23 -10t9 -22q0 -6 -3 -12z
M1673 45q17 0 26.5 11t9.5 25q0 18 -11.5 27t-24.5 9q-14 0 -25 -10t-11 -26q0 -11 9 -23.5t27 -12.5zM1245 95q-3 -6 -3 -14q0 -15 10.5 -25.5t25.5 -10.5q18 0 27 11.5t9 24.5q0 14 -9.5 25t-26.5 11q-10 0 -19 -5t-14 -17zM867 164h-11l-57 78q-1 1 -2 4v-82h-14v100h10
q7 0 10 -4l48 -67q2 -4 2 -7v78h14v-100zM1604 164h-12l-57 78q-1 0 -1 4l-1 2v-84h-14v100h10q6 0 10 -4l48 -67q2 -2 2 -3.5t1 -3.5v78h14v-100zM1093 78q-2 -1 -8 -3l30 -39h-6q-8 0 -11 5l-25 34h-16v-39h-10v91h32q12 0 19 -8.5t7 -17.5q0 -8 -3.5 -13.5t-8.5 -9.5z
M1602 84q-5 -7 -14 -9l29 -39h-6q-8 0 -10 5l-25 34h-17v-39h-10v91h32q12 0 19.5 -8t7.5 -18q0 -11 -6 -17zM1822 125q4 2 5 2h8v-91h-10v75l-1 -2v-1v-1l-9 -20q-4 -10 -8.5 -18.5t-6.5 -16.5l-8 -16h-10q-5 8 -8.5 17t-7.5 18l-16 36v1q0 1 -0.5 1t-0.5 1v-74h-10v91h8
q2 0 5 -2t3 -4l31 -70v-2q0 -1 1 -1q0 1 0.5 2t0.5 2l31 69q1 2 3 4zM483 250h-48v-29h39v-14h-39v-30h48v-13h-62v100h62v-14zM1341 250l-48 1v-30h39v-14h-39v-30h48v-13h-62v100h62v-14zM1182 203q0 -12 -4.5 -19.5t-11 -12.5t-13.5 -7t-11 -2q-20 0 -30 13.5t-10 27.5
v61h13v-61q0 -11 8 -19t19 -8q10 0 18 7.5t8 19.5v61h14v-61zM1352 36h-10v91h7q5 0 8 -4l47 -66q2 -2 2 -5v75h10v-91h-9l-54 75q-1 0 -0.5 1.5t-0.5 2.5v-79zM648 181q-11 -18 -32 -18q-8 0 -19 4.5t-11 12.5q-1 0 -1 2l3 1q2 2 6 2t7 -3l2 -1q3 -5 13 -5q5 0 12.5 4
t7.5 13t-6 11.5t-14 5.5l-10 5q-17 7 -17 24q0 16 11 21t19 5q4 0 8.5 -1.5t6.5 -3.5l7 -5q2 -2 3 -2.5t2 -2.5l-4 -2q-3 -3 -7 -3q-5 0 -8 3t-8 3q-4 0 -6 -1l-6 -2q-4 -3 -4 -9q0 -5 1.5 -7.5t7.5 -4.5l9 -3q2 -1 4.5 -2t5.5 -2l4 -2q8 -3 11.5 -10t3.5 -15q0 -4 -2 -12z
M1259 181q-10 -18 -31 -18q-11 0 -17 4t-12 10l-3 5l4 1q2 2 5 2q5 0 8 -3l1 -1q5 -5 14 -5q8 0 14 5t6 12q0 6 -6 12l-14 5l-10 5q-18 7 -18 24q0 14 10.5 20t20.5 6q8 0 15 -5l7 -5l5 -5l-4 -2q-3 -3 -7 -3q-5 0 -9 3t-7 3q-5 0 -7 -1l-5 -2q-5 -3 -5 -9q0 -7 10 -12l8 -3
q4 -2 5 -2l10 -4q8 -3 11.5 -10t3.5 -15q0 -6 -3 -12zM265 58q-4 4 -5.5 10.5t-1.5 12.5q0 20 14 33.5t33 13.5q9 0 18 -3.5t15 -10.5l-2 -2q-2 -2 -4 -2h-2q-6 0 -11.5 3.5t-13.5 3.5q-15 0 -26 -10.5t-11 -25.5q0 -17 12 -26.5t25 -9.5q12 0 23 6v19h-7q-4 0 -6.5 3
t-2.5 6v1h26v-35q-7 -8 -24 -10h-9q-15 0 -25 6.5t-15 16.5zM1729 215q-4 -4 -3 -4l-1 -2v-3v-42h-14v45q-1 1 -1 2l-3 4l-36 49h10q8 0 12 -7l24 -32l1 -1v-2v1q0 2 1 2l24 32q3 7 12 7h10zM980 116v-29h37v-10h-37v-31h45v-10h-55v91h55v-11h-45zM371 116v-29h36v-10h-36
v-31h45v-10h-56v91l56 -1v-10h-45zM635 127v-56q0 -11 7.5 -18.5t18.5 -7.5q10 0 18.5 7t8.5 19v56h10v-56q0 -19 -12.5 -27.5t-24.5 -8.5q-15 0 -25.5 10t-10.5 26v56h10zM913 36l-40 91h6q2 0 4.5 -1.5t3.5 -4.5l30 -68q0 -2 0.5 -3t0.5 -2v2q0 1 0.5 1.5t0.5 1.5l30 68
q2 6 8 6h5l-39 -91h-10zM1045 164h-57v100h13v-87h44v-13zM1163 49q6 4 6 12q0 11 -12 16l-7 2q-7 2 -15.5 6.5t-8.5 18.5q0 9 7.5 16.5t18.5 7.5q2 0 4 -0.5t4 -0.5l6 -3q2 -2 3 -2.5t2 -1.5l5 -4l-3 -2q-1 -2 -5 -2q-3 0 -5 1l-5 3q-2 0 -3 0.5t-3 0.5q-16 0 -16 -13
q0 -8 9 -12l9 -3q2 -2 6 -3t7 -3l4 -2q9 -9 9 -20q0 -14 -10 -20t-21 -6q-10 0 -18.5 5.5t-8.5 10.5l2 1q1 1 4 1q5 0 10 -4t11 -4q9 0 14 4zM563 116v-31h38v-10h-38v-39h-11v91h56v-11h-45zM1493 116v-31h38v-10h-38v-39h-10v91h55v-11h-45zM456 36v80h-29v11h68v-11h-29
v-80h-10zM727 127v-81h41v-10h-51v91h10zM789 127v-81h41v-10h-51v91h10zM392 245q-7 5 -13 5h-22v-36h22q8 0 13 5.5t5 12.5q0 8 -5 13zM1588 86q5 2 7 6t2 9q0 6 -4 10.5t-12 4.5h-22v-31h22q5 0 7 1zM1079 85q5 0 10.5 4t5.5 12q0 6 -5 10.5t-11 4.5h-22v-31h22zM554 228
q1 2 1 6q0 6 -4 11t-11 5h-22v-31h22q4 0 6 1l5 3zM662 -86l-18 43q-2 3 -2 5t-1 4q0 -1 -2 -9l-18 -43h41zM1210 127v-91h-10v91h10zM927 244l-19 -44h39l-19 42q0 1 -0.5 2t-0.5 3v-3zM1363 -117q4 -4 4 -11q0 -15 -16 -15q-5 0 -10 3.5t-5 11.5q0 6 4 11t11 5t12 -5z
M308 477q7 32 20.5 69.5t30 75.5t35.5 73.5t37 63.5q13 20 18 34t5 25q-1 17 -15.5 23.5l-31.5 13.5t-31.5 19.5t-15.5 41.5q0 13 4.5 26.5t18.5 27.5q1 30 16 50.5t34 21.5q6 0 6 -2q0 -4 -5 -13t-5 -21q6 3 15.5 6.5t19.5 6.5t17.5 5l7.5 2q16 14 34.5 22.5t24.5 8.5
q4 4 6 -13q0 -13 -2 -21q41 -11 58.5 -31.5t18.5 -40.5q2 -21 -12 -39.5t-33 -29.5l19.5 -39t28.5 -70q11 7 25.5 13t30.5 7q25 0 41 -15.5t17 -26.5q0 -12 -13 -23t-27 -11q-7 0 -12 3.5t-10 8t-10 8t-12 3.5q-3 -1 -7 -2.5t-9 -5.5l6 -27t5 -27q20 -2 31 -17t12 -22
q1 -13 -12 -24t-27 -12q-2 -18 -6 -35.5l-7.5 -34t-6 -32t-1.5 -29.5q0 -19 4.5 -34.5t12.5 -29.5q25 -17 58 -28.5t70 -17.5t76 -7.5t76 0.5q58 2 122 25.5t132.5 57t140 72.5t143 72.5t143 57.5t139.5 27q59 3 102.5 -25t60.5 -98q1 -5 1.5 -9t0.5 -8q1 -15 -2.5 -23
t-7.5 -11.5t-8 -4.5t-5 -1q-14 -1 -19.5 9.5t-14 23.5t-25 23t-50.5 9q-42 -2 -102 -21.5t-130.5 -48.5l-148.5 -62t-155.5 -62t-150 -49.5t-132.5 -22.5q-38 -2 -79.5 0.5t-81.5 9t-76 17t-64 24.5q-9 4 -26 2q11 1 11 0t-11.5 -3.5t-30.5 -5t-44.5 -5t-53.5 -3.5
q-37 -2 -76 -1t-70.5 7t-52 18.5t-21.5 32.5q-2 23 3 49t10 49zM582 929q2 -4 8 -4q7 0 7 7t-6 6q-9 0 -9 -9zM539 886q1 -3 4 -6.5t6 -3.5q12 3 12 14q0 5 -7 5q-7 -1 -11 -2.5t-4 -6.5zM444 900q0 -5 3.5 -6t7.5 -1q8 0 8 7q0 8 -11 8q-8 0 -8 -8zM1685 164h-57v100h14
v-87h43v-13z" />
    <glyph glyph-name="five" unicode="5" horiz-adv-x="2048" 
d="M1649 -35q4 -8 6.5 -16.5t2.5 -19.5q0 -6 -3 -18t-11 -24t-22 -21t-36 -9q-17 0 -30 6.5t-22.5 16.5t-14.5 23t-5 26q0 33 22.5 52.5t49.5 19.5q23 0 39 -11t24 -25zM955 -35q4 -8 6.5 -16.5t2.5 -19.5q0 -32 -21.5 -52t-50.5 -20q-17 0 -30.5 6.5t-22.5 17t-14 23
t-5 25.5q0 18 6.5 31.5t17 22.5t23.5 13.5t25 4.5q23 0 39 -11t24 -25zM1804 -1q2 0 2.5 0.5t2.5 0.5h26v-142h-26v104q-1 -2 -1 -3.5t-1 -3.5l-19 -49t-20 -48h-24l-37 90q-2 4 -2 7l-2 6v-103h-26v142h25q9 0 15 -7l3 -4l8 -21.5t9 -21.5l17 -43q2 -2 2 -9v-1q0 2 1 5t1 5
l5 10l29 76q4 7 12 10zM1083 0h26v-142h-24l-68 95q-1 1 -1 1.5t-1 1.5l-2 4q-2 2 -2 3l-2 3v-108h-26v142h23q11 0 21.5 -16l21.5 -32l30 -41q4 -8 4 -11v100zM653 0l62 -142h-16q-10 0 -17 11l-8 19h-65l-8 -19q-2 -4 -6.5 -7.5t-10.5 -3.5h-16l62 142h23zM1499 200
q-5 -11 -15 -24t-35 -13q-20 0 -35.5 13.5t-15.5 36.5q0 17 12.5 34.5t38.5 17.5q20 0 35.5 -14t15.5 -38q0 -8 -1 -13zM262 0h105v-12q0 -5 -1 -7l-3 -6l-70 -94q1 0 2 1t4 1h67v-25h-108v8q0 8 3 13l3 6q3 3 4 5l62 85h-68v25zM762 200q-5 -13 -15.5 -25t-33.5 -12
q-20 0 -36 14t-16 36q0 21 15.5 36.5t36.5 15.5q22 0 36.5 -15.5t14.5 -36.5q0 -3 -0.5 -6t-1.5 -7zM384 0h91v-25h-65v-33h53v-25h-53v-34h65v-25h-91v142zM1416 -38q-6 -7 -10 -15.5t-4 -17.5q0 -19 14 -32.5t33 -13.5q13 0 19.5 5.5t16.5 5.5q8 0 14 -6l5 -5
q-11 -14 -25.5 -20t-29.5 -6q-33 0 -52.5 22.5t-19.5 49.5t19.5 49.5t52.5 22.5q14 0 29 -6.5t26 -19.5l-5 -6q-5 -5 -14 -5q-8 0 -16.5 5.5t-19.5 5.5q-9 0 -17.5 -4t-15.5 -9zM1319 -73q9 -8 9 -25q0 -22 -16.5 -33.5t-33.5 -11.5q-20 0 -31 10.5t-16 20.5q2 1 3.5 2
t3.5 2l4 1q2 0 2.5 0.5t2.5 0.5q10 0 15.5 -5.5t15.5 -5.5q5 0 8 1l8 3q9 7 9 15q0 7 -9 12q-8 5 -17.5 8t-18 7.5t-14.5 12t-6 20.5q0 21 15 30t29 9q10 0 21 -6t19 -17l-5 -4q-8 -5 -15 -5h-3q-4 1 -8 3.5t-9 2.5q-18 0 -18 -13q0 -6 4 -8.5t9 -4.5l17 -6q17 -5 25 -16z
M1245 48q-6 7 -10 15.5t-4 17.5q0 21 15 34t32 13q20 0 33.5 -14.5t13.5 -32.5q0 -23 -15 -34.5t-32 -11.5q-20 0 -33 13zM1706 48q-13 -13 -33 -13q-19 0 -33 13t-14 33q0 14 12 30.5t35 16.5q17 0 32 -12.5t15 -34.5q0 -19 -14 -33zM1629 -89q2 5 3 9t1 9q0 21 -15 33.5
t-32 12.5t-31.5 -13t-14.5 -33t14 -33t32 -13q16 0 26 7.5t17 20.5zM935 -89q2 5 3 9t1 9q0 20 -14 33t-33 13q-17 0 -31.5 -12.5t-14.5 -33.5q0 -20 14 -33t32 -13q30 0 43 28zM721 0h90v-25h-65v-36h55v-25h-55v-56h-25v142zM1121 0h109v-25h-42v-117h-26v117h-41v25z
M589 -25h-41v-117h-26v117h-42v25h109v-25zM571 164q-10 0 -12 6l-26 35h-15v-41h-14v100h36q12 0 20.5 -8.5t8.5 -21.5q0 -20 -20 -27l31 -43h-9zM1476 240q-11 11 -27 11q-14 0 -25.5 -10.5t-11.5 -27.5q0 -11 9 -24t28 -13q15 0 26.5 11t11.5 26q0 18 -11 27zM739 240
q-9 11 -26 11q-14 0 -26 -10.5t-12 -27.5q0 -11 9 -24t29 -13q14 0 25.5 10.5t11.5 26.5t-11 27zM970 164q-7 0 -10 6l-7 16h-51l-7 -16q-3 -6 -10 -6h-8l44 100h13l44 -100h-8zM408 220q-3 -8 -10.5 -13.5t-18.5 -5.5h-22v-37h-13v100h35q14 0 23 -10t9 -22q0 -6 -3 -12z
M1673 45q17 0 26.5 11t9.5 25q0 18 -11.5 27t-24.5 9q-14 0 -25 -10t-11 -26q0 -11 9 -23.5t27 -12.5zM1245 95q-3 -6 -3 -14q0 -15 10.5 -25.5t25.5 -10.5q18 0 27 11.5t9 24.5q0 14 -9.5 25t-26.5 11q-10 0 -19 -5t-14 -17zM867 164h-11l-57 78q-1 1 -2 4v-82h-14v100h10
q7 0 10 -4l48 -67q2 -4 2 -7v78h14v-100zM1604 164h-12l-57 78q-1 0 -1 4l-1 2v-84h-14v100h10q6 0 10 -4l48 -67q2 -2 2 -3.5t1 -3.5v78h14v-100zM1093 78q-2 -1 -8 -3l30 -39h-6q-8 0 -11 5l-25 34h-16v-39h-10v91h32q12 0 19 -8.5t7 -17.5q0 -8 -3.5 -13.5t-8.5 -9.5z
M1602 84q-5 -7 -14 -9l29 -39h-6q-8 0 -10 5l-25 34h-17v-39h-10v91h32q12 0 19.5 -8t7.5 -18q0 -11 -6 -17zM1822 125q4 2 5 2h8v-91h-10v75l-1 -2v-1v-1l-9 -20q-4 -10 -8.5 -18.5t-6.5 -16.5l-8 -16h-10q-5 8 -8.5 17t-7.5 18l-16 36v1q0 1 -0.5 1t-0.5 1v-74h-10v91h8
q2 0 5 -2t3 -4l31 -70v-2q0 -1 1 -1q0 1 0.5 2t0.5 2l31 69q1 2 3 4zM483 250h-48v-29h39v-14h-39v-30h48v-13h-62v100h62v-14zM1341 250l-48 1v-30h39v-14h-39v-30h48v-13h-62v100h62v-14zM1182 203q0 -12 -4.5 -19.5t-11 -12.5t-13.5 -7t-11 -2q-20 0 -30 13.5t-10 27.5
v61h13v-61q0 -11 8 -19t19 -8q10 0 18 7.5t8 19.5v61h14v-61zM1352 36h-10v91h7q5 0 8 -4l47 -66q2 -2 2 -5v75h10v-91h-9l-54 75q-1 0 -0.5 1.5t-0.5 2.5v-79zM648 181q-11 -18 -32 -18q-8 0 -19 4.5t-11 12.5q-1 0 -1 2l3 1q2 2 6 2t7 -3l2 -1q3 -5 13 -5q5 0 12.5 4
t7.5 13t-6 11.5t-14 5.5l-10 5q-17 7 -17 24q0 16 11 21t19 5q4 0 8.5 -1.5t6.5 -3.5l7 -5q2 -2 3 -2.5t2 -2.5l-4 -2q-3 -3 -7 -3q-5 0 -8 3t-8 3q-4 0 -6 -1l-6 -2q-4 -3 -4 -9q0 -5 1.5 -7.5t7.5 -4.5l9 -3q2 -1 4.5 -2t5.5 -2l4 -2q8 -3 11.5 -10t3.5 -15q0 -4 -2 -12z
M1259 181q-10 -18 -31 -18q-11 0 -17 4t-12 10l-3 5l4 1q2 2 5 2q5 0 8 -3l1 -1q5 -5 14 -5q8 0 14 5t6 12q0 6 -6 12l-14 5l-10 5q-18 7 -18 24q0 14 10.5 20t20.5 6q8 0 15 -5l7 -5l5 -5l-4 -2q-3 -3 -7 -3q-5 0 -9 3t-7 3q-5 0 -7 -1l-5 -2q-5 -3 -5 -9q0 -7 10 -12l8 -3
q4 -2 5 -2l10 -4q8 -3 11.5 -10t3.5 -15q0 -6 -3 -12zM265 58q-4 4 -5.5 10.5t-1.5 12.5q0 20 14 33.5t33 13.5q9 0 18 -3.5t15 -10.5l-2 -2q-2 -2 -4 -2h-2q-6 0 -11.5 3.5t-13.5 3.5q-15 0 -26 -10.5t-11 -25.5q0 -17 12 -26.5t25 -9.5q12 0 23 6v19h-7q-4 0 -6.5 3
t-2.5 6v1h26v-35q-7 -8 -24 -10h-9q-15 0 -25 6.5t-15 16.5zM1729 215q-4 -4 -3 -4l-1 -2v-3v-42h-14v45q-1 1 -1 2l-3 4l-36 49h10q8 0 12 -7l24 -32l1 -1v-2v1q0 2 1 2l24 32q3 7 12 7h10zM980 116v-29h37v-10h-37v-31h45v-10h-55v91h55v-11h-45zM371 116v-29h36v-10h-36
v-31h45v-10h-56v91l56 -1v-10h-45zM635 127v-56q0 -11 7.5 -18.5t18.5 -7.5q10 0 18.5 7t8.5 19v56h10v-56q0 -19 -12.5 -27.5t-24.5 -8.5q-15 0 -25.5 10t-10.5 26v56h10zM913 36l-40 91h6q2 0 4.5 -1.5t3.5 -4.5l30 -68q0 -2 0.5 -3t0.5 -2v2q0 1 0.5 1.5t0.5 1.5l30 68
q2 6 8 6h5l-39 -91h-10zM1045 164h-57v100h13v-87h44v-13zM1163 49q6 4 6 12q0 11 -12 16l-7 2q-7 2 -15.5 6.5t-8.5 18.5q0 9 7.5 16.5t18.5 7.5q2 0 4 -0.5t4 -0.5l6 -3q2 -2 3 -2.5t2 -1.5l5 -4l-3 -2q-1 -2 -5 -2q-3 0 -5 1l-5 3q-2 0 -3 0.5t-3 0.5q-16 0 -16 -13
q0 -8 9 -12l9 -3q2 -2 6 -3t7 -3l4 -2q9 -9 9 -20q0 -14 -10 -20t-21 -6q-10 0 -18.5 5.5t-8.5 10.5l2 1q1 1 4 1q5 0 10 -4t11 -4q9 0 14 4zM563 116v-31h38v-10h-38v-39h-11v91h56v-11h-45zM1493 116v-31h38v-10h-38v-39h-10v91h55v-11h-45zM456 36v80h-29v11h68v-11h-29
v-80h-10zM727 127v-81h41v-10h-51v91h10zM789 127v-81h41v-10h-51v91h10zM392 245q-7 5 -13 5h-22v-36h22q8 0 13 5.5t5 12.5q0 8 -5 13zM1588 86q5 2 7 6t2 9q0 6 -4 10.5t-12 4.5h-22v-31h22q5 0 7 1zM1079 85q5 0 10.5 4t5.5 12q0 6 -5 10.5t-11 4.5h-22v-31h22zM554 228
q1 2 1 6q0 6 -4 11t-11 5h-22v-31h22q4 0 6 1l5 3zM662 -86l-18 43q-2 3 -2 5t-1 4q0 -1 -2 -9l-18 -43h41zM1210 127v-91h-10v91h10zM927 244l-19 -44h39l-19 42q0 1 -0.5 2t-0.5 3v-3zM1363 -117q4 -4 4 -11q0 -15 -16 -15q-5 0 -10 3.5t-5 11.5q0 6 4 11t11 5t12 -5z
M1363 1053q0 -55 -14 -87t-38 -49t-55.5 -23t-65.5 -9q-32 0 -71 1.5t-76 1.5q-65 0 -109 -10t-72 -28.5t-40 -44.5t-12 -57q0 -60 7 -89.5t15.5 -45t15.5 -27t7 -35.5t-6 -47t-17 -42q12 -6 23 -17t20 -23.5t14 -24.5t5 -21q0 -16 -10 -16q-5 0 -9.5 4.5l-10.5 10.5
t-12.5 10.5t-13.5 4.5q-14 0 -30.5 -7t-30.5 -7q-19 0 -35.5 5.5t-28.5 14.5q-17 -4 -33 -9t-33 -11q3 -12 5.5 -24t2.5 -22q0 -14 -5 -22.5t-13 -8.5q-6 0 -9 7.5l-6.5 16t-9.5 16t-18 7.5q-19 0 -39.5 -15t-37.5 -30q-44 -56 -78.5 -126.5t-62 -144t-49 -145l-37.5 -128.5
q-11 0 -17 21.5t-6 56.5q0 42 7.5 94.5t18.5 103.5q-8 -4 -17 -6l-18 -4q-8 -31 -13.5 -59.5t-9 -51.5t-5.5 -39.5t-3 -22.5q-2 -12 -5 -27t-7.5 -29t-10 -23.5t-10.5 -9.5t-9 20t-7 55.5t-5.5 84l-5.5 105.5q-48 14 -72 45t-24 74q0 23 7.5 50t24.5 59q0 12 5 31t12 36.5
t15 30t15 12.5t9.5 -8.5t7.5 -13.5q11 18 35.5 52t58.5 74t77.5 82t94 76t107 56t116.5 22q43 0 73.5 -8t54.5 -20q-5 23 -16.5 54t-11.5 63q0 49 26.5 83.5t66.5 57t86.5 35t86.5 18.5q76 8 129 8t86.5 5t48.5 20.5t15 55.5v13t-1 13q2 3 8.5 9.5t15.5 6.5q14 0 22 -7
t11.5 -17t4.5 -21.5t1 -19.5zM122 137q0 12 -10 12q-4 0 -6 -4t-2 -9t2 -8.5t6 -3.5q10 0 10 13zM201 71q0 6 -3.5 7.5t-9.5 1.5t-10 -1t-4 -7q0 -5 4 -9.5t10 -5.5q6 0 9.5 4.5t3.5 9.5zM271 141q0 10 -8 10t-8 -9q0 -5 2 -8.5t7 -3.5q3 0 5 3.5t2 7.5zM1685 164h-57v100
h14v-87h43v-13z" />
    <glyph glyph-name="six" unicode="6" horiz-adv-x="2048" 
d="M1493 116v-31h28q22 44 62 90l-48 67q-1 0 -1 4l-1 2v-84h-14v100h10q6 0 10 -4l48 -67q2 -2 2 -3.5t1 -3.5v78h14v-67q3 4 6.5 7t7.5 7l10 9v44h14v-31q8 8 16 14t16 13l-3 4h8l67 50t54 41t36.5 38t13.5 42t-6 40.5t-16 31.5q-18 -75 -65.5 -113.5t-107.5 -38.5
q-51 0 -100 1.5t-91.5 3t-75.5 3t-51 1.5h-48.5t-55.5 -4t-47.5 -13t-25.5 -27q-2 -9 -3.5 -18.5t-3.5 -18t-6.5 -14t-12.5 -5.5q-11 2 -20 18t-9 40q0 15 5 28t13 27q-34 -11 -65 -17q-9 -19 -12.5 -34.5t-3.5 -26.5q0 -14 6 -25t13 -20l13 -16.5t6 -15.5q0 -5 -5.5 -10
t-13.5 -5q-34 0 -60 29v-59h44v-13h-57v90q-7 13 -11 28t-4 32q0 11 2 22.5t5 24.5q-54 11 -86 43.5t-32 80.5q0 38 19 73t46 61q-5 13 -5 30q0 10 2.5 20.5t6.5 10.5q7 0 15 -11.5t14 -16.5l9 -5q18 7 38 9.5t40 2.5q14 0 29 -1.5t27 -4.5t20 -6t8 -6q8 5 19.5 9.5
t22.5 4.5q6 0 6 -4q0 -12 -8.5 -26t-8.5 -24q0 1 0 -2.5t2.5 -8t9 -8.5t19.5 -4q10 0 24 5t33 17.5t43.5 35t54.5 58.5q44 51 101 73t117 22q43 0 84.5 -10.5t76.5 -29.5t60.5 -45t36.5 -56q8 -20 10 -40t2 -40q11 -11 21.5 -28.5t19 -36.5t13.5 -38t5 -33q0 -36 -14 -70.5
t-34 -65.5t-42 -56.5l-38 -44.5l-33 -39.5l-31 -38.5l2 -2q15 -12 15 -34q0 -19 -14 -33q-13 -13 -33 -13q-13 0 -23 5q-8 -12 -15 -24.5l-13 -23.5l3 -2q16 -11 24 -25q4 -8 6.5 -16.5t2.5 -19.5q0 -6 -3 -18t-11 -24t-22 -21q-10 -6 -24 -8q6 -13 15.5 -24t18 -22
t15 -22.5t6.5 -23.5t-12.5 -18.5t-27.5 -6.5q-21 0 -41.5 9.5t-38.5 26t-31 39.5t-19 50q-2 -2 -5 -3q-14 -6 -29 -6q-33 0 -52.5 22.5t-19.5 49.5t19.5 49.5t52.5 22.5q14 0 29 -6q5 -2 9 -5q5 20 11.5 41t17.5 44h-23v-39h-10v91h55v-11h-45zM955 -35q4 -8 6.5 -16.5
t2.5 -19.5q0 -32 -21.5 -52t-50.5 -20q-17 0 -30.5 6.5t-22.5 17t-14 23t-5 25.5q0 18 6.5 31.5t17 22.5t23.5 13.5t25 4.5q23 0 39 -11t24 -25zM1804 -1q2 0 2.5 0.5t2.5 0.5h26v-142h-26v104q-1 -2 -1 -3.5t-1 -3.5l-19 -49t-20 -48h-24l-37 90q-2 4 -2 7l-2 6v-103h-26
v142h25q9 0 15 -7l3 -4l8 -21.5t9 -21.5l17 -43q1 -1 2 -7l1 2q1 3 1 5l5 10l29 76q4 7 12 10zM1083 0h26v-142h-24l-68 95l-2 3l-2 4q-2 2 -2 3l-2 3v-108h-26v142h23q11 0 21.5 -16l21.5 -32l30 -41q4 -8 4 -11v100zM653 0l62 -142h-16q-10 0 -17 11l-8 19h-65l-8 -19
q-2 -4 -6.5 -7.5t-10.5 -3.5h-16l62 142h23zM1499 200q-5 -11 -15 -24t-35 -13q-20 0 -35.5 13.5t-15.5 36.5q0 17 12.5 34.5t38.5 17.5q20 0 35.5 -14t15.5 -38q0 -8 -1 -13zM762 200q-5 -13 -15.5 -25t-33.5 -12q-20 0 -36 14t-16 36q0 21 15.5 36.5t36.5 15.5
q22 0 36.5 -15.5t14.5 -36.5q0 -3 -0.5 -6t-1.5 -7zM384 0h91v-25h-65v-33h53v-25h-53v-34h65v-25h-91v142zM262 0h105v-12q0 -5 -1 -7l-3 -6l-70 -94q1 0 2 1t4 1h67v-25h-108v8q0 8 3 13l3 6q3 3 4 5l62 85h-68v25zM1319 -73q9 -8 9 -25q0 -22 -16.5 -33.5t-33.5 -11.5
q-20 0 -31 10.5t-16 20.5q2 1 3.5 2t3.5 2l4 1q2 0 2.5 0.5t2.5 0.5q10 0 15.5 -5.5t15.5 -5.5q5 0 8 1l8 3q9 7 9 15q0 7 -9 12q-8 5 -17.5 8t-18 7.5t-14.5 12t-6 20.5q0 21 15 30t29 9q10 0 21 -6t19 -17l-5 -4q-8 -5 -15 -5h-3q-4 1 -8 3.5t-9 2.5q-18 0 -18 -13
q0 -6 4 -8.5t9 -4.5l17 -6q17 -5 25 -16zM1245 48q-6 7 -10 15.5t-4 17.5q0 21 15 34t32 13q20 0 33.5 -14.5t13.5 -32.5q0 -23 -15 -34.5t-32 -11.5q-20 0 -33 13zM935 -89q2 5 3 9t1 9q0 20 -14 33t-33 13q-17 0 -31.5 -12.5t-14.5 -33.5q0 -20 14 -33t32 -13q30 0 43 28z
M721 0h90v-25h-65v-36h55v-25h-55v-56h-25v142zM1416 -38q-6 -7 -10 -15.5t-4 -17.5q0 -19 14 -32.5t33 -13.5q13 0 19 6q5 4 11 5v10q0 14 1 29t3 31q-7 1 -15 6t-19 5q-9 0 -17.5 -4t-15.5 -9zM1121 0h109v-25h-42v-117h-26v117h-41v25zM589 -25h-41v-117h-26v117h-42v25
h109v-25zM571 164q-10 0 -12 6l-26 35h-15v-41h-14v100h36q12 0 20.5 -8.5t8.5 -21.5q0 -20 -20 -27l31 -43h-9zM1476 240q-11 11 -27 11q-14 0 -25.5 -10.5t-11.5 -27.5q0 -11 9 -24t28 -13q15 0 26.5 11t11.5 26q0 18 -11 27zM739 240q-9 11 -26 11q-14 0 -26 -10.5
t-12 -27.5q0 -11 9 -24t29 -13q14 0 25.5 10.5t11.5 26.5t-11 27zM970 164q-7 0 -10 6l-7 16h-51l-7 -16q-3 -6 -10 -6h-8l44 100h13l44 -100h-8zM408 220q-3 -8 -10.5 -13.5t-18.5 -5.5h-22v-37h-13v100h35q14 0 23 -10t9 -22q0 -6 -3 -12zM1245 95q-3 -6 -3 -14
q0 -15 10.5 -25.5t25.5 -10.5q18 0 27 11.5t9 24.5q0 14 -9.5 25t-26.5 11q-10 0 -19 -5t-14 -17zM867 164h-11l-57 78q-1 1 -2 4v-82h-14v100h10q7 0 10 -4l48 -67l2 -6v77h14v-100zM1822 125q4 2 5 2h8v-91h-10v75l-1 -2v-2l-9 -20q-4 -10 -8.5 -18.5t-6.5 -16.5l-8 -16
h-10q-5 8 -8.5 17t-7.5 18l-16 36v1l-1 2v-74h-10v91h8q2 0 5 -2t3 -4l31 -70v-2l1 -1q0 1 0.5 2t0.5 2l31 69q1 2 3 4zM1093 78q-2 -1 -8 -3l30 -39h-6q-8 0 -11 5l-25 34h-16v-39h-10v91h32q12 0 19 -8.5t7 -17.5q0 -8 -3.5 -13.5t-8.5 -9.5zM483 250h-48v-29h39v-14h-39
v-30h48v-13h-62v100h62v-14zM1341 250l-48 1v-30h39v-14h-39v-30h48v-13h-62v100h62v-14zM1182 203q0 -12 -4.5 -19.5t-11 -12.5t-13.5 -7t-11 -2q-20 0 -30 13.5t-10 27.5v61h13v-61q0 -11 8 -19t19 -8q10 0 18 7.5t8 19.5v61h14v-61zM648 181q-11 -18 -32 -18
q-8 0 -19 4.5t-11 12.5q-1 0 -1 2l3 1q2 2 6 2t7 -3l2 -1q3 -5 13 -5q5 0 12.5 4t7.5 13t-6 11.5t-14 5.5l-10 5q-17 7 -17 24q0 16 11 21t19 5q4 0 8.5 -1.5t6.5 -3.5l7 -5q2 -2 3 -2.5t2 -2.5l-4 -2q-3 -3 -7 -3q-5 0 -8 3t-8 3q-4 0 -6 -1l-6 -2q-4 -3 -4 -9
q0 -5 1.5 -7.5t7.5 -4.5l9 -3q2 -1 4.5 -2t5.5 -2l4 -2q8 -3 11.5 -10t3.5 -15q0 -4 -2 -12zM1259 181q-10 -18 -31 -18q-11 0 -17 4t-12 10l-3 5l4 1q2 2 5 2q5 0 8 -3l1 -1q5 -5 14 -5q8 0 14 5t6 12q0 6 -6 12l-14 5l-10 5q-18 7 -18 24q0 14 10.5 20t20.5 6q8 0 15 -5
l7 -5l5 -5l-4 -2q-3 -3 -7 -3q-5 0 -9 3t-7 3q-5 0 -7 -1l-5 -2q-5 -3 -5 -9q0 -7 10 -12l8 -3q4 -2 5 -2l10 -4q8 -3 11.5 -10t3.5 -15q0 -6 -3 -12zM1352 36h-10v91h7q5 0 8 -4l47 -66q2 -2 2 -5v75h10v-91h-9l-54 75l-1 1q1 2 0 3v-79zM265 58q-4 4 -5.5 10.5t-1.5 12.5
q0 20 14 33.5t33 13.5q9 0 18 -3.5t15 -10.5l-2 -2q-2 -2 -4 -2h-2q-6 0 -11.5 3.5t-13.5 3.5q-15 0 -26 -10.5t-11 -25.5q0 -17 12 -26.5t25 -9.5q12 0 23 6v19h-7q-4 0 -6.5 3t-2.5 6v1h26v-35q-7 -8 -24 -10h-9q-15 0 -25 6.5t-15 16.5zM1629 -89q2 5 3 9t1 9
q0 21 -15 34q-4 3 -8 5q-19 -46 -19 -81v-4q12 1 21 8q10 7 17 20zM371 116v-29h36v-10h-36v-31h45v-10h-56v91l56 -1v-10h-45zM980 116v-29h37v-10h-37v-31h45v-10h-55v91h55v-11h-45zM635 127v-56q0 -11 7.5 -18.5t18.5 -7.5q10 0 18.5 7t8.5 19v56h10v-56
q0 -19 -12.5 -27.5t-24.5 -8.5q-15 0 -25.5 10t-10.5 26v56h10zM1163 49q6 4 6 12q0 11 -12 16l-7 2q-7 2 -15.5 6.5t-8.5 18.5q0 9 7.5 16.5t18.5 7.5q2 0 4 -0.5t4 -0.5l6 -3q2 -2 3 -2.5t2 -1.5l5 -4l-3 -2q-1 -2 -5 -2q-3 0 -5 1l-5 3q-2 0 -3 0.5t-3 0.5q-16 0 -16 -13
q0 -8 9 -12l9 -3q2 -2 6 -3t7 -3l4 -2q9 -9 9 -20q0 -14 -10 -20t-21 -6q-10 0 -18.5 5.5t-8.5 10.5l2 1q1 1 4 1q5 0 10 -4t11 -4q9 0 14 4zM913 36l-40 91h6q2 0 4.5 -1.5t3.5 -4.5l30 -68q0 -2 0.5 -3t0.5 -2v2l1 3l30 68q2 6 8 6h5l-39 -91h-10zM563 116v-31h38v-10h-38
v-39h-11v91h56v-11h-45zM1673 45q17 0 26.5 11t9.5 25q0 18 -12 27q-23 -28 -42 -59q7 -4 18 -4zM456 36v80h-29v11h68v-11h-29v-80h-10zM727 127v-81h41v-10h-51v91h10zM789 127v-81h41v-10h-51v91h10zM392 245q-7 5 -13 5h-22v-36h22q8 0 13 5.5t5 12.5q0 8 -5 13z
M1079 85q5 0 10.5 4t5.5 12q0 6 -5 10.5t-11 4.5h-22v-31h22zM554 228q1 2 1 6q0 6 -4 11t-11 5h-22v-31h22q4 0 6 1l5 3zM662 -86l-18 43q-2 3 -2 5t-1 4q0 -1 -2 -9l-18 -43h41zM1210 127v-91h-10v91h10zM927 244l-19 -44h39l-19 42q0 1 -1 2zM1363 -117q4 -4 4 -11
q0 -15 -16 -15q-5 0 -10 3.5t-5 11.5q0 6 4 11t11 5t12 -5zM1021 472q0 7 -13 7q-6 0 -10 -1t-5 -6q0 -5 4.5 -9.5t9.5 -5.5q5 0 9.5 5t4.5 10zM1109 512q0 8 -10 8q-9 -3 -9 -11q1 -8 9 -8q5 0 7.5 3.5t2.5 7.5zM946 510q-2 8 -9 8q-7 -2 -7 -8q0 -9 7 -9q4 0 6.5 3.5
t2.5 5.5z" />
    <glyph glyph-name="seven" unicode="7" horiz-adv-x="2048" 
d="M1649 -35q4 -8 6.5 -16.5t2.5 -19.5q0 -6 -3 -18t-11 -24t-22 -21t-36 -9q-17 0 -30 6.5t-22.5 16.5t-14.5 23t-5 26q0 33 22.5 52.5t49.5 19.5q23 0 39 -11t24 -25zM955 -35q4 -8 6.5 -16.5t2.5 -19.5q0 -32 -21.5 -52t-50.5 -20q-17 0 -30.5 6.5t-22.5 17t-14 23
t-5 25.5q0 18 6.5 31.5t17 22.5t23.5 13.5t25 4.5q23 0 39 -11t24 -25zM1804 -1q2 0 2.5 0.5t2.5 0.5h26v-142h-26v104q-1 -2 -1 -3.5t-1 -3.5l-19 -49t-20 -48h-24l-37 90q-2 4 -2 7l-2 6v-103h-26v142h25q9 0 15 -7l3 -4l8 -21.5t9 -21.5l17 -43q2 -2 2 -9v-1q0 2 1 5t1 5
l5 10l29 76q4 7 12 10zM1083 0h26v-142h-24l-68 95q-1 1 -1 1.5t-1 1.5l-2 4q-2 2 -2 3l-2 3v-108h-26v142h23q11 0 21.5 -16l21.5 -32l30 -41q4 -8 4 -11v100zM653 0l62 -142h-16q-10 0 -17 11l-8 19h-65l-8 -19q-2 -4 -6.5 -7.5t-10.5 -3.5h-16l62 142h23zM1499 200
q-5 -11 -15 -24t-35 -13q-20 0 -35.5 13.5t-15.5 36.5q0 17 12.5 34.5t38.5 17.5q20 0 35.5 -14t15.5 -38q0 -8 -1 -13zM262 0h105v-12q0 -5 -1 -7l-3 -6l-70 -94q1 0 2 1t4 1h67v-25h-108v8q0 8 3 13l3 6q3 3 4 5l62 85h-68v25zM762 200q-5 -13 -15.5 -25t-33.5 -12
q-20 0 -36 14t-16 36q0 21 15.5 36.5t36.5 15.5q22 0 36.5 -15.5t14.5 -36.5q0 -3 -0.5 -6t-1.5 -7zM384 0h91v-25h-65v-33h53v-25h-53v-34h65v-25h-91v142zM1416 -38q-6 -7 -10 -15.5t-4 -17.5q0 -19 14 -32.5t33 -13.5q13 0 19.5 5.5t16.5 5.5q8 0 14 -6l5 -5
q-11 -14 -25.5 -20t-29.5 -6q-33 0 -52.5 22.5t-19.5 49.5t19.5 49.5t52.5 22.5q14 0 29 -6.5t26 -19.5l-5 -6q-5 -5 -14 -5q-8 0 -16.5 5.5t-19.5 5.5q-9 0 -17.5 -4t-15.5 -9zM1319 -73q9 -8 9 -25q0 -22 -16.5 -33.5t-33.5 -11.5q-20 0 -31 10.5t-16 20.5q2 1 3.5 2
t3.5 2l4 1q2 0 2.5 0.5t2.5 0.5q10 0 15.5 -5.5t15.5 -5.5q5 0 8 1l8 3q9 7 9 15q0 7 -9 12q-8 5 -17.5 8t-18 7.5t-14.5 12t-6 20.5q0 21 15 30t29 9q10 0 21 -6t19 -17l-5 -4q-8 -5 -15 -5h-3q-4 1 -8 3.5t-9 2.5q-18 0 -18 -13q0 -6 4 -8.5t9 -4.5l17 -6q17 -5 25 -16z
M1245 48q-6 7 -10 15.5t-4 17.5q0 21 15 34t32 13q20 0 33.5 -14.5t13.5 -32.5q0 -23 -15 -34.5t-32 -11.5q-20 0 -33 13zM1706 48q-13 -13 -33 -13q-19 0 -33 13t-14 33q0 14 12 30.5t35 16.5q17 0 32 -12.5t15 -34.5q0 -19 -14 -33zM1629 -89q2 5 3 9t1 9q0 21 -15 33.5
t-32 12.5t-31.5 -13t-14.5 -33t14 -33t32 -13q16 0 26 7.5t17 20.5zM935 -89q2 5 3 9t1 9q0 20 -14 33t-33 13q-17 0 -31.5 -12.5t-14.5 -33.5q0 -20 14 -33t32 -13q30 0 43 28zM721 0h90v-25h-65v-36h55v-25h-55v-56h-25v142zM1121 0h109v-25h-42v-117h-26v117h-41v25z
M589 -25h-41v-117h-26v117h-42v25h109v-25zM571 164q-10 0 -12 6l-26 35h-15v-41h-14v100h36q12 0 20.5 -8.5t8.5 -21.5q0 -20 -20 -27l31 -43h-9zM1476 240q-11 11 -27 11q-14 0 -25.5 -10.5t-11.5 -27.5q0 -11 9 -24t28 -13q15 0 26.5 11t11.5 26q0 18 -11 27zM739 240
q-9 11 -26 11q-14 0 -26 -10.5t-12 -27.5q0 -11 9 -24t29 -13q14 0 25.5 10.5t11.5 26.5t-11 27zM970 164q-7 0 -10 6l-7 16h-51l-7 -16q-3 -6 -10 -6h-8l44 100h13l44 -100h-8zM408 220q-3 -8 -10.5 -13.5t-18.5 -5.5h-22v-37h-13v100h35q14 0 23 -10t9 -22q0 -6 -3 -12z
M1673 45q17 0 26.5 11t9.5 25q0 18 -11.5 27t-24.5 9q-14 0 -25 -10t-11 -26q0 -11 9 -23.5t27 -12.5zM1245 95q-3 -6 -3 -14q0 -15 10.5 -25.5t25.5 -10.5q18 0 27 11.5t9 24.5q0 14 -9.5 25t-26.5 11q-10 0 -19 -5t-14 -17zM867 164h-11l-57 78q-1 1 -2 4v-82h-14v100h10
q7 0 10 -4l48 -67q2 -4 2 -7v78h14v-100zM1604 164h-12l-57 78q-1 0 -1 4l-1 2v-84h-14v100h10q6 0 10 -4l48 -67q2 -2 2 -3.5t1 -3.5v78h14v-100zM1093 78q-2 -1 -8 -3l30 -39h-6q-8 0 -11 5l-25 34h-16v-39h-10v91h32q12 0 19 -8.5t7 -17.5q0 -8 -3.5 -13.5t-8.5 -9.5z
M1602 84q-5 -7 -14 -9l29 -39h-6q-8 0 -10 5l-25 34h-17v-39h-10v91h32q12 0 19.5 -8t7.5 -18q0 -11 -6 -17zM1822 125q4 2 5 2h8v-91h-10v75l-1 -2v-1v-1l-9 -20q-4 -10 -8.5 -18.5t-6.5 -16.5l-8 -16h-10q-5 8 -8.5 17t-7.5 18l-16 36v1q0 1 -0.5 1t-0.5 1v-74h-10v91h8
q2 0 5 -2t3 -4l31 -70v-2q0 -1 1 -1q0 1 0.5 2t0.5 2l31 69q1 2 3 4zM483 250h-48v-29h39v-14h-39v-30h48v-13h-62v100h62v-14zM1341 250l-48 1v-30h39v-14h-39v-30h48v-13h-62v100h62v-14zM1182 203q0 -12 -4.5 -19.5t-11 -12.5t-13.5 -7t-11 -2q-20 0 -30 13.5t-10 27.5
v61h13v-61q0 -11 8 -19t19 -8q10 0 18 7.5t8 19.5v61h14v-61zM1352 36h-10v91h7q5 0 8 -4l47 -66q2 -2 2 -5v75h10v-91h-9l-54 75q-1 0 -0.5 1.5t-0.5 2.5v-79zM648 181q-11 -18 -32 -18q-8 0 -19 4.5t-11 12.5q-1 0 -1 2l3 1q2 2 6 2t7 -3l2 -1q3 -5 13 -5q5 0 12.5 4
t7.5 13t-6 11.5t-14 5.5l-10 5q-17 7 -17 24q0 16 11 21t19 5q4 0 8.5 -1.5t6.5 -3.5l7 -5q2 -2 3 -2.5t2 -2.5l-4 -2q-3 -3 -7 -3q-5 0 -8 3t-8 3q-4 0 -6 -1l-6 -2q-4 -3 -4 -9q0 -5 1.5 -7.5t7.5 -4.5l9 -3q2 -1 4.5 -2t5.5 -2l4 -2q8 -3 11.5 -10t3.5 -15q0 -4 -2 -12z
M1259 181q-10 -18 -31 -18q-11 0 -17 4t-12 10l-3 5l4 1q2 2 5 2q5 0 8 -3l1 -1q5 -5 14 -5q8 0 14 5t6 12q0 6 -6 12l-14 5l-10 5q-18 7 -18 24q0 14 10.5 20t20.5 6q8 0 15 -5l7 -5l5 -5l-4 -2q-3 -3 -7 -3q-5 0 -9 3t-7 3q-5 0 -7 -1l-5 -2q-5 -3 -5 -9q0 -7 10 -12l8 -3
q4 -2 5 -2l10 -4q8 -3 11.5 -10t3.5 -15q0 -6 -3 -12zM265 58q-4 4 -5.5 10.5t-1.5 12.5q0 20 14 33.5t33 13.5q9 0 18 -3.5t15 -10.5l-2 -2q-2 -2 -4 -2h-2q-6 0 -11.5 3.5t-13.5 3.5q-15 0 -26 -10.5t-11 -25.5q0 -17 12 -26.5t25 -9.5q12 0 23 6v19h-7q-4 0 -6.5 3
t-2.5 6v1h26v-35q-7 -8 -24 -10h-9q-15 0 -25 6.5t-15 16.5zM1729 215q-4 -4 -3 -4l-1 -2v-3v-42h-14v45q-1 1 -1 2l-3 4l-36 49h10q8 0 12 -7l24 -32l1 -1v-2v1q0 2 1 2l24 32q3 7 12 7h10zM980 116v-29h37v-10h-37v-31h45v-10h-55v91h55v-11h-45zM371 116v-29h36v-10h-36
v-31h45v-10h-56v91l56 -1v-10h-45zM635 127v-56q0 -11 7.5 -18.5t18.5 -7.5q10 0 18.5 7t8.5 19v56h10v-56q0 -19 -12.5 -27.5t-24.5 -8.5q-15 0 -25.5 10t-10.5 26v56h10zM913 36l-40 91h6q2 0 4.5 -1.5t3.5 -4.5l30 -68q0 -2 0.5 -3t0.5 -2v2q0 1 0.5 1.5t0.5 1.5l30 68
q2 6 8 6h5l-39 -91h-10zM1045 164h-57v100h13v-87h44v-13zM1163 49q6 4 6 12q0 11 -12 16l-7 2q-7 2 -15.5 6.5t-8.5 18.5q0 9 7.5 16.5t18.5 7.5q2 0 4 -0.5t4 -0.5l6 -3q2 -2 3 -2.5t2 -1.5l5 -4l-3 -2q-1 -2 -5 -2q-3 0 -5 1l-5 3q-2 0 -3 0.5t-3 0.5q-16 0 -16 -13
q0 -8 9 -12l9 -3q2 -2 6 -3t7 -3l4 -2q9 -9 9 -20q0 -14 -10 -20t-21 -6q-10 0 -18.5 5.5t-8.5 10.5l2 1q1 1 4 1q5 0 10 -4t11 -4q9 0 14 4zM563 116v-31h38v-10h-38v-39h-11v91h56v-11h-45zM1493 116v-31h38v-10h-38v-39h-10v91h55v-11h-45zM456 36v80h-29v11h68v-11h-29
v-80h-10zM727 127v-81h41v-10h-51v91h10zM789 127v-81h41v-10h-51v91h10zM392 245q-7 5 -13 5h-22v-36h22q8 0 13 5.5t5 12.5q0 8 -5 13zM1588 86q5 2 7 6t2 9q0 6 -4 10.5t-12 4.5h-22v-31h22q5 0 7 1zM1079 85q5 0 10.5 4t5.5 12q0 6 -5 10.5t-11 4.5h-22v-31h22zM554 228
q1 2 1 6q0 6 -4 11t-11 5h-22v-31h22q4 0 6 1l5 3zM662 -86l-18 43q-2 3 -2 5t-1 4q0 -1 -2 -9l-18 -43h41zM1210 127v-91h-10v91h10zM927 244l-19 -44h39l-19 42q0 1 -0.5 2t-0.5 3v-3zM1363 -117q4 -4 4 -11q0 -15 -16 -15q-5 0 -10 3.5t-5 11.5q0 6 4 11t11 5t12 -5z
M1629 722q9 -2 9 -8t-4.5 -13.5t-10 -14l-10 -12t-5.5 -6.5q0 -6 1 -11.5t1 -11.5q0 -28 -11.5 -52t-31.5 -41.5t-47 -27.5t-58 -10q-13 0 -27 1t-27 8q29 -23 48 -52t30 -55.5t15.5 -45t4.5 -19.5q0 -8 -8 -8q-1 0 -5.5 -0.5t-9.5 -1t-10 0t-6 2.5q-14 15 -27 20t-30 6
t-39.5 2t-53.5 7q-12 2 -27 12.5t-24 17.5q-7 -11 -5.5 -25t4.5 -28.5t4 -26.5t-6 -18h-52q-23 0 -39.5 8.5t-28.5 22.5t-20 31.5t-14 35.5l-65 -9.5t-64 -4.5q-5 0 -11 1t-11 1q-2 -4 -2.5 -7t-0.5 -6q0 -11 11 -20.5l21.5 -18t15.5 -16t-6 -14.5q-74 -5 -122.5 20.5
t-74.5 67.5q-47 -17 -47 -34q0 -4 2 -7q17 -17 25.5 -29.5t-5.5 -17.5q-16 -5 -37 -6.5t-40 6.5q-23 13 -40.5 42t-31 65.5t-22 78t-14 79t-8 67.5t-2.5 45q-19 11 -41.5 27t-41.5 38t-32 49.5t-13 61.5q0 68 31 115t76.5 76.5t97 42.5t91.5 13q55 0 91.5 -8.5t58.5 -22.5
t31 -32t9 -37q0 -27 -15.5 -49.5t-50.5 -22.5q-21 0 -46 8t-49.5 17.5l-45.5 17.5t-33 8q-15 0 -40.5 -10t-50 -29t-42.5 -47t-18 -64q0 -25 10.5 -50.5t33.5 -48.5q9 18 27 44t43.5 49.5t58.5 40.5t72 17q29 0 61.5 -11t69.5 -37l97 -68t77.5 -48t62.5 -28t54 -9
q24 0 42 7.5t36.5 19.5l42 26.5t59.5 27.5q1 3 8 16.5t17 28.5t21.5 26.5t21.5 11.5q7 0 13 -8.5t10.5 -21t7.5 -26.5t5 -25q26 -7 48 -22t39 -35l13 2.5t16 1.5q4 0 8 -1.5t7 -1.5zM1575 641q0 -3 2 -6t4 -3q11 0 11 16q0 4 -3 6.5t-6 2.5q-2 0 -5 -3t-3 -9v-4zM1473 687
q0 -10 9 -10q12 0 12 10q0 6 -3 10t-6 4q-12 0 -12 -9v-5zM1550 593q0 -4 1 -8.5t3 -6.5q3 0 9.5 3t6.5 8t-6.5 8t-9.5 3q-4 0 -4 -3v-4zM1685 164h-57v100h14v-87h43v-13z" />
    <glyph glyph-name="eight" unicode="8" horiz-adv-x="2048" 
d="M1649 -35q4 -8 6.5 -16.5t2.5 -19.5q0 -6 -3 -18t-11 -24t-22 -21t-36 -9q-17 0 -30 6.5t-22.5 16.5t-14.5 23t-5 26q0 33 22.5 52.5t49.5 19.5q23 0 39 -11t24 -25zM955 -35q4 -8 6.5 -16.5t2.5 -19.5q0 -32 -21.5 -52t-50.5 -20q-17 0 -30.5 6.5t-22.5 17t-14 23
t-5 25.5q0 18 6.5 31.5t17 22.5t23.5 13.5t25 4.5q23 0 39 -11t24 -25zM1804 -1q2 0 2.5 0.5t2.5 0.5h26v-142h-26v104q-1 -2 -1 -3.5t-1 -3.5l-19 -49t-20 -48h-24l-37 90q-2 4 -2 7l-2 6v-103h-26v142h25q9 0 15 -7l3 -4l8 -21.5t9 -21.5l17 -43q2 -2 2 -9v-1q0 2 1 5t1 5
l5 10l29 76q4 7 12 10zM1083 0h26v-142h-24l-68 95q-1 1 -1 1.5t-1 1.5l-2 4q-2 2 -2 3l-2 3v-108h-26v142h23q11 0 21.5 -16l21.5 -32l30 -41q4 -8 4 -11v100zM653 0l62 -142h-16q-10 0 -17 11l-8 19h-65l-8 -19q-2 -4 -6.5 -7.5t-10.5 -3.5h-16l62 142h23zM1499 200
q-5 -11 -15 -24t-35 -13q-20 0 -35.5 13.5t-15.5 36.5q0 17 12.5 34.5t38.5 17.5q20 0 35.5 -14t15.5 -38q0 -8 -1 -13zM262 0h105v-12q0 -5 -1 -7l-3 -6l-70 -94q1 0 2 1t4 1h67v-25h-108v8q0 8 3 13l3 6q3 3 4 5l62 85h-68v25zM762 200q-5 -13 -15.5 -25t-33.5 -12
q-20 0 -36 14t-16 36q0 21 15.5 36.5t36.5 15.5q22 0 36.5 -15.5t14.5 -36.5q0 -3 -0.5 -6t-1.5 -7zM384 0h91v-25h-65v-33h53v-25h-53v-34h65v-25h-91v142zM1416 -38q-6 -7 -10 -15.5t-4 -17.5q0 -19 14 -32.5t33 -13.5q13 0 19.5 5.5t16.5 5.5q8 0 14 -6l5 -5
q-11 -14 -25.5 -20t-29.5 -6q-33 0 -52.5 22.5t-19.5 49.5t19.5 49.5t52.5 22.5q14 0 29 -6.5t26 -19.5l-5 -6q-5 -5 -14 -5q-8 0 -16.5 5.5t-19.5 5.5q-9 0 -17.5 -4t-15.5 -9zM1319 -73q9 -8 9 -25q0 -22 -16.5 -33.5t-33.5 -11.5q-20 0 -31 10.5t-16 20.5q2 1 3.5 2
t3.5 2l4 1q2 0 2.5 0.5t2.5 0.5q10 0 15.5 -5.5t15.5 -5.5q5 0 8 1l8 3q9 7 9 15q0 7 -9 12q-8 5 -17.5 8t-18 7.5t-14.5 12t-6 20.5q0 21 15 30t29 9q10 0 21 -6t19 -17l-5 -4q-8 -5 -15 -5h-3q-4 1 -8 3.5t-9 2.5q-18 0 -18 -13q0 -6 4 -8.5t9 -4.5l17 -6q17 -5 25 -16z
M1245 48q-6 7 -10 15.5t-4 17.5q0 21 15 34t32 13q20 0 33.5 -14.5t13.5 -32.5q0 -23 -15 -34.5t-32 -11.5q-20 0 -33 13zM1706 48q-13 -13 -33 -13q-19 0 -33 13t-14 33q0 14 12 30.5t35 16.5q17 0 32 -12.5t15 -34.5q0 -19 -14 -33zM1629 -89q2 5 3 9t1 9q0 21 -15 33.5
t-32 12.5t-31.5 -13t-14.5 -33t14 -33t32 -13q16 0 26 7.5t17 20.5zM935 -89q2 5 3 9t1 9q0 20 -14 33t-33 13q-17 0 -31.5 -12.5t-14.5 -33.5q0 -20 14 -33t32 -13q30 0 43 28zM721 0h90v-25h-65v-36h55v-25h-55v-56h-25v142zM1121 0h109v-25h-42v-117h-26v117h-41v25z
M589 -25h-41v-117h-26v117h-42v25h109v-25zM571 164q-10 0 -12 6l-26 35h-15v-41h-14v100h36q12 0 20.5 -8.5t8.5 -21.5q0 -20 -20 -27l31 -43h-9zM1476 240q-11 11 -27 11q-14 0 -25.5 -10.5t-11.5 -27.5q0 -11 9 -24t28 -13q15 0 26.5 11t11.5 26q0 18 -11 27zM739 240
q-9 11 -26 11q-14 0 -26 -10.5t-12 -27.5q0 -11 9 -24t29 -13q14 0 25.5 10.5t11.5 26.5t-11 27zM970 164q-7 0 -10 6l-7 16h-51l-7 -16q-3 -6 -10 -6h-8l44 100h13l44 -100h-8zM408 220q-3 -8 -10.5 -13.5t-18.5 -5.5h-22v-37h-13v100h35q14 0 23 -10t9 -22q0 -6 -3 -12z
M1673 45q17 0 26.5 11t9.5 25q0 18 -11.5 27t-24.5 9q-14 0 -25 -10t-11 -26q0 -11 9 -23.5t27 -12.5zM1245 95q-3 -6 -3 -14q0 -15 10.5 -25.5t25.5 -10.5q18 0 27 11.5t9 24.5q0 14 -9.5 25t-26.5 11q-10 0 -19 -5t-14 -17zM867 164h-11l-57 78q-1 1 -2 4v-82h-14v100h10
q7 0 10 -4l48 -67q2 -4 2 -7v78h14v-100zM1604 164h-12l-57 78q-1 0 -1 4l-1 2v-84h-14v100h10q6 0 10 -4l48 -67q2 -2 2 -3.5t1 -3.5v78h14v-100zM1093 78q-2 -1 -8 -3l30 -39h-6q-8 0 -11 5l-25 34h-16v-39h-10v91h32q12 0 19 -8.5t7 -17.5q0 -8 -3.5 -13.5t-8.5 -9.5z
M1602 84q-5 -7 -14 -9l29 -39h-6q-8 0 -10 5l-25 34h-17v-39h-10v91h32q12 0 19.5 -8t7.5 -18q0 -11 -6 -17zM1822 125q4 2 5 2h8v-91h-10v75l-1 -2v-1v-1l-9 -20q-4 -10 -8.5 -18.5t-6.5 -16.5l-8 -16h-10q-5 8 -8.5 17t-7.5 18l-16 36v1q0 1 -0.5 1t-0.5 1v-74h-10v91h8
q2 0 5 -2t3 -4l31 -70v-2q0 -1 1 -1q0 1 0.5 2t0.5 2l31 69q1 2 3 4zM483 250h-48v-29h39v-14h-39v-30h48v-13h-62v100h62v-14zM1341 250l-48 1v-30h39v-14h-39v-30h48v-13h-62v100h62v-14zM1182 203q0 -12 -4.5 -19.5t-11 -12.5t-13.5 -7t-11 -2q-20 0 -30 13.5t-10 27.5
v61h13v-61q0 -11 8 -19t19 -8q10 0 18 7.5t8 19.5v61h14v-61zM1352 36h-10v91h7q5 0 8 -4l47 -66q2 -2 2 -5v75h10v-91h-9l-54 75q-1 0 -0.5 1.5t-0.5 2.5v-79zM648 181q-11 -18 -32 -18q-8 0 -19 4.5t-11 12.5q-1 0 -1 2l3 1q2 2 6 2t7 -3l2 -1q3 -5 13 -5q5 0 12.5 4
t7.5 13t-6 11.5t-14 5.5l-10 5q-17 7 -17 24q0 16 11 21t19 5q4 0 8.5 -1.5t6.5 -3.5l7 -5q2 -2 3 -2.5t2 -2.5l-4 -2q-3 -3 -7 -3q-5 0 -8 3t-8 3q-4 0 -6 -1l-6 -2q-4 -3 -4 -9q0 -5 1.5 -7.5t7.5 -4.5l9 -3q2 -1 4.5 -2t5.5 -2l4 -2q8 -3 11.5 -10t3.5 -15q0 -4 -2 -12z
M1259 181q-10 -18 -31 -18q-11 0 -17 4t-12 10l-3 5l4 1q2 2 5 2q5 0 8 -3l1 -1q5 -5 14 -5q8 0 14 5t6 12q0 6 -6 12l-14 5l-10 5q-18 7 -18 24q0 14 10.5 20t20.5 6q8 0 15 -5l7 -5l5 -5l-4 -2q-3 -3 -7 -3q-5 0 -9 3t-7 3q-5 0 -7 -1l-5 -2q-5 -3 -5 -9q0 -7 10 -12l8 -3
q4 -2 5 -2l10 -4q8 -3 11.5 -10t3.5 -15q0 -6 -3 -12zM265 58q-4 4 -5.5 10.5t-1.5 12.5q0 20 14 33.5t33 13.5q9 0 18 -3.5t15 -10.5l-2 -2q-2 -2 -4 -2h-2q-6 0 -11.5 3.5t-13.5 3.5q-15 0 -26 -10.5t-11 -25.5q0 -17 12 -26.5t25 -9.5q12 0 23 6v19h-7q-4 0 -6.5 3
t-2.5 6v1h26v-35q-7 -8 -24 -10h-9q-15 0 -25 6.5t-15 16.5zM1729 215q-4 -4 -3 -4l-1 -2v-3v-42h-14v45q-1 1 -1 2l-3 4l-36 49h10q8 0 12 -7l24 -32l1 -1v-2v1q0 2 1 2l24 32q3 7 12 7h10zM980 116v-29h37v-10h-37v-31h45v-10h-55v91h55v-11h-45zM371 116v-29h36v-10h-36
v-31h45v-10h-56v91l56 -1v-10h-45zM635 127v-56q0 -11 7.5 -18.5t18.5 -7.5q10 0 18.5 7t8.5 19v56h10v-56q0 -19 -12.5 -27.5t-24.5 -8.5q-15 0 -25.5 10t-10.5 26v56h10zM913 36l-40 91h6q2 0 4.5 -1.5t3.5 -4.5l30 -68q0 -2 0.5 -3t0.5 -2v2q0 1 0.5 1.5t0.5 1.5l30 68
q2 6 8 6h5l-39 -91h-10zM1045 164h-57v100h13v-87h44v-13zM1163 49q6 4 6 12q0 11 -12 16l-7 2q-7 2 -15.5 6.5t-8.5 18.5q0 9 7.5 16.5t18.5 7.5q2 0 4 -0.5t4 -0.5l6 -3q2 -2 3 -2.5t2 -1.5l5 -4l-3 -2q-1 -2 -5 -2q-3 0 -5 1l-5 3q-2 0 -3 0.5t-3 0.5q-16 0 -16 -13
q0 -8 9 -12l9 -3q2 -2 6 -3t7 -3l4 -2q9 -9 9 -20q0 -14 -10 -20t-21 -6q-10 0 -18.5 5.5t-8.5 10.5l2 1q1 1 4 1q5 0 10 -4t11 -4q9 0 14 4zM563 116v-31h38v-10h-38v-39h-11v91h56v-11h-45zM1493 116v-31h38v-10h-38v-39h-10v91h55v-11h-45zM456 36v80h-29v11h68v-11h-29
v-80h-10zM727 127v-81h41v-10h-51v91h10zM789 127v-81h41v-10h-51v91h10zM392 245q-7 5 -13 5h-22v-36h22q8 0 13 5.5t5 12.5q0 8 -5 13zM1588 86q5 2 7 6t2 9q0 6 -4 10.5t-12 4.5h-22v-31h22q5 0 7 1zM1079 85q5 0 10.5 4t5.5 12q0 6 -5 10.5t-11 4.5h-22v-31h22zM554 228
q1 2 1 6q0 6 -4 11t-11 5h-22v-31h22q4 0 6 1l5 3zM662 -86l-18 43q-2 3 -2 5t-1 4q0 -1 -2 -9l-18 -43h41zM1210 127v-91h-10v91h10zM927 244l-19 -44h39l-19 42q0 1 -0.5 2t-0.5 3v-3zM1363 -117q4 -4 4 -11q0 -15 -16 -15q-5 0 -10 3.5t-5 11.5q0 6 4 11t11 5t12 -5z
M2013 738q20 -17 35 -43.5t19.5 -54.5t-3 -53.5t-32.5 -41.5q-14 -9 -23 -7t-16 10.5t-13 21l-12 24.5q-5 11 -11.5 21t-11.5 17q-13 17 -33.5 24.5t-39.5 4.5q-74 -11 -162 -42t-184 -70l-197 -81t-201 -74.5t-196.5 -49.5t-182.5 -7q-2 -5 -3 -8t-2 -5q-1 -3 -1 -5
q-26 -5 -46.5 -6.5t-47.5 6.5q-23 2 -48 2t-53 -4q2 -5 -23.5 -7.5t-61.5 -2.5t-75 3t-64 9q-7 5 -15 25t-14 48.5t-9 62.5t1 68t16 64.5t36 52.5q36 33 56.5 66.5t31.5 61.5t16 49t8 30q4 8 5 26t15 38q0 2 -0.5 4t-0.5 4v8t1 10q0 12 3 21q0 8 4 18q3 9 5 10q4 1 8 -8
q2 -3 3.5 -6t4.5 -5l10 -10q1 -2 3 -3.5t4 -3.5q14 5 32 8.5t41 3.5h15.5t14.5 -1q10 -2 18.5 -4t13.5 -4q4 3 9.5 5.5t7.5 3.5q3 2 6.5 3t6.5 3q4 1 11 8t10 4q2 -2 2 -11q0 -4 -0.5 -8.5t-1.5 -9.5q-2 -5 -2.5 -10.5t-2.5 -10.5v-1q11 -12 17.5 -25.5t9.5 -26.5t3.5 -24
t0.5 -16q0 -3 -2 -7q-1 -4 -6 -10q-2 -3 -4.5 -5.5t-4.5 -5.5q-3 -2 -5 -4t-4 -3v-1q-15 -26 -22.5 -61t-5.5 -70t15 -66.5t39 -50.5q29 -22 36 -58.5t3 -73.5q69 9 142.5 39.5t153 71l165 85t178 83t192.5 65t208 30.5q58 0 112 -11t95 -46zM559 882q0 11 -9 15
q-12 0 -12 -14q-2 -12 10 -14q9 0 11 13zM682 884q0 12 -11 14q-9 0 -11 -12q0 -14 10 -14q5 -2 8 2.5t4 9.5zM644 833q0 6 -11 6q-9 0 -9 -6q0 -4 4 -8.5t5 -4.5q2 0 6.5 4.5t4.5 8.5zM1685 164h-57v100h14v-87h43v-13z" />
    <glyph glyph-name="nine" unicode="9" horiz-adv-x="2048" 
d="M1649 -35q4 -8 6.5 -16.5t2.5 -19.5q0 -6 -3 -18t-11 -24t-22 -21t-36 -9q-17 0 -30 6.5t-22.5 16.5t-14.5 23t-5 26q0 33 22.5 52.5t49.5 19.5q23 0 39 -11t24 -25zM955 -35q4 -8 6.5 -16.5t2.5 -19.5q0 -32 -21.5 -52t-50.5 -20q-17 0 -30.5 6.5t-22.5 17t-14 23
t-5 25.5q0 18 6.5 31.5t17 22.5t23.5 13.5t25 4.5q23 0 39 -11t24 -25zM1804 -1q2 0 2.5 0.5t2.5 0.5h26v-142h-26v104q-1 -2 -1 -3.5t-1 -3.5l-19 -49t-20 -48h-24l-37 90q-2 4 -2 7l-2 6v-103h-26v142h25q9 0 15 -7l3 -4l8 -21.5t9 -21.5l17 -43q2 -2 2 -9v-1q0 2 1 5t1 5
l5 10l29 76q4 7 12 10zM1083 0h26v-142h-24l-68 95q-1 1 -1 1.5t-1 1.5l-2 4q-2 2 -2 3l-2 3v-108h-26v142h23q11 0 21.5 -16l21.5 -32l30 -41q4 -8 4 -11v100zM653 0l62 -142h-16q-10 0 -17 11l-8 19h-65l-8 -19q-2 -4 -6.5 -7.5t-10.5 -3.5h-16l62 142h23zM1499 200
q-5 -11 -15 -24t-35 -13q-20 0 -35.5 13.5t-15.5 36.5q0 17 12.5 34.5t38.5 17.5q20 0 35.5 -14t15.5 -38q0 -8 -1 -13zM262 0h105v-12q0 -5 -1 -7l-3 -6l-70 -94q1 0 2 1t4 1h67v-25h-108v8q0 8 3 13l3 6q3 3 4 5l62 85h-68v25zM762 200q-5 -13 -15.5 -25t-33.5 -12
q-20 0 -36 14t-16 36q0 21 15.5 36.5t36.5 15.5q22 0 36.5 -15.5t14.5 -36.5q0 -3 -0.5 -6t-1.5 -7zM384 0h91v-25h-65v-33h53v-25h-53v-34h65v-25h-91v142zM1416 -38q-6 -7 -10 -15.5t-4 -17.5q0 -19 14 -32.5t33 -13.5q13 0 19.5 5.5t16.5 5.5q8 0 14 -6l5 -5
q-11 -14 -25.5 -20t-29.5 -6q-33 0 -52.5 22.5t-19.5 49.5t19.5 49.5t52.5 22.5q14 0 29 -6.5t26 -19.5l-5 -6q-5 -5 -14 -5q-8 0 -16.5 5.5t-19.5 5.5q-9 0 -17.5 -4t-15.5 -9zM1319 -73q9 -8 9 -25q0 -22 -16.5 -33.5t-33.5 -11.5q-20 0 -31 10.5t-16 20.5q2 1 3.5 2
t3.5 2l4 1q2 0 2.5 0.5t2.5 0.5q10 0 15.5 -5.5t15.5 -5.5q5 0 8 1l8 3q9 7 9 15q0 7 -9 12q-8 5 -17.5 8t-18 7.5t-14.5 12t-6 20.5q0 21 15 30t29 9q10 0 21 -6t19 -17l-5 -4q-8 -5 -15 -5h-3q-4 1 -8 3.5t-9 2.5q-18 0 -18 -13q0 -6 4 -8.5t9 -4.5l17 -6q17 -5 25 -16z
M1245 48q-6 7 -10 15.5t-4 17.5q0 21 15 34t32 13q20 0 33.5 -14.5t13.5 -32.5q0 -23 -15 -34.5t-32 -11.5q-20 0 -33 13zM1706 48q-13 -13 -33 -13q-19 0 -33 13t-14 33q0 14 12 30.5t35 16.5q17 0 32 -12.5t15 -34.5q0 -19 -14 -33zM1629 -89q2 5 3 9t1 9q0 21 -15 33.5
t-32 12.5t-31.5 -13t-14.5 -33t14 -33t32 -13q16 0 26 7.5t17 20.5zM935 -89q2 5 3 9t1 9q0 20 -14 33t-33 13q-17 0 -31.5 -12.5t-14.5 -33.5q0 -20 14 -33t32 -13q30 0 43 28zM721 0h90v-25h-65v-36h55v-25h-55v-56h-25v142zM1121 0h109v-25h-42v-117h-26v117h-41v25z
M589 -25h-41v-117h-26v117h-42v25h109v-25zM571 164q-10 0 -12 6l-26 35h-15v-41h-14v100h36q12 0 20.5 -8.5t8.5 -21.5q0 -20 -20 -27l31 -43h-9zM1476 240q-11 11 -27 11q-14 0 -25.5 -10.5t-11.5 -27.5q0 -11 9 -24t28 -13q15 0 26.5 11t11.5 26q0 18 -11 27zM739 240
q-9 11 -26 11q-14 0 -26 -10.5t-12 -27.5q0 -11 9 -24t29 -13q14 0 25.5 10.5t11.5 26.5t-11 27zM970 164q-7 0 -10 6l-7 16h-51l-7 -16q-3 -6 -10 -6h-8l44 100h13l44 -100h-8zM408 220q-3 -8 -10.5 -13.5t-18.5 -5.5h-22v-37h-13v100h35q14 0 23 -10t9 -22q0 -6 -3 -12z
M1673 45q17 0 26.5 11t9.5 25q0 18 -11.5 27t-24.5 9q-14 0 -25 -10t-11 -26q0 -11 9 -23.5t27 -12.5zM1245 95q-3 -6 -3 -14q0 -15 10.5 -25.5t25.5 -10.5q18 0 27 11.5t9 24.5q0 14 -9.5 25t-26.5 11q-10 0 -19 -5t-14 -17zM867 164h-11l-57 78q-1 1 -2 4v-82h-14v100h10
q7 0 10 -4l48 -67q2 -4 2 -7v78h14v-100zM1604 164h-12l-57 78q-1 0 -1 4l-1 2v-84h-14v100h10q6 0 10 -4l48 -67q2 -2 2 -3.5t1 -3.5v78h14v-100zM1093 78q-2 -1 -8 -3l30 -39h-6q-8 0 -11 5l-25 34h-16v-39h-10v91h32q12 0 19 -8.5t7 -17.5q0 -8 -3.5 -13.5t-8.5 -9.5z
M1602 84q-5 -7 -14 -9l29 -39h-6q-8 0 -10 5l-25 34h-17v-39h-10v91h32q12 0 19.5 -8t7.5 -18q0 -11 -6 -17zM1822 125q4 2 5 2h8v-91h-10v75l-1 -2v-1v-1l-9 -20q-4 -10 -8.5 -18.5t-6.5 -16.5l-8 -16h-10q-5 8 -8.5 17t-7.5 18l-16 36v1q0 1 -0.5 1t-0.5 1v-74h-10v91h8
q2 0 5 -2t3 -4l31 -70v-2q0 -1 1 -1q0 1 0.5 2t0.5 2l31 69q1 2 3 4zM483 250h-48v-29h39v-14h-39v-30h48v-13h-62v100h62v-14zM1341 250l-48 1v-30h39v-14h-39v-30h48v-13h-62v100h62v-14zM1182 203q0 -12 -4.5 -19.5t-11 -12.5t-13.5 -7t-11 -2q-20 0 -30 13.5t-10 27.5
v61h13v-61q0 -11 8 -19t19 -8q10 0 18 7.5t8 19.5v61h14v-61zM1352 36h-10v91h7q5 0 8 -4l47 -66q2 -2 2 -5v75h10v-91h-9l-54 75q-1 0 -0.5 1.5t-0.5 2.5v-79zM648 181q-11 -18 -32 -18q-8 0 -19 4.5t-11 12.5q-1 0 -1 2l3 1q2 2 6 2t7 -3l2 -1q3 -5 13 -5q5 0 12.5 4
t7.5 13t-6 11.5t-14 5.5l-10 5q-17 7 -17 24q0 16 11 21t19 5q4 0 8.5 -1.5t6.5 -3.5l7 -5q2 -2 3 -2.5t2 -2.5l-4 -2q-3 -3 -7 -3q-5 0 -8 3t-8 3q-4 0 -6 -1l-6 -2q-4 -3 -4 -9q0 -5 1.5 -7.5t7.5 -4.5l9 -3q2 -1 4.5 -2t5.5 -2l4 -2q8 -3 11.5 -10t3.5 -15q0 -4 -2 -12z
M1259 181q-10 -18 -31 -18q-11 0 -17 4t-12 10l-3 5l4 1q2 2 5 2q5 0 8 -3l1 -1q5 -5 14 -5q8 0 14 5t6 12q0 6 -6 12l-14 5l-10 5q-18 7 -18 24q0 14 10.5 20t20.5 6q8 0 15 -5l7 -5l5 -5l-4 -2q-3 -3 -7 -3q-5 0 -9 3t-7 3q-5 0 -7 -1l-5 -2q-5 -3 -5 -9q0 -7 10 -12l8 -3
q4 -2 5 -2l10 -4q8 -3 11.5 -10t3.5 -15q0 -6 -3 -12zM265 58q-4 4 -5.5 10.5t-1.5 12.5q0 20 14 33.5t33 13.5q9 0 18 -3.5t15 -10.5l-2 -2q-2 -2 -4 -2h-2q-6 0 -11.5 3.5t-13.5 3.5q-15 0 -26 -10.5t-11 -25.5q0 -17 12 -26.5t25 -9.5q12 0 23 6v19h-7q-4 0 -6.5 3
t-2.5 6v1h26v-35q-7 -8 -24 -10h-9q-15 0 -25 6.5t-15 16.5zM1729 215q-4 -4 -3 -4l-1 -2v-3v-42h-14v45q-1 1 -1 2l-3 4l-36 49h10q8 0 12 -7l24 -32l1 -1v-2v1q0 2 1 2l24 32q3 7 12 7h10zM980 116v-29h37v-10h-37v-31h45v-10h-55v91h55v-11h-45zM371 116v-29h36v-10h-36
v-31h45v-10h-56v91l56 -1v-10h-45zM635 127v-56q0 -11 7.5 -18.5t18.5 -7.5q10 0 18.5 7t8.5 19v56h10v-56q0 -19 -12.5 -27.5t-24.5 -8.5q-15 0 -25.5 10t-10.5 26v56h10zM913 36l-40 91h6q2 0 4.5 -1.5t3.5 -4.5l30 -68q0 -2 0.5 -3t0.5 -2v2q0 1 0.5 1.5t0.5 1.5l30 68
q2 6 8 6h5l-39 -91h-10zM1045 164h-57v100h13v-87h44v-13zM1163 49q6 4 6 12q0 11 -12 16l-7 2q-7 2 -15.5 6.5t-8.5 18.5q0 9 7.5 16.5t18.5 7.5q2 0 4 -0.5t4 -0.5l6 -3q2 -2 3 -2.5t2 -1.5l5 -4l-3 -2q-1 -2 -5 -2q-3 0 -5 1l-5 3q-2 0 -3 0.5t-3 0.5q-16 0 -16 -13
q0 -8 9 -12l9 -3q2 -2 6 -3t7 -3l4 -2q9 -9 9 -20q0 -14 -10 -20t-21 -6q-10 0 -18.5 5.5t-8.5 10.5l2 1q1 1 4 1q5 0 10 -4t11 -4q9 0 14 4zM563 116v-31h38v-10h-38v-39h-11v91h56v-11h-45zM1493 116v-31h38v-10h-38v-39h-10v91h55v-11h-45zM456 36v80h-29v11h68v-11h-29
v-80h-10zM727 127v-81h41v-10h-51v91h10zM789 127v-81h41v-10h-51v91h10zM392 245q-7 5 -13 5h-22v-36h22q8 0 13 5.5t5 12.5q0 8 -5 13zM1588 86q5 2 7 6t2 9q0 6 -4 10.5t-12 4.5h-22v-31h22q5 0 7 1zM1079 85q5 0 10.5 4t5.5 12q0 6 -5 10.5t-11 4.5h-22v-31h22zM554 228
q1 2 1 6q0 6 -4 11t-11 5h-22v-31h22q4 0 6 1l5 3zM662 -86l-18 43q-2 3 -2 5t-1 4q0 -1 -2 -9l-18 -43h41zM1210 127v-91h-10v91h10zM927 244l-19 -44h39l-19 42q0 1 -0.5 2t-0.5 3v-3zM1363 -117q4 -4 4 -11q0 -15 -16 -15q-5 0 -10 3.5t-5 11.5q0 6 4 11t11 5t12 -5z
M1851 638q8 -19 11.5 -35.5t3.5 -30.5q0 -26 -16.5 -46.5t-46.5 -20.5q-13 0 -23 8t-21.5 20.5l-25.5 27t-35 27t-50 20.5t-71 8q-57 0 -152 -17t-226 -56q8 -10 14.5 -21t10.5 -23q0 -11 12.5 -31.5t30.5 -41t39 -35.5t39 -15q24 0 39 -3.5t24 -9.5t13.5 -13.5l9.5 -15.5
h-262v-16q0 -35 -6.5 -42.5t-16.5 -7.5q-9 0 -16.5 4t-12.5 9.5t-8 10.5t-3 7q-17 5 -28.5 11t-22.5 14q-28 -1 -61 -1.5l-68.5 -1t-71.5 -0.5h-69h-158q-21 -3 -43.5 -7l-44 -8t-41 -7t-33.5 -3q-19 0 -38.5 2t-35 9t-25 21t-9.5 38q0 16 3 32.5t13 30.5q16 27 34 53
t49 47.5t81.5 36t132.5 16.5q49 0 88 -13.5t81 -30.5q25 13 54 26.5t60 30.5q-27 33 -27 52q0 14 4 27.5t11 25.5q-5 14 -12 37t-7 45q0 8 0.5 14.5t3.5 11.5l31 -19l30 -17t31 -16q14 5 29.5 7.5t30.5 2.5q18 0 33 -2.5t29 -7.5q15 7 31.5 16l30.5 17q16 10 32 19
q1 -5 3 -11.5t2 -12.5q0 -19 -6 -40.5t-12 -37.5q76 23 165 40t186 17q45 0 89.5 -9t82 -25.5t66 -39.5t41.5 -51zM1009 692q-1 6 -8 6q-8 -2 -8 -6q0 -5 3 -7.5t5 -2.5q4 0 6 3.5t2 6.5zM1081 655q0 6 -12 6q-6 0 -9 -0.5t-5 -5.5q0 -5 4 -9.5t9 -4.5t9 4.5t4 9.5z
M1167 693q-2 8 -11 8q-8 -5 -8 -10q1 -9 8 -9q5 0 8 3.5t3 7.5zM1685 164h-57v100h14v-87h43v-13z" />
    </font>
</defs>
</svg>
